<svg width="32" height="32" viewBox="0 0 32 32" fill="none" xmlns="http://www.w3.org/2000/svg">
<path d="M20.0007 29.3332V26.6665H25.334V13.3332H6.66732V18.6665H4.00065V7.99984C4.00065 7.2665 4.26176 6.63873 4.78398 6.1165C5.30621 5.59428 5.93398 5.33317 6.66732 5.33317H8.00065V2.6665H10.6673V5.33317H21.334V2.6665H24.0007V5.33317H25.334C26.0673 5.33317 26.6951 5.59428 27.2173 6.1165C27.7395 6.63873 28.0006 7.2665 28.0006 7.99984V26.6665C28.0006 27.3998 27.7395 28.0276 27.2173 28.5498C26.6951 29.0721 26.0673 29.3332 25.334 29.3332H20.0007ZM10.6673 31.9998L8.80065 30.1332L12.234 26.6665H1.33398V23.9998H12.234L8.80065 20.5332L10.6673 18.6665L17.334 25.3332L10.6673 31.9998ZM6.66732 10.6665H25.334V7.99984H6.66732V10.6665Z" fill="#FFCDD8"/>
</svg>
