<svg width="58" height="58" viewBox="0 0 58 58" fill="none" xmlns="http://www.w3.org/2000/svg">
<circle cx="29" cy="29" r="28.5" stroke="#32473A"/>
<path d="M12.0363 44V22.48H18.2763V44H12.0363ZM15.1563 19.48C14.0096 19.48 13.0763 19.1467 12.3563 18.48C11.6363 17.8133 11.2763 16.9867 11.2763 16C11.2763 15.0133 11.6363 14.1867 12.3563 13.52C13.0763 12.8533 14.0096 12.52 15.1563 12.52C16.3029 12.52 17.2363 12.84 17.9563 13.48C18.6763 14.0933 19.0363 14.8933 19.0363 15.88C19.0363 16.92 18.6763 17.7867 17.9563 18.48C17.2629 19.1467 16.3296 19.48 15.1563 19.48ZM37.1475 22.16C38.8542 22.16 40.3742 22.5067 41.7075 23.2C43.0675 23.8667 44.1342 24.9067 44.9075 26.32C45.6808 27.7067 46.0675 29.4933 46.0675 31.68V44H39.8275V32.64C39.8275 30.9067 39.4408 29.6267 38.6675 28.8C37.9208 27.9733 36.8542 27.56 35.4675 27.56C34.4808 27.56 33.5875 27.7733 32.7875 28.2C32.0142 28.6 31.4008 29.2267 30.9475 30.08C30.5208 30.9333 30.3075 32.0267 30.3075 33.36V44H24.0675V22.48H30.0275V28.44L28.9075 26.64C29.6808 25.2 30.7875 24.0933 32.2275 23.32C33.6675 22.5467 35.3075 22.16 37.1475 22.16Z" fill="#32473A"/>
</svg>
