<svg width="58" height="58" viewBox="0 0 58 58" fill="none" xmlns="http://www.w3.org/2000/svg">
<path d="M15.052 22.396V18.868H15.628C18.796 18.868 20.632 17.284 20.776 14.44H24.16V40H20.056V22.396H15.052ZM41.766 26.248C44.07 27.76 44.898 29.344 44.898 32.296C44.898 37.336 41.946 40.684 37.59 40.684C33.162 40.684 30.354 37.588 30.354 32.692C30.354 29.668 31.254 27.868 33.558 26.428C31.722 25.204 31.002 23.8 31.002 21.424C31.002 17.248 33.666 14.44 37.59 14.44C41.514 14.44 44.178 17.176 44.178 21.172C44.178 23.512 43.458 25.024 41.766 26.248ZM37.734 18.472C36.042 18.472 34.962 19.696 34.962 21.568C34.962 23.44 36.078 24.808 37.662 24.808C39.21 24.808 40.218 23.548 40.218 21.64C40.218 19.768 39.21 18.472 37.734 18.472ZM37.626 28.624C35.754 28.624 34.602 30.136 34.602 32.584C34.602 35.068 35.79 36.652 37.626 36.652C39.426 36.652 40.65 34.996 40.65 32.584C40.65 30.244 39.426 28.624 37.626 28.624Z" fill="#FFCDD8"/>
<path d="M13.4 29.448H16.976V32.136H13.4V35.736H10.712V32.136H7.064V29.448H10.712V25.824H13.4V29.448Z" fill="#FFCDD8"/>
<circle cx="29" cy="29" r="28.5" stroke="#FFCDD8"/>
</svg>
