<svg width="154" height="152" viewBox="0 0 154 152" fill="none" xmlns="http://www.w3.org/2000/svg">
<path d="M83.8864 69.18H81.1098C70.1597 68.9413 59.3502 68.879 53.9897 75.865C49.7649 79.8407 49.3169 88.6277 49.4836 98.2088C51.8122 111.127 56.7872 121.528 67.7894 126.184C76.7704 129.968 86.663 129.994 97.212 127.331C115.81 123.288 119.774 110.748 121.936 97.1603C123.863 76.8823 113.663 67.2545 103.25 65.9413C97.0766 64.8877 90.5648 66.4292 83.8916 69.1852L83.8864 69.18Z" fill="#FFCDD8" stroke="#36463B" stroke-width="0.75" stroke-miterlimit="10"/>
<path d="M82.7818 60.7874C79.1456 50.3136 72.0036 47.433 64.5958 47.3084C61.3451 47.2513 58.0789 47.843 55.1668 49.2755C52.26 50.708 49.7855 52.7893 48.0508 55.9761C53.8593 56.7805 54.7344 62.8375 61.3087 66.2942C69.6593 69.372 77.3276 68.8789 81.8806 63.6731" fill="#FFCDD8"/>
<path d="M82.7818 60.7874C79.1456 50.3136 72.0036 47.433 64.5958 47.3084C61.3451 47.2513 58.0789 47.843 55.1668 49.2755C52.26 50.708 49.7855 52.7893 48.0508 55.9761C53.8593 56.7805 54.7344 62.8375 61.3087 66.2942C69.6593 69.372 77.3276 68.8789 81.8806 63.6731" stroke="#36463B" stroke-width="0.5" stroke-miterlimit="10"/>
<path d="M50.7812 55.317C56.0844 54.144 61.2469 54.9796 66.1906 58.8671C70.5196 62.2822 75.1925 63.6006 80.2768 62.4172" stroke="#36463B" stroke-width="0.5" stroke-miterlimit="10"/>
<path d="M70.5817 53.1733C68.5552 56.0176 68.7011 58.8722 71.0401 61.7372" stroke="#36463B" stroke-width="0.5" stroke-miterlimit="10"/>
<path d="M65.5293 64.976C67.0556 62.4224 68.5768 61.3429 70.1031 61.7321" stroke="#36463B" stroke-width="0.5" stroke-miterlimit="10"/>
<path d="M63.9556 51.1079C62.5178 52.4833 61.7676 54.1805 63.3305 56.9676" stroke="#36463B" stroke-width="0.5" stroke-miterlimit="10"/>
<path d="M56.9961 60.1077C59.6008 57.8603 62.4607 58.8465 64.805 57.8604" stroke="#36463B" stroke-width="0.5" stroke-miterlimit="10"/>
<path d="M81.1838 69.4861L84.2208 68.9982C84.2365 65.8426 85.0648 62.7388 86.7943 59.6922C87.06 59.2199 87.4142 58.7891 87.8205 58.431C89.2687 57.1334 90.1231 55.9656 89.8782 55.0366C89.2792 54.0297 88.3623 53.5989 87.1016 53.7754C86.763 53.8221 86.4661 54.0349 86.2681 54.3152C83.0019 58.95 81.1629 63.9741 81.1838 69.4913V69.4861Z" fill="#FFCDD8" stroke="#36463B" stroke-width="0.5" stroke-miterlimit="10"/>
<path d="M83.8927 95.2091C82.5956 94.3371 81.3089 94.5447 80.0273 95.4945" stroke="#36463B" stroke-width="0.25" stroke-miterlimit="10"/>
<path d="M89.4865 94.9024C88.1893 94.0305 86.9026 94.2381 85.6211 95.1879" stroke="#36463B" stroke-width="0.25" stroke-miterlimit="10"/>
<path d="M85.997 96.0863C85.1895 96.6572 85.3927 97.3008 85.997 97.0465C87.2681 96.1486 88.3308 96.1849 89.2164 97.0153C89.6279 97.2489 90.352 96.9115 89.5758 96.2524C88.4245 95.4531 87.2368 95.3648 85.997 96.0811V96.0863Z" fill="#36463B" stroke="#36463B" stroke-width="0.25" stroke-miterlimit="10"/>
<path d="M80.5634 96.3041C79.7559 96.875 79.9591 97.5186 80.5634 97.2642C81.8345 96.3663 82.8972 96.4027 83.7828 97.2331C84.1943 97.4667 84.9184 97.1293 84.1422 96.4701C82.9909 95.6708 81.8032 95.5826 80.5634 96.2989V96.3041Z" fill="#36463B" stroke="#36463B" stroke-width="0.25" stroke-miterlimit="10"/>
<path d="M87.508 98.4943C85.8566 99.2676 84.1375 99.3403 82.3559 98.7693C81.4651 98.6292 81.3036 99.2572 82.0069 100.788C82.3403 101.364 82.6476 101.977 83.3301 102.589C84.6428 103.285 85.7576 103.337 86.9402 102.532C87.5705 102.06 87.9248 101.37 88.1071 100.544C88.2842 99.2676 88.3155 98.2244 87.508 98.4994V98.4943Z" fill="#36463B" stroke="#36463B" stroke-width="0.25" stroke-miterlimit="10"/>
<path d="M83.4917 101.588C84.7628 102.703 85.8672 102.563 86.8414 101.421C87.3779 100.643 87.5602 99.9111 87.4509 99.2104C85.8776 99.8852 84.2627 100.015 82.5957 99.553C82.7051 100.243 82.9135 100.928 83.4917 101.588Z" stroke="#36463B" stroke-width="0.25" stroke-miterlimit="10"/>
<path d="M82.8496 100.451C84.4333 100.913 85.9336 100.84 87.3297 100.176C87.2724 101.1 86.8869 101.847 85.7981 102.226H84.6729C83.6831 102.148 83.2143 101.37 82.8496 100.451Z" fill="#FFCDD8"/>
<path d="M82.6523 99.6569L82.8972 100.565C84.4183 101.012 85.8874 100.903 87.2991 100.243L87.4189 99.3247C85.9082 99.8541 84.3246 99.9839 82.6576 99.6569H82.6523Z" fill="white"/>
<path d="M48.7438 97.4563C38.4657 97.0775 31.11 87.8908 25.0254 74.8738C23.9002 72.6161 22.2124 73.4309 23.3168 75.6991C31.2715 91.9703 40.3775 100.711 50.8067 100.783L48.749 97.4563H48.7438Z" fill="#36463B" stroke="#36463B" stroke-width="0.25" stroke-miterlimit="10"/>
<path d="M123.055 92.0688C130.916 89.3699 133.177 82.9289 132.995 74.8581C133.021 73.4412 134.641 73.4412 134.641 74.8581C134.594 85.0309 130.807 91.6691 122.717 94.2539L123.061 92.0688H123.055Z" fill="#36463B" stroke="#36463B" stroke-width="0.25" stroke-miterlimit="10"/>
<path d="M80.8082 130.689L82.173 142.777C82.2616 143.945 81.8969 144.184 80.4487 144.277H76.3541C75.031 144.542 74.4996 143.592 74.8486 141.272C74.9059 139.928 75.8905 139.45 77.6513 139.699L80.1622 140.27L79.3704 130.684" fill="#36463B"/>
<path d="M80.8082 130.689L82.173 142.777C82.2616 143.945 81.8969 144.184 80.4487 144.277H76.3541C75.031 144.542 74.4996 143.592 74.8486 141.272C74.9059 139.928 75.8905 139.45 77.6513 139.699L80.1622 140.27L79.3704 130.684" stroke="#36463B" stroke-width="0.25" stroke-miterlimit="10"/>
<path d="M80.3244 141.998C78.6365 141.355 77.6363 141.339 76.5684 141.267C76.1829 141.479 76.1829 141.936 76.5684 142.637H80.4598L80.3244 141.998Z" fill="white" stroke="#36463B" stroke-width="0.25" stroke-miterlimit="10"/>
<path d="M92.0347 130.689L93.3996 142.777C93.4881 143.945 93.1235 144.184 91.6753 144.277H87.5807C86.2575 144.542 85.7262 143.592 86.0752 141.272C86.1325 139.928 87.1171 139.45 88.8778 139.699L91.3888 140.27L90.5969 130.684" fill="#36463B"/>
<path d="M92.0347 130.689L93.3996 142.777C93.4881 143.945 93.1235 144.184 91.6753 144.277H87.5807C86.2575 144.542 85.7262 143.592 86.0752 141.272C86.1325 139.928 87.1171 139.45 88.8778 139.699L91.3888 140.27L90.5969 130.684" stroke="#36463B" stroke-width="0.25" stroke-miterlimit="10"/>
<path d="M91.549 141.998C89.8612 141.355 88.861 141.339 87.793 141.267C87.4075 141.479 87.4075 141.936 87.793 142.637H91.6844L91.549 141.998Z" fill="white" stroke="#36463B" stroke-width="0.25" stroke-miterlimit="10"/>
</svg>
