<svg width="171" height="154" viewBox="0 0 171 154" fill="none" xmlns="http://www.w3.org/2000/svg">
<g clip-path="url(#clip0_785_320)">
<path d="M77.446 36.8665H81.7011C98.4818 36.4943 115.047 36.3972 123.262 47.2898C129.736 53.4887 130.423 67.1895 130.167 82.1285C126.599 102.271 118.975 118.489 102.114 125.748C88.3511 131.647 73.191 131.688 57.025 127.536C28.5249 121.232 22.4496 101.68 19.1366 80.4938C16.1828 48.876 31.8139 33.8642 47.7724 31.8168C57.2325 30.174 67.2115 32.5775 77.4381 36.8746L77.446 36.8665Z" fill="#FFCDD8" stroke="#36463B" stroke-width="0.75" stroke-miterlimit="10"/>
<path d="M79.1391 23.7802C84.7114 7.44928 95.6564 2.95788 107.009 2.76366C111.99 2.67464 116.996 3.5972 121.458 5.83076C125.913 8.06432 129.705 11.3094 132.363 16.2783C123.462 17.5327 122.121 26.9767 112.046 32.3664C99.2489 37.1653 87.4976 36.3965 80.5202 28.2796" fill="#FFCDD8"/>
<path d="M79.1391 23.7802C84.7114 7.44928 95.6564 2.95788 107.009 2.76366C111.99 2.67464 116.996 3.5972 121.458 5.83076C125.913 8.06432 129.705 11.3094 132.363 16.2783C123.462 17.5327 122.121 26.9767 112.046 32.3664C99.2489 37.1653 87.4976 36.3965 80.5202 28.2796" stroke="#36463B" stroke-width="0.5" stroke-miterlimit="10"/>
<path d="M128.18 15.2509C120.053 13.422 112.141 14.7249 104.565 20.7862C97.9313 26.1112 90.7703 28.1667 82.9787 26.3216" stroke="#36463B" stroke-width="0.5" stroke-miterlimit="10"/>
<path d="M97.8344 11.9082C100.94 16.343 100.716 20.7939 97.1319 25.261" stroke="#36463B" stroke-width="0.5" stroke-miterlimit="10"/>
<path d="M105.578 30.3113C103.239 26.3297 100.908 24.6465 98.5689 25.2534" stroke="#36463B" stroke-width="0.5" stroke-miterlimit="10"/>
<path d="M107.991 8.68848C110.194 10.833 111.344 13.4793 108.949 17.825" stroke="#36463B" stroke-width="0.5" stroke-miterlimit="10"/>
<path d="M118.656 22.7209C114.665 19.2168 110.282 20.7544 106.689 19.2168" stroke="#36463B" stroke-width="0.5" stroke-miterlimit="10"/>
<path d="M81.5896 37.3435L76.9354 36.5828C76.9114 31.6625 75.6421 26.8232 72.9916 22.0728C72.5845 21.3364 72.0416 20.6647 71.4189 20.1063C69.1996 18.0831 67.8904 16.2623 68.2656 14.8137C69.1836 13.2438 70.5887 12.5721 72.5206 12.8472C73.0395 12.9201 73.4946 13.2519 73.7979 13.6889C78.8034 20.9156 81.6215 28.7492 81.5896 37.3516V37.3435Z" fill="#FFCDD8" stroke="#36463B" stroke-width="0.5" stroke-miterlimit="10"/>
<path d="M77.4378 77.4499C79.4256 76.0903 81.3975 76.414 83.3613 77.895" stroke="#36463B" stroke-width="0.25" stroke-miterlimit="10"/>
<path d="M68.8636 76.9733C70.8514 75.6138 72.8232 75.9375 74.7871 77.4184" stroke="#36463B" stroke-width="0.25" stroke-miterlimit="10"/>
<path d="M74.2138 78.818C75.4512 79.7082 75.1399 80.7116 74.2138 80.3151C72.2659 78.9151 70.6374 78.9717 69.2802 80.2665C68.6495 80.6307 67.5399 80.1047 68.7294 79.0769C70.4937 77.8307 72.3138 77.6931 74.2138 78.8099V78.818Z" fill="#36463B" stroke="#36463B" stroke-width="0.25" stroke-miterlimit="10"/>
<path d="M82.54 79.1578C83.7774 80.048 83.4661 81.0515 82.54 80.6549C80.5921 79.2549 78.9635 79.3116 77.6064 80.6064C76.9757 80.9706 75.866 80.4445 77.0555 79.4168C78.8198 78.1705 80.64 78.0329 82.54 79.1497V79.1578Z" fill="#36463B" stroke="#36463B" stroke-width="0.25" stroke-miterlimit="10"/>
<path d="M71.8977 82.5738C74.4284 83.7796 77.0628 83.8929 79.7931 83.0027C81.1582 82.7842 81.4057 83.7634 80.328 86.1507C79.8171 87.049 79.346 88.0039 78.3002 88.9588C76.2885 90.0433 74.5801 90.1242 72.7679 88.8698C71.8019 88.1334 71.259 87.0571 70.9796 85.7704C70.7082 83.7796 70.6603 82.153 71.8977 82.5819V82.5738Z" fill="#36463B" stroke="#36463B" stroke-width="0.25" stroke-miterlimit="10"/>
<path d="M78.0527 87.3968C76.1048 89.1368 74.4123 88.9183 72.9195 87.1379C72.0972 85.924 71.8178 84.7829 71.9854 83.6904C74.3964 84.7425 76.8712 84.9448 79.4258 84.2245C79.2581 85.3009 78.9388 86.3691 78.0527 87.3968Z" stroke="#36463B" stroke-width="0.25" stroke-miterlimit="10"/>
<path d="M79.0352 85.6242C76.6083 86.3445 74.3091 86.2312 72.1696 85.1953C72.2574 86.6358 72.8482 87.8011 74.5166 88.3919H76.241C77.7578 88.2705 78.4763 87.0566 79.0352 85.6242Z" fill="#FFCDD8"/>
<path d="M79.3379 84.3861L78.9627 85.8023C76.6316 86.4983 74.3803 86.3283 72.2169 85.3006L72.0332 83.8682C74.3484 84.6936 76.7753 84.8959 79.3299 84.3861H79.3379Z" fill="white"/>
<path d="M131.301 80.9552C147.052 80.3644 158.324 66.0405 167.649 45.7443C169.373 42.224 171.96 43.4945 170.267 47.031C158.077 72.4013 144.122 86.0292 128.14 86.1425L131.293 80.9552H131.301Z" fill="#36463B" stroke="#36463B" stroke-width="0.25" stroke-miterlimit="10"/>
<path d="M17.4205 72.5545C5.37387 68.3464 1.90915 58.3035 2.18856 45.7195C2.14864 43.5102 -0.334129 43.5102 -0.334129 45.7195C-0.26228 61.581 5.54151 71.9314 17.9395 75.9615L17.4126 72.5545H17.4205Z" fill="#36463B" stroke="#36463B" stroke-width="0.25" stroke-miterlimit="10"/>
<path d="M82.1641 132.772L80.0725 151.619C79.9368 153.44 80.4956 153.813 82.715 153.958H88.9898C91.0175 154.371 91.8318 152.89 91.2969 149.273C91.2091 147.177 89.7003 146.432 87.0019 146.821L83.154 147.711L84.3675 132.764" fill="#36463B"/>
<path d="M82.1641 132.772L80.0725 151.619C79.9368 153.44 80.4956 153.813 82.715 153.958H88.9898C91.0175 154.371 91.8318 152.89 91.2969 149.273C91.2091 147.177 89.7003 146.432 87.0019 146.821L83.154 147.711L84.3675 132.764" stroke="#36463B" stroke-width="0.25" stroke-miterlimit="10"/>
<path d="M82.9065 150.405C85.4931 149.401 87.0258 149.377 88.6624 149.264C89.2532 149.595 89.2532 150.308 88.6624 151.4H82.6989L82.9065 150.405Z" fill="white" stroke="#36463B" stroke-width="0.25" stroke-miterlimit="10"/>
<path d="M64.961 132.772L62.8694 151.619C62.7337 153.44 63.2925 153.813 65.5118 153.958H71.7866C73.8144 154.371 74.6287 152.89 74.0938 149.273C74.006 147.177 72.4971 146.432 69.7988 146.821L65.9509 147.711L67.1644 132.764" fill="#36463B"/>
<path d="M64.961 132.772L62.8694 151.619C62.7337 153.44 63.2925 153.813 65.5118 153.958H71.7866C73.8144 154.371 74.6287 152.89 74.0938 149.273C74.006 147.177 72.4971 146.432 69.7988 146.821L65.9509 147.711L67.1644 132.764" stroke="#36463B" stroke-width="0.25" stroke-miterlimit="10"/>
<path d="M65.7034 150.405C68.2899 149.401 69.8227 149.377 71.4593 149.264C72.05 149.595 72.05 150.308 71.4593 151.4H65.4958L65.7034 150.405Z" fill="white" stroke="#36463B" stroke-width="0.25" stroke-miterlimit="10"/>
</g>
<defs>
<clipPath id="clip0_785_320">
<rect width="171" height="154" fill="white" transform="matrix(-1 0 0 1 171 0)"/>
</clipPath>
</defs>
</svg>
