<?xml version="1.0" encoding="UTF-8"?>
<svg id="Layer_1" data-name="Layer 1" xmlns="http://www.w3.org/2000/svg" viewBox="0 0 560 265">
  <defs>
    <style>
      .cls-1, .cls-2, .cls-3 {
        fill: #ffcdd8;
      }

      .cls-2, .cls-3, .cls-4, .cls-5 {
        stroke: #36463b;
        stroke-miterlimit: 10;
      }

      .cls-2, .cls-4 {
        stroke-width: .5px;
      }

      .cls-3 {
        stroke-width: .75px;
      }

      .cls-4 {
        fill: none;
      }

      .cls-5 {
        fill: #fff;
        stroke-width: .25px;
      }

      .cls-6 {
        fill: #36463b;
      }
    </style>
  </defs>
  <path class="cls-6" d="M485.68,154.16c-2.46-3.2-5.93.23-3.42,3.39,18.09,18.05,30.74,43.77,38.09,76.89l-2.01,3.59c-1.76,2.46-1.04,5.08,1.9,4.54.04,3.04,3.4,4.4,4.62,1.38,2.6,2.83,5.18.06,3.91-2.83,3.28-.41,3.54-4.03.12-5l-4.22-2.17c-7.31-33.59-20.46-60.01-39.01-79.85v.04Z"/>
  <path class="cls-6" d="M53.1,155.03c2.54-3.14,5.93.37,3.34,3.49-18.56,17.58-31.84,42.97-40.05,75.86l1.92,3.66c1.7,2.5.92,5.12-2.03,4.5-.12,3.04-3.52,4.32-4.67,1.26-2.66,2.75-5.18-.08-3.83-2.91-3.25-.5-3.44-4.11,0-5l4.26-2.04c8.17-33.38,22-59.46,41.05-78.79v-.02Z"/>
  <path class="cls-6" d="M367.21,173.02c3.5,1.96,5.36-2.58,1.8-4.48-23.7-9.36-45.39-27.93-65.12-55.41l.43-4.11c.65-2.98-1.02-5.1-3.54-3.41-1.23-2.77-4.85-2.68-4.79.58-3.5-1.55-4.77,2-2.48,4.15-2.85,1.69-1.68,5.1,1.84,4.65l4.71.31c19.87,27.93,42.32,46.94,67.13,57.74l.02-.02Z"/>
  <path class="cls-6" d="M194.79,171.86c-3.5,1.96-5.36-2.58-1.8-4.48,23.7-9.36,45.39-27.93,65.12-55.41l-.43-4.11c-.65-2.97,1.02-5.1,3.54-3.41,1.23-2.77,4.85-2.69,4.79.58,3.5-1.55,4.77,2,2.48,4.15,2.85,1.69,1.68,5.1-1.84,4.65l-4.71.31c-19.87,27.93-42.32,46.94-67.13,57.74l-.02-.02Z"/>
  <path class="cls-2" d="M95.96,67.95l10.17-1.65c.06-10.72,2.83-21.26,8.64-31.61.9-1.59,2.09-3.06,3.44-4.3,4.85-4.4,7.71-8.37,6.9-11.53-2.01-3.41-5.1-4.88-9.29-4.28-1.12.17-2.13.89-2.78,1.82-10.95,15.74-17.11,32.78-17.05,51.52l-.02.02Z"/>
  <path class="cls-1" d="M446.2,49.17c2.13-28.76,17.95-40.72,36.27-45.94,8.02-2.29,16.51-2.97,24.7-1.3,8.19,1.67,15.68,5.27,22.08,12.15-13.9,5.89-12.05,21.67-26.11,34.75-18.71,13.28-38.05,17.13-52.8,7.04"/>
  <path class="cls-4" d="M446.2,49.17c2.13-28.76,17.95-40.72,36.27-45.94,8.02-2.29,16.51-2.97,24.7-1.3,8.19,1.67,15.68,5.27,22.08,12.15-13.9,5.89-12.05,21.67-26.11,34.75-18.71,13.28-38.05,17.13-52.8,7.04"/>
  <path class="cls-2" d="M451.65,62.11l-10.42-1.47c-.06-9.59-2.89-19.03-8.84-28.3-.92-1.43-2.13-2.75-3.52-3.84-4.97-3.95-7.9-7.5-7.06-10.33,2.07-3.06,5.22-4.38,9.52-3.84,1.17.14,2.19.78,2.86,1.63,11.2,14.09,17.52,29.36,17.46,46.15Z"/>
  <path class="cls-4" d="M522.03,14.2c-13.94.58-26.2,6.09-35.92,19.15-8.49,11.47-19.22,17.87-32.62,18.26"/>
  <path class="cls-4" d="M491.78,48.26c-5.47-5.41-9.97-7.11-13.49-5.12"/>
  <path class="cls-4" d="M486.54,12.36c4.48,2.5,7.45,6.28,5.4,14.32"/>
  <path class="cls-4" d="M509.75,30.37c-7.94-3.93-14.41.45-20.86-.48"/>
  <path class="cls-3" d="M450.32,60.39l-8.21-.52c-32.3-2.71-64.22-4.92-81.27,13.53-13.16,10.27-16,34.64-17.17,61.33,4.64,36.38,17.54,66.25,49.24,81.27,25.87,12.21,55.09,14.13,86.69,8.68,55.63-7.77,69.5-41.94,78.24-79.35,9.19-56.09-19.26-84.78-49.79-90.38-18.05-4.09-37.55-1.01-57.73,5.41v.02Z"/>
  <path class="cls-3" d="M109.43,58.41l-8.33-.54c-32.77-2.79-65.16-5.02-82.52,14.5C5.2,83.26,2.25,109,1,137.18c4.63,38.4,17.64,69.91,49.77,85.69,26.24,12.83,55.89,14.79,87.98,8.95,56.49-8.35,70.65-44.46,79.61-83.98,9.48-59.23-19.34-89.47-50.32-95.3-18.32-4.26-38.13-.97-58.61,5.87Z"/>
  <path class="cls-4" d="M474.16,22.65c-6.79,6.82-6.3,13.66,1.54,20.51"/>
  <path class="cls-6" d="M146.18,150.46c.21-3.41-1.64-4.07-2.74-.93l-.78,3.82c-.37,3.43.64,3.35,2.6.85,8.21,5.7,16.33,2.29,24.46-3.41,3.05.85,4.52.5,1.68-3.12l-1.47-1.69c-2.25-1.84-4.01-.93-2.54,2.33-6.77,5.27-13.75,7.42-21.22,2.13l.02.02Z"/>
  <path class="cls-6" d="M144.36,138.36c-2.03-2.15-5.09,1.45-.92,3.55,3.36.64,6.98,1.18,10.23-.29,4.28-1.53,1.68-6.18-.82-3.26-2.8.79-5.65.76-8.49,0Z"/>
  <path class="cls-6" d="M161.35,137.65c-1.88-1.94-3.89,1.94-.29,3.61,2.76.29,5.73.43,8.15-1.34,3.23-1.96.57-6.3-1.06-3.16-2.15,1.07-4.42,1.34-6.79.87v.02Z"/>
  <path class="cls-6" d="M140.8,219.52c-2.25,3.88-7.55.39-4.77-4.01,3.81-10.23,7.61-20.43,11.64-25.24,1.7-2.38,3.73-1.53,5.96,1.07,5.96,9.69,10.05,19.69,11.91,30.06,12.03.16,21.06,2.54,21.04,11.49-.74,2.87-2.03,5.39-3.97,7.48-.84.78-1.86.99-3.17,0l-14.82-6.28c-1.27,0-2.39-1.59-3.32-5.21-3.17-11.03-6.45-21.34-10.19-28.45-.12-8.93-5.49,6.36-10.31,19.11v-.02Z"/>
  <path class="cls-5" d="M166.89,225.78l1.35,5.93,10.72,4.21c4.58-5.43,1.99-10.85-12.07-10.14Z"/>
  <path class="cls-6" d="M185.21,214.94l12.87,1.4c3.46.37,6.86,1.24,10.07,2.58l40.4,16.71c1.45.6,3.13.23,4.22-.93l13.43-14.44c-1.82-3.53-3.89-6.84-8.39-7.58-8.39-1.34-13.1,5.43-14.63,14.13l-30.64-13.86c-2.33-1.05-4.81-1.74-7.35-2.04l-13.38-1.55-6.61,5.6.02-.02Z"/>
  <path class="cls-5" d="M246.12,227.17l5.83,1.51,8.66-7.66c-2.66-6.61-8.62-6.78-14.49,6.16Z"/>
  <path class="cls-6" d="M407.75,220.74l-11.52,5.99c-3.09,1.61-5.93,3.66-8.47,6.05l-31.72,30.26c-1.15,1.1-2.85,1.36-4.26.66l-17.68-8.59c.45-3.97,1.19-7.79,5.12-10.12,7.35-4.3,14.16.31,18.68,7.85l23.62-24.07c1.8-1.84,3.87-3.37,6.12-4.57l11.93-6.32,8.17,2.81.02.04Z"/>
  <path class="cls-5" d="M355.3,254.29l-4.91,3.53-10.81-4.01c.12-7.13,5.63-9.46,15.72.48Z"/>
  <path class="cls-6" d="M378.77,207.97l-12.36,3.94c-3.32,1.05-6.47,2.58-9.37,4.53l-36.35,24.4c-1.31.89-3.03.85-4.32-.06l-15.98-11.51c1.1-3.82,2.48-7.48,6.75-9.09,7.96-2.98,13.9,2.75,17.09,10.95l27.34-19.67c2.09-1.49,4.38-2.67,6.79-3.45l12.83-4.19,7.57,4.17v-.02Z"/>
  <path class="cls-5" d="M321.41,232.04l-5.42,2.64-9.97-5.81c1.31-7,7.12-8.35,15.41,3.16h-.02Z"/>
  <path class="cls-6" d="M395,155.15c.2-3.41-1.64-4.07-2.74-.93l-.78,3.82c-.37,3.43.63,3.35,2.6.85,8.21,5.7,16.33,2.29,24.46-3.41,3.05.85,4.52.5,1.68-3.12l-1.47-1.69c-2.25-1.84-4.01-.93-2.54,2.34-6.77,5.27-13.75,7.42-21.22,2.13l.02.02Z"/>
  <path class="cls-6" d="M393.16,143.04c-2.03-2.15-5.1,1.45-.92,3.55,3.36.64,6.98,1.18,10.23-.29,4.28-1.53,1.68-6.18-.82-3.26-2.8.79-5.65.76-8.49,0Z"/>
  <path class="cls-6" d="M410.15,142.34c-1.88-1.94-3.89,1.94-.29,3.62,2.76.29,5.73.43,8.14-1.34,3.23-1.96.57-6.3-1.06-3.16-2.15,1.07-4.42,1.34-6.79.87v.02Z"/>
</svg>