<svg width="160" height="160" viewBox="0 0 160 160" fill="none" xmlns="http://www.w3.org/2000/svg">
<path d="M136.992 115.004C136.343 114.157 135.423 115.064 136.088 115.9C140.873 120.675 144.218 127.477 146.161 136.235L145.63 137.185C145.165 137.835 145.354 138.529 146.134 138.387C146.145 139.19 147.032 139.551 147.357 138.753C148.044 139.502 148.726 138.77 148.391 138.005C149.257 137.895 149.327 136.939 148.423 136.683L147.308 136.109C145.376 127.226 141.896 120.238 136.992 114.993V115.004Z" fill="#36463B"/>
<path d="M22.5921 115.233C23.2632 114.403 24.1617 115.332 23.4743 116.157C18.5653 120.806 15.0527 127.521 12.8823 136.218L13.3911 137.185C13.8403 137.846 13.6346 138.54 12.8553 138.376C12.8228 139.179 11.9243 139.518 11.6212 138.709C10.9176 139.436 10.2519 138.688 10.6091 137.939C9.74856 137.808 9.69985 136.852 10.6091 136.617L11.7349 136.076C13.8944 127.247 17.5532 120.353 22.5921 115.239V115.233Z" fill="#36463B"/>
<path d="M105.66 119.992C106.586 120.511 107.078 119.309 106.136 118.806C99.8689 116.331 94.1318 111.42 88.9143 104.153L89.028 103.066C89.2012 102.279 88.7574 101.717 88.0917 102.165C87.7669 101.433 86.8089 101.454 86.8252 102.318C85.8996 101.908 85.5641 102.848 86.1703 103.416C85.418 103.864 85.7265 104.765 86.6574 104.645L87.9022 104.727C93.1576 112.113 99.095 117.14 105.655 119.997L105.66 119.992Z" fill="#36463B"/>
<path d="M60.0616 119.686C59.1361 120.205 58.6436 119.003 59.5853 118.5C65.8528 116.025 71.5899 111.114 76.8075 103.848L76.6938 102.76C76.5206 101.974 76.9644 101.411 77.6301 101.859C77.9549 101.127 78.9129 101.149 78.8966 102.012C79.8221 101.602 80.1577 102.542 79.5515 103.11C80.3038 103.558 79.9953 104.46 79.0644 104.339L77.8196 104.421C72.5642 111.808 66.6268 116.834 60.067 119.691L60.0616 119.686Z" fill="#36463B"/>
<path d="M33.9238 92.205L36.6138 91.7679C36.63 88.9325 37.3607 86.1461 38.8978 83.409C39.1359 82.9883 39.4498 82.6004 39.8071 82.2726C41.0898 81.1089 41.8475 80.06 41.631 79.2241C41.1006 78.3226 40.2833 77.9347 39.1738 78.0932C38.8761 78.1369 38.6109 78.3281 38.4377 78.5739C35.5421 82.737 33.913 87.2443 33.9292 92.1995L33.9238 92.205Z" fill="#FFCDD8" stroke="#36463B" stroke-width="0.5" stroke-miterlimit="10"/>
<path d="M126.551 87.2387C127.114 79.6337 131.297 76.4704 136.141 75.0882C138.263 74.4818 140.509 74.3015 142.674 74.744C144.839 75.1865 146.82 76.1372 148.514 77.9565C144.839 79.5135 145.326 83.6875 141.608 87.1458C136.661 90.6588 131.546 91.675 127.644 89.0089" fill="#FFCDD8"/>
<path d="M126.551 87.2387C127.114 79.6337 131.297 76.4704 136.141 75.0882C138.263 74.4818 140.509 74.3015 142.674 74.744C144.839 75.1865 146.82 76.1372 148.514 77.9565C144.839 79.5135 145.326 83.6875 141.608 87.1458C136.661 90.6588 131.546 91.675 127.644 89.0089" stroke="#36463B" stroke-width="0.5" stroke-miterlimit="10"/>
<path d="M127.991 90.6588L125.237 90.2709C125.22 87.7359 124.473 85.2392 122.898 82.7861C122.655 82.4092 122.336 82.0595 121.968 81.77C120.652 80.7265 119.878 79.7868 120.1 79.0383C120.647 78.2297 121.48 77.88 122.617 78.0221C122.925 78.0603 123.196 78.2297 123.375 78.4537C126.335 82.1797 128.008 86.2171 127.991 90.6588Z" fill="#FFCDD8" stroke="#36463B" stroke-width="0.5" stroke-miterlimit="10"/>
<path d="M146.604 77.9893C142.919 78.1422 139.677 79.601 137.106 83.0538C134.86 86.086 132.024 87.7796 128.479 87.8834" stroke="#36463B" stroke-width="0.5" stroke-miterlimit="10"/>
<path d="M138.606 86.9985C137.161 85.5671 135.97 85.1191 135.039 85.6436" stroke="#36463B" stroke-width="0.5" stroke-miterlimit="10"/>
<path d="M137.219 77.5034C138.404 78.1645 139.189 79.1643 138.648 81.2895" stroke="#36463B" stroke-width="0.5" stroke-miterlimit="10"/>
<path d="M143.357 82.2674C141.257 81.2294 139.547 82.3876 137.842 82.1418" stroke="#36463B" stroke-width="0.5" stroke-miterlimit="10"/>
<path d="M127.639 90.2057L125.469 90.0692C116.928 89.3535 108.485 88.7689 103.977 93.6477C100.496 96.363 99.7441 102.81 99.4355 109.868C100.664 119.489 104.074 127.389 112.458 131.361C119.299 134.59 127.028 135.098 135.384 133.656C150.095 131.602 153.765 122.565 156.076 112.671C158.506 97.8381 150.983 90.2495 142.908 88.7689C138.134 87.6871 132.976 88.5012 127.639 90.2003V90.2057Z" fill="#FFCDD8" stroke="#36463B" stroke-width="0.75" stroke-miterlimit="10"/>
<path d="M37.4852 89.6813L35.2824 89.5392C26.6172 88.8017 18.0494 88.2116 13.4598 93.3745C9.92008 96.2537 9.1407 103.061 8.81055 110.513C10.0337 120.669 13.476 129.001 21.9734 133.175C28.912 136.568 36.7545 137.087 45.2411 135.541C60.1792 133.334 63.9245 123.784 66.2952 113.332C68.8011 97.6687 61.1805 89.6704 52.9862 88.1297C48.1421 87.0042 42.903 87.8729 37.4852 89.6813Z" fill="#FFCDD8" stroke="#36463B" stroke-width="0.75" stroke-miterlimit="10"/>
<path d="M133.945 80.2241C132.148 82.027 132.278 83.8354 134.351 85.6492" stroke="#36463B" stroke-width="0.5" stroke-miterlimit="10"/>
<path d="M47.2067 114.026C47.2608 113.124 46.7737 112.95 46.4814 113.78L46.2758 114.791C46.1783 115.698 46.4435 115.676 46.9631 115.015C49.1335 116.523 51.2822 115.621 53.4309 114.113C54.2373 114.337 54.627 114.244 53.8747 113.288L53.485 112.84C52.8897 112.354 52.4242 112.595 52.8139 113.458C51.0224 114.851 49.1768 115.419 47.2013 114.02L47.2067 114.026Z" fill="#36463B"/>
<path d="M46.725 110.824C46.1892 110.256 45.3774 111.207 46.4815 111.764C47.3691 111.933 48.3271 112.075 49.1877 111.687C50.3188 111.283 49.6315 110.054 48.9712 110.824C48.2297 111.032 47.4774 111.026 46.725 110.824Z" fill="#36463B"/>
<path d="M51.2174 110.638C50.7194 110.125 50.189 111.152 51.1416 111.595C51.8723 111.671 52.6571 111.709 53.2957 111.239C54.1509 110.72 53.4473 109.573 53.0143 110.404C52.446 110.688 51.8452 110.759 51.2174 110.633V110.638Z" fill="#36463B"/>
<path d="M45.7822 132.29C45.1869 133.317 43.7851 132.394 44.5212 131.23C45.5279 128.526 46.5346 125.827 47.6008 124.554C48.05 123.926 48.5858 124.15 49.1758 124.838C50.7508 127.4 51.8332 130.045 52.3258 132.787C55.5082 132.831 57.8951 133.459 57.8897 135.825C57.6948 136.584 57.3538 137.251 56.8397 137.802C56.6178 138.01 56.3472 138.065 56.0008 137.802L52.0822 136.142C51.7467 136.142 51.449 135.721 51.2054 134.765C50.3665 131.847 49.5005 129.121 48.5101 127.242C48.4776 124.882 47.0595 128.925 45.7822 132.295V132.29Z" fill="#36463B"/>
<path d="M52.6836 133.945L53.0408 135.513L55.8769 136.628C57.0893 135.191 56.4019 133.759 52.6836 133.945Z" fill="white" stroke="#36463B" stroke-width="0.25" stroke-miterlimit="10"/>
<path d="M57.5289 131.077L60.9332 131.449C61.8479 131.547 62.7464 131.776 63.5961 132.132L74.2801 136.551C74.6644 136.71 75.1082 136.612 75.395 136.306L78.9455 132.487C78.4638 131.552 77.9172 130.678 76.7265 130.482C74.5074 130.127 73.2626 131.919 72.8566 134.219L64.7543 130.553C64.1373 130.274 63.4824 130.094 62.8113 130.012L59.2716 129.602L57.5234 131.083L57.5289 131.077Z" fill="#36463B"/>
<path d="M73.6348 134.311L75.1773 134.71L77.4667 132.683C76.7631 130.935 75.1881 130.891 73.6348 134.311Z" fill="white" stroke="#36463B" stroke-width="0.25" stroke-miterlimit="10"/>
<path d="M116.381 132.612L113.334 134.197C112.517 134.623 111.765 135.164 111.094 135.797L102.704 143.801C102.401 144.091 101.952 144.162 101.579 143.976L96.9023 141.703C97.0214 140.654 97.2163 139.644 98.2554 139.026C100.198 137.89 102.001 139.108 103.197 141.102L109.443 134.738C109.919 134.251 110.466 133.847 111.061 133.53L114.216 131.858L116.376 132.601L116.381 132.612Z" fill="#36463B"/>
<path d="M102.51 141.485L101.211 142.419L98.3535 141.359C98.386 139.474 99.8419 138.857 102.51 141.485Z" fill="white" stroke="#36463B" stroke-width="0.25" stroke-miterlimit="10"/>
<path d="M108.718 129.236L105.449 130.279C104.572 130.558 103.738 130.962 102.97 131.476L93.3573 137.928C93.0109 138.163 92.5563 138.152 92.2153 137.912L87.9883 134.869C88.2805 133.858 88.6432 132.891 89.7744 132.465C91.8798 131.678 93.4493 133.191 94.2937 135.36L101.525 130.159C102.077 129.766 102.683 129.454 103.321 129.247L106.715 128.138L108.718 129.241V129.236Z" fill="#36463B"/>
<path d="M93.5466 135.601L92.1124 136.3L89.4766 134.765C89.823 132.913 91.3601 132.558 93.5521 135.601H93.5466Z" fill="white" stroke="#36463B" stroke-width="0.25" stroke-miterlimit="10"/>
<path d="M113.009 115.266C113.064 114.365 112.576 114.19 112.284 115.02L112.078 116.031C111.981 116.938 112.246 116.916 112.766 116.255C114.936 117.763 117.085 116.861 119.234 115.354C120.04 115.578 120.43 115.485 119.677 114.529L119.288 114.081C118.692 113.594 118.227 113.835 118.617 114.698C116.825 116.091 114.98 116.659 113.004 115.261L113.009 115.266Z" fill="#36463B"/>
<path d="M112.522 112.064C111.986 111.496 111.174 112.447 112.278 113.004C113.166 113.174 114.124 113.316 114.985 112.928C116.116 112.523 115.428 111.294 114.768 112.064C114.027 112.272 113.274 112.267 112.522 112.064Z" fill="#36463B"/>
<path d="M117.014 111.879C116.516 111.365 115.986 112.392 116.938 112.835C117.669 112.911 118.454 112.95 119.093 112.48C119.948 111.961 119.244 110.813 118.811 111.644C118.243 111.928 117.642 111.999 117.014 111.873V111.879Z" fill="#36463B"/>
</svg>
