<svg width="90" height="90" viewBox="0 0 90 90" fill="none" xmlns="http://www.w3.org/2000/svg">
<g clip-path="url(#clip0_754_1799)">
<path d="M2.60938 74.1427L3.38571 74.1304" stroke="#32473A" stroke-width="0.5" stroke-miterlimit="10"/>
<path d="M27.2361 35.4209C10.3425 39.6157 -3.5676 44.9999 0.819452 57.6766C6.0285 68.5002 26.2284 71.7362 52.6603 71.813C71.8099 70.0214 87.9485 66.1339 90.0005 52.4645C88.594 44.5451 79.4332 38.9304 63.185 35.4209" fill="#FFCDD8"/>
<path d="M27.2361 35.4209C10.3425 39.6157 -3.5676 44.9999 0.819452 57.6766C6.0285 68.5002 26.2284 71.7362 52.6603 71.813C71.8099 70.0214 87.9485 66.1339 90.0005 52.4645C88.594 44.5451 79.4332 38.9304 63.185 35.4209" stroke="#32473A" stroke-width="2" stroke-miterlimit="10"/>
<path d="M66.8128 49.3794C59.9689 54.1274 33.6496 55.7346 25.043 49.3794" stroke="#32473A" stroke-width="0.25" stroke-miterlimit="10"/>
<path d="M65.6381 51.257C65.2271 39.536 63.2969 28.7493 52.1725 23.6079C47.2313 21.3922 42.1258 21.5212 36.8802 23.6079C28.919 27.1236 25.2108 37.1912 24.0996 51.257C38.4755 57.7474 52.3643 58.2852 65.6411 51.257H65.6381Z" fill="#FFCDD8" stroke="#32473A" stroke-width="2" stroke-miterlimit="10"/>
<path d="M21.2773 36.841C23.5394 36.3677 25.2717 36.841 26.4742 38.2639" stroke="#32473A" stroke-miterlimit="10"/>
<path d="M5.5957 63.6111C8.60971 54.1059 15.134 50.873 23.8776 51.6044C20.8667 43.0764 13.4778 43.0825 5.5957 44.0444" stroke="#32473A" stroke-miterlimit="10"/>
<path d="M26.6903 69.659C24.7571 59.994 28.6662 57.3665 35.2848 55.6978" stroke="#32473A" stroke-miterlimit="10"/>
<path d="M69.0292 69.6591C72.7982 59.3149 65.7107 56.5091 56.5195 55.1631" stroke="#32473A" stroke-miterlimit="10"/>
<path d="M84.9766 62.4095C84.867 52.5754 76.2299 51.1864 65.8574 51.5152" stroke="#32473A" stroke-miterlimit="10"/>
<path d="M64.8887 42.0004C68.2467 39.84 71.556 38.5892 74.7557 39.422" stroke="#32473A" stroke-width="0.75" stroke-miterlimit="10"/>
<path d="M62.9473 36.254L63.3796 36.002" stroke="#32473A" stroke-miterlimit="10"/>
<path d="M45.3005 42.4985C44.4176 42.1297 43.897 43.0916 44.7678 43.9337C45.7846 44.6897 46.9506 44.8618 48.3541 44.0904C49.4379 43.5465 48.7925 42.2711 47.9096 42.7013C47.112 43.2453 46.2382 43.1439 45.3005 42.4954V42.4985Z" fill="#36463B"/>
<path d="M39.6329 41.9177C38.7317 41.5397 38.1929 42.2434 38.7287 43.0271C40.0895 44.0689 41.3073 44.2563 42.4368 43.8968C43.9377 43.3283 43.1979 41.89 42.1415 42.3971C41.3652 42.8243 40.6284 42.7106 39.6329 41.9208V41.9177Z" fill="#36463B"/>
<path d="M40.7071 46.1493C41.3951 44.7603 39.9033 44.5144 39.6659 45.8297L39.4162 46.5703C38.4724 47.5691 39.8242 48.5156 40.2139 47.3509C42.1684 49.2409 44.8932 49.7633 48.924 47.9871C49.813 49.1426 50.3336 47.3878 49.8861 47.3386L49.4903 46.4351C48.8753 45.0922 47.7641 45.756 48.3578 46.9145C45.5751 48.448 43.0269 48.1684 40.704 46.1493H40.7071Z" fill="#36463B"/>
<path d="M44.7049 24.106C43.3106 24.3733 43.4719 25.369 44.7049 25.9806C46.8817 26.8472 47.5637 26.7243 47.8468 26.3309C48.885 25.6948 47.0309 24.106 44.7049 24.106Z" fill="#36463B"/>
</g>
<defs>
<clipPath id="clip0_754_1799">
<rect width="90" height="90" fill="white"/>
</clipPath>
</defs>
</svg>
