<svg width="148" height="117" viewBox="0 0 148 117" fill="none" xmlns="http://www.w3.org/2000/svg">
<g clip-path="url(#clip0_777_501)">
<path d="M66.8608 4.75006C72.5859 -1.01611 78.088 -0.0963534 83.5369 2.51131C77.7746 5.96798 76.3088 12.5427 77.4453 21.0025L73.6375 23.691L70.504 21.5634C71.7149 15.115 70.7483 9.42465 66.8555 4.75511L66.8608 4.75006Z" fill="#FFCDD8" stroke="#32473A" stroke-miterlimit="10"/>
<path d="M96.2713 25.3685C94.8108 17.5657 97.3122 11.2638 103.096 6.20516C94.5081 -2.87112 75.7979 1.29811 79.4464 20.3249C86.9507 19.7488 92.2191 21.8865 95.0923 26.9351L96.2713 25.3685Z" fill="#FFCDD8" stroke="#32473A" stroke-miterlimit="10"/>
<path d="M97.9241 22.5689C96.3149 13.25 103.511 7.17052 111.807 6.0941C116.326 6.02841 120.187 8.3935 123.337 13.3764C119.773 13.7604 116.417 15.5191 113.336 19.092C108.471 16.8128 103.288 18.5411 97.9241 22.5638V22.5689Z" fill="#FFCDD8" stroke="#32473A" stroke-miterlimit="10"/>
<path d="M115.428 19.8455C124.371 10.6479 135.673 16.7779 134.818 30.4075C133.793 39.0037 129.618 43.3296 122.369 43.4913C127.228 33.7732 124.669 25.9553 115.428 19.8455Z" fill="#FFCDD8" stroke="#32473A" stroke-miterlimit="10"/>
<path d="M52.0947 2.80469C55.275 2.06176 58.6827 2.93254 62.2627 4.5459C65.2694 6.60758 66.9157 9.01463 67.7412 11.6338C68.4997 14.0406 68.5727 16.6544 68.332 19.3926C65.8413 17.8575 63.0676 17.0833 60.0596 16.9648C57.8364 13.9564 55.1911 12.1194 52.2461 11.126C49.5279 10.2091 46.579 10.0175 43.5117 10.252C46.1978 5.66319 49.0993 3.50459 52.0947 2.80469Z" fill="#FFCDD8" stroke="#32473A"/>
<path d="M42.8933 10.9962C44.3432 8.36828 46.1542 5.73535 48.7777 4.03734C50.6843 2.7992 52.9096 2.23825 55.2145 2.36965C57.5194 2.50104 59.904 3.29951 62.0549 4.24959C62.7666 4.56291 63.3826 5.11881 63.9562 5.62417C64.6147 6.20028 65.2255 6.82693 65.7566 7.50411C66.6116 8.59064 67.2808 9.79845 67.7375 11.0821C68.7891 14.0283 68.7466 17.1969 68.4226 20.2594L68.9219 19.9865C66.2293 18.1622 63.0958 17.2475 59.8031 17.1413L60.0899 17.298C58.1461 14.6297 55.5703 12.4819 52.3413 11.355C49.1123 10.228 45.8621 10.1926 42.6065 10.5211C42.1869 10.5615 42.1816 11.1983 42.6065 11.1528C46.0957 10.7991 49.7284 10.9102 52.9839 12.2747C54.6516 12.9772 56.1652 13.9879 57.4451 15.221C58.162 15.9083 58.794 16.6562 59.3889 17.4395C59.6544 17.7933 59.7925 17.7629 60.2492 17.7832C60.844 17.8135 61.4388 17.8691 62.023 17.96C64.4023 18.3188 66.6223 19.2032 68.582 20.5323C68.805 20.6839 69.06 20.4717 69.0812 20.2594C69.3892 17.3637 69.437 14.3821 68.5873 11.5571C67.7375 8.73214 65.8097 6.12953 63.2817 4.2597C62.2514 3.4966 60.9237 3.05694 59.6969 2.65265C58.5338 2.26857 57.3442 1.97041 56.1227 1.82386C53.7593 1.5358 51.3801 1.8845 49.2876 2.99629C46.1223 4.67915 43.9661 7.6911 42.3197 10.6778C42.1232 11.0366 42.6968 11.355 42.8933 10.9962Z" fill="#32473A"/>
<path d="M57.3265 17.5709C51.7926 10.6172 35.1855 9.15666 30.2411 25.874C29.2373 39.6653 34.9784 44.3096 42.6048 46.4018L44.7238 44.158C40.0025 30.1948 45.0159 21.7957 57.3265 17.5709Z" fill="#FFCDD8" stroke="#32473A" stroke-miterlimit="10"/>
<path d="M71.1463 25.3638C62.7445 14.2711 46.2011 21.331 44.6875 34.9303C44.6875 50.3842 59.9403 56.0493 69.4096 49.0046C64.5767 41.1108 65.6123 33.2323 71.1463 25.3638Z" fill="#FFCDD8" stroke="#32473A" stroke-miterlimit="10"/>
<path d="M94.1375 28.7549C85.5711 15.9642 68.9534 23.6861 68.502 38.9885C69.8615 57.9648 91.0094 59.587 96.0441 44.6889C92.8576 40.2216 93.0329 34.6424 94.1375 28.7549Z" fill="#FFCDD8" stroke="#32473A" stroke-miterlimit="10"/>
<path d="M108.758 20.2598C99.0711 21.695 94.5409 27.7846 96.0386 39.322C99.0711 51.3193 112.741 52.4007 119.327 44.6283C126.73 32.9342 119.991 20.9572 108.758 20.2598Z" fill="#FFCDD8" stroke="#32473A" stroke-miterlimit="10"/>
<path d="M31.252 41.1211C25.4101 52.0015 32.9993 65.2218 42.2137 66.7682C39.0803 60.5724 38.8466 52.896 41.8525 48.0648C37.6941 47.4179 34.2633 44.8203 31.252 41.1211Z" fill="#FFCDD8" stroke="#32473A" stroke-miterlimit="10"/>
<path d="M131.573 42.1416C139.895 55.094 129.406 70.1942 117.388 63.1545C118.96 58.773 118.322 54.2197 116.602 49.5856C118.694 48.7315 120.314 47.3013 121.328 45.1434C125.492 45.8004 128.599 44.1226 131.573 42.1416Z" fill="#FFCDD8" stroke="#32473A" stroke-miterlimit="10"/>
<path d="M97.6953 47.2859C101.498 50.1311 104.1 53.9213 115.428 50.879C120.118 65.9641 105.545 79.4016 93.5688 69.2691C87.6843 78.6082 74.5612 80.0434 68.5068 68.405C52.9194 84.8696 33.232 64.3823 45.601 46.3965C51.8731 54.9421 60.1315 56.4481 70.339 51.0205C79.8402 61.5523 91.3701 57.9945 97.7006 47.2859H97.6953Z" fill="#FFCDD8" stroke="#32473A" stroke-miterlimit="10"/>
<path d="M126.92 66.232C123.627 67.455 120.106 67.0203 116.325 64.7715C114.307 69.7847 111.004 73.6102 105.156 75.096V80.7712C111.572 86.881 117.451 85.7591 123.038 80.7712C126.931 76.511 127.759 71.5635 126.92 66.232Z" fill="#FFCDD8" stroke="#32473A" stroke-miterlimit="10"/>
<path d="M43.297 68.8193C40.5619 68.7385 37.9914 68.0613 35.7077 66.3633C32.7974 76.9961 43.0102 85.2688 52.6494 82.7269C51.2261 80.4224 50.5835 78.022 51.4067 75.4547C48.2095 74.1206 45.5116 71.897 43.297 68.8193Z" fill="#FFCDD8" stroke="#32473A" stroke-miterlimit="10"/>
<path d="M67.6672 71.3721C61.6924 77.0675 57.5447 76.2892 53.2694 75.9557C51.5487 86.8816 69.2392 93.5271 77.3436 83.1874L76.4567 77.8761C72.9993 76.4661 70.004 74.3891 67.6619 71.3721H67.6672Z" fill="#FFCDD8" stroke="#32473A" stroke-miterlimit="10"/>
<path d="M93.7645 71.8418C96.6005 74.9296 99.718 75.7887 103.011 75.2479C103.775 80.4734 103.26 88.3469 91.1515 89.7013C83.4879 88.8977 78.8409 85.3602 78.2461 78.1538C84.9856 79.0786 89.9991 76.668 93.7698 71.8418H93.7645Z" fill="#FFCDD8" stroke="#32473A" stroke-miterlimit="10"/>
<path d="M53.8814 84.6071C50.3975 85.0872 47.0888 85.2995 44.6564 84.1826C42.7126 89.5748 52.2881 98.55 63.7331 91.8742L63.3772 89.8477C59.888 89.686 56.6909 88.1042 53.8867 84.6071H53.8814Z" fill="#FFCDD8" stroke="#32473A" stroke-miterlimit="10"/>
<path d="M78.2423 85.1172C75.4223 88.306 71.4444 90.3881 65.252 90.3578C69.8512 99.0601 87.239 97.9635 90.7441 91.5403C83.5904 90.6307 80.3667 88.0988 78.2423 85.1172Z" fill="#FFCDD8" stroke="#32473A" stroke-miterlimit="10"/>
<path d="M104.493 82.667C102.55 87.9935 98.524 90.4849 93.1547 91.1469L91.5508 93.8051C101.88 98.7829 111.907 94.735 114.053 86.907C110.314 87.0283 107.197 85.4313 104.493 82.667Z" fill="#FFCDD8" stroke="#32473A" stroke-miterlimit="10"/>
<path d="M136.278 60.83C135.609 59.5767 134.106 60.5217 134.807 61.7699C140.155 69.128 143.002 78.7501 143.432 90.5604L142.46 91.662C141.653 92.3898 141.732 93.3348 142.842 93.3449C142.651 94.3859 143.777 95.0732 144.425 94.1232C145.174 95.2602 146.3 94.482 146.034 93.4106C147.25 93.4813 147.596 92.2685 146.417 91.7075L145.036 90.6917C144.659 78.7248 141.669 68.8248 136.278 60.835V60.83Z" fill="#36463B"/>
<path d="M29.6158 57.692C30.9488 58.3035 31.5436 56.6863 30.1894 56.095C21.2512 53.3206 12.8653 47.3017 5.00522 38.1497L5.07957 36.7144C5.26014 35.6683 4.59628 34.9659 3.70405 35.5976C3.19421 34.6627 1.86118 34.7637 1.95146 35.8907C0.629057 35.4207 0.230741 36.6892 1.12297 37.3815C0.108591 38.0284 0.607813 39.1907 1.89836 38.9582L3.64032 38.9683C11.5588 48.2771 20.2368 54.4324 29.6105 57.6869L29.6158 57.692Z" fill="#36463B"/>
<path d="M80.944 58.4495C80.0093 57.4742 78.7294 58.8538 80.0518 59.91C82.3673 62.1538 84.9962 62.3964 87.9331 60.6428C89.5954 59.7887 88.4324 58.4899 87.2958 58.9801C85.2777 60.5872 83.1746 60.6579 80.9493 58.4546L80.944 58.4495Z" fill="#36463B"/>
<path d="M70.4245 57.8939C69.4898 56.9185 68.2099 58.2981 69.5323 59.3544C71.8478 61.5982 74.4767 61.8407 77.4136 60.0871C79.0759 59.2331 77.9128 57.9343 76.7763 58.4245C74.7582 60.0315 72.6551 60.1023 70.4298 57.8989L70.4245 57.8939Z" fill="#36463B"/>
<path d="M69.5948 65.0552C70.1047 63.1803 68.522 63.0641 67.8582 64.7267C67.736 65.0451 67.5555 65.3432 67.3005 65.6313C65.7976 66.7532 67.9697 68.3855 68.7557 66.733C75.9413 71.0336 83.0951 71.3772 90.2223 66.8442C91.9961 68.5624 93.1061 67.1979 91.9589 65.7374C91.858 65.606 91.7571 65.4746 91.6774 65.3281L91.5234 65.0501C91.4597 64.9389 91.4172 64.8177 91.38 64.7014C90.7321 62.5739 88.4219 63.4987 89.5584 65.414C82.6596 69.2092 76.0263 68.7595 69.5948 65.0602V65.0552Z" fill="#36463B"/>
<path d="M85.1399 95.791C85.2142 96.3974 85.2089 99.7935 85.3417 100.324C85.6072 101.37 86.765 101.744 87.8537 102.022C90.5676 102.714 93.7541 101.946 97.6098 101.385L97.2752 111.518C97.2646 111.892 97.0362 112.235 96.6804 112.397C94.657 113.332 92.7238 113.575 91.0881 111.472C90.7747 111.068 90.5995 110.573 90.626 110.073C90.711 108.561 90.9712 107.03 91.428 105.484C91.5023 105.236 91.2899 104.999 91.019 105.024C89.293 105.191 87.6944 104.963 85.8622 104.574C84.5451 104.291 83.4032 103.467 82.835 102.3C82.2083 101.016 81.4329 97.8883 81.1992 96.4581L85.1399 95.7961V95.791Z" fill="#333333" stroke="#333333" stroke-width="0.75" stroke-miterlimit="10"/>
<path d="M93.6799 105.408C93.2231 107.283 92.6761 109.299 92.8673 110.133C93.2284 110.982 93.9932 111.002 94.9226 110.674C94.912 108.728 94.9757 106.874 95.2041 105.241C94.7686 105.357 94.2694 105.418 93.6799 105.408Z" fill="white" stroke="#32473A" stroke-width="0.75" stroke-miterlimit="10"/>
<path d="M75.1558 96.6198C73.9503 101.941 72.8403 109.658 72.6066 116.309C72.596 116.657 72.2986 116.935 71.9321 116.935H60.3863C59.9242 116.935 59.5047 116.652 59.356 116.233C58.793 114.661 58.655 113.175 59.2232 111.841C59.441 111.321 59.8233 110.866 60.3438 110.613C62.4204 109.592 65.3891 110.82 68.7297 111.018C69.1386 111.043 69.4891 110.75 69.5157 110.361C69.8131 105.539 70.376 99.6924 71.1567 95.791L75.1558 96.6198Z" fill="#36463B"/>
<path d="M69.134 113.201C66.1068 113.565 62.4795 112.276 61.6351 112.716C60.8544 113.186 60.7906 113.848 60.9978 114.58H69.3518L69.1393 113.201H69.134Z" fill="white" stroke="#32473A" stroke-width="0.75" stroke-miterlimit="10"/>
</g>
<defs>
<clipPath id="clip0_777_501">
<rect width="148" height="117" fill="white"/>
</clipPath>
</defs>
</svg>
