<svg width="89" height="84" viewBox="0 0 89 84" fill="none" xmlns="http://www.w3.org/2000/svg">
<path d="M43.003 11.777C46.2485 8.50428 49.3675 9.0263 52.4564 10.5063C49.1898 12.4682 48.3589 16.1998 49.0032 21.0013L46.8446 22.5272L45.0683 21.3197C45.7547 17.6598 45.2068 14.4301 43 11.7798L43.003 11.777Z" fill="#FFCDD8" stroke="#32473A" stroke-miterlimit="10"/>
<path d="M59.6768 23.4794C58.8489 19.0508 60.2669 15.4741 63.5455 12.603C58.6773 7.45155 48.0708 9.81787 50.1391 20.6169C54.3932 20.2899 57.3797 21.5032 59.0084 24.3686L59.6768 23.4794Z" fill="#FFCDD8" stroke="#32473A" stroke-miterlimit="10"/>
<path d="M60.613 21.8904C59.7007 16.6013 63.7801 13.1508 68.4827 12.5398C71.0448 12.5025 73.2335 13.8449 75.0188 16.673C72.9987 16.891 71.0959 17.8891 69.3498 19.917C66.5921 18.6234 63.6537 19.6044 60.613 21.8875V21.8904Z" fill="#FFCDD8" stroke="#32473A" stroke-miterlimit="10"/>
<path d="M70.5352 20.3446C75.605 15.1244 82.0116 18.6036 81.5269 26.3393C80.9459 31.2182 78.5795 33.6735 74.47 33.7652C77.2248 28.2496 75.7736 23.8124 70.5352 20.3446Z" fill="#FFCDD8" stroke="#32473A" stroke-miterlimit="10"/>
<path d="M34.6826 10.8828C36.4104 10.4788 38.282 10.9462 40.291 11.8506C41.9464 12.9917 42.8445 14.3142 43.2959 15.748C43.6828 16.977 43.7467 18.3115 43.6475 19.7236C42.3097 18.9668 40.8391 18.5743 39.2607 18.498C37.9875 16.8048 36.4733 15.7596 34.7881 15.1904C33.336 14.7001 31.7771 14.5718 30.167 14.6592C31.6088 12.3304 33.136 11.2446 34.6826 10.8828Z" fill="#FFCDD8" stroke="#32473A"/>
<path d="M29.4164 15.3221C30.2383 13.8306 31.2649 12.3362 32.7522 11.3725C33.833 10.6698 35.0944 10.3514 36.4011 10.426C37.7077 10.5005 39.0594 10.9537 40.2787 11.493C40.6822 11.6708 41.0314 11.9863 41.3565 12.2731C41.7299 12.6001 42.0761 12.9558 42.3771 13.3401C42.8618 13.9568 43.2412 14.6423 43.5001 15.3709C44.0962 17.0431 44.0721 18.8415 43.8885 20.5796L44.1715 20.4247C42.6451 19.3893 40.8688 18.8701 39.0022 18.8099L39.1648 18.8988C38.0629 17.3844 36.6028 16.1654 34.7723 15.5257C32.9419 14.8861 31.0994 14.866 29.2538 15.0525C29.016 15.0754 29.013 15.4368 29.2538 15.411C31.2318 15.2102 33.2911 15.2733 35.1366 16.0478C36.0819 16.4465 36.94 17.0201 37.6655 17.72C38.072 18.11 38.4302 18.5345 38.7674 18.9791C38.9179 19.1799 38.9962 19.1627 39.2551 19.1742C39.5923 19.1914 39.9295 19.2229 40.2607 19.2746C41.6094 19.4782 42.8679 19.9802 43.9788 20.7345C44.1052 20.8206 44.2498 20.7001 44.2618 20.5796C44.4364 18.9361 44.4635 17.2438 43.9818 15.6405C43.5001 14.0371 42.4073 12.56 40.9742 11.4987C40.3901 11.0656 39.6375 10.816 38.942 10.5866C38.2827 10.3686 37.6083 10.1994 36.9159 10.1162C35.5761 9.9527 34.2274 10.1506 33.0412 10.7816C31.2469 11.7368 30.0246 13.4462 29.0913 15.1414C28.9799 15.345 29.305 15.5257 29.4164 15.3221Z" fill="#32473A"/>
<path d="M37.6005 19.0541C34.4634 15.1074 25.0492 14.2785 22.2463 23.7667C21.6773 31.5942 24.9318 34.2301 29.2551 35.4176L30.4563 34.1441C27.7799 26.2191 30.6219 21.452 37.6005 19.0541Z" fill="#FFCDD8" stroke="#32473A" stroke-miterlimit="10"/>
<path d="M45.4325 23.4767C40.6697 17.1809 31.2916 21.1878 30.4336 28.9063C30.4336 37.6775 39.0801 40.8928 44.448 36.8945C41.7084 32.4142 42.2954 27.9426 45.4325 23.4767Z" fill="#FFCDD8" stroke="#32473A" stroke-miterlimit="10"/>
<path d="M58.4659 25.4014C53.6097 18.1418 44.1895 22.5245 43.9336 31.2096C44.7043 41.98 56.6926 42.9007 59.5467 34.445C57.7403 31.9095 57.8397 28.7429 58.4659 25.4014Z" fill="#FFCDD8" stroke="#32473A" stroke-miterlimit="10"/>
<path d="M66.7544 20.5796C61.263 21.3942 58.6949 24.8504 59.5439 31.3987C61.263 38.2079 69.0123 38.8218 72.7455 34.4104C76.9423 27.7732 73.1218 20.9754 66.7544 20.5796Z" fill="#FFCDD8" stroke="#32473A" stroke-miterlimit="10"/>
<path d="M22.8177 32.4199C19.506 38.5953 23.8082 46.0987 29.0317 46.9764C27.2554 43.4599 27.1229 39.103 28.8269 36.3609C26.4696 35.9938 24.5248 34.5195 22.8177 32.4199Z" fill="#FFCDD8" stroke="#32473A" stroke-miterlimit="10"/>
<path d="M79.6881 32.9995C84.4058 40.3509 78.4598 48.9213 71.6467 44.9258C72.5379 42.439 72.1766 39.8547 71.2012 37.2245C72.3874 36.7397 73.3056 35.928 73.8806 34.7033C76.241 35.0761 78.0022 34.1239 79.6881 32.9995Z" fill="#FFCDD8" stroke="#32473A" stroke-miterlimit="10"/>
<path d="M60.4827 35.9194C62.6383 37.5342 64.1135 39.6854 70.5352 37.9587C73.1936 46.5205 64.9324 54.1472 58.1435 48.3963C54.8077 53.6969 47.3685 54.5115 43.9364 47.9058C35.1002 57.2507 23.9398 45.6227 30.9515 35.4146C34.5071 40.2648 39.1886 41.1195 44.975 38.039C50.361 44.0165 56.8971 41.9972 60.4857 35.9194H60.4827Z" fill="#FFCDD8" stroke="#32473A" stroke-miterlimit="10"/>
<path d="M77.0504 46.6722C75.1838 47.3663 73.1878 47.1196 71.0442 45.8433C69.9002 48.6886 68.0276 50.8599 64.7129 51.7031V54.9242C68.3497 58.3919 71.6825 57.7552 74.8497 54.9242C77.0564 52.5062 77.5261 49.6982 77.0504 46.6722Z" fill="#FFCDD8" stroke="#32473A" stroke-miterlimit="10"/>
<path d="M29.6449 48.141C28.0944 48.0952 26.6373 47.7108 25.3427 46.7471C23.6929 52.7819 29.4823 57.4773 34.9466 56.0345C34.1397 54.7266 33.7754 53.3642 34.2421 51.9071C32.4297 51.1499 30.9003 49.8878 29.6449 48.141Z" fill="#FFCDD8" stroke="#32473A" stroke-miterlimit="10"/>
<path d="M43.4606 49.5894C40.0736 52.8219 37.7223 52.3802 35.2988 52.1909C34.3233 58.3921 44.3517 62.1638 48.9459 56.2954L48.4432 53.2808C46.4832 52.4806 44.7853 51.3017 43.4576 49.5894H43.4606Z" fill="#FFCDD8" stroke="#32473A" stroke-miterlimit="10"/>
<path d="M58.256 49.856C59.8637 51.6085 61.6309 52.0961 63.4975 51.7892C63.931 54.755 63.639 59.2237 56.7748 59.9924C52.4305 59.5364 49.7962 57.5286 49.459 53.4384C53.2795 53.9633 56.1215 52.5951 58.259 49.856H58.256Z" fill="#FFCDD8" stroke="#32473A" stroke-miterlimit="10"/>
<path d="M35.6458 57.1013C33.6708 57.3738 31.7952 57.4942 30.4164 56.8604C29.3145 59.9208 34.7426 65.0148 41.2305 61.2259L41.0288 60.0757C39.0508 59.9839 37.2384 59.0861 35.6488 57.1013H35.6458Z" fill="#FFCDD8" stroke="#32473A" stroke-miterlimit="10"/>
<path d="M49.4558 57.3911C47.8571 59.201 45.6022 60.3827 42.0918 60.3655C44.699 65.3047 54.5558 64.6822 56.5428 61.0367C52.4875 60.5204 50.66 59.0834 49.4558 57.3911Z" fill="#FFCDD8" stroke="#32473A" stroke-miterlimit="10"/>
<path d="M64.3369 56C63.235 59.0232 60.9529 60.4372 57.9092 60.8129L57 62.3217C62.8557 65.1469 68.5397 62.8494 69.756 58.4065C67.6365 58.4753 65.8693 57.5689 64.3369 56Z" fill="#FFCDD8" stroke="#32473A" stroke-miterlimit="10"/>
<path d="M82.3551 43.6063C81.9758 42.8949 81.1238 43.4313 81.5212 44.1398C84.5529 48.316 86.1666 53.7771 86.4104 60.4803L85.8595 61.1055C85.4019 61.5186 85.447 62.0549 86.0762 62.0607C85.9679 62.6515 86.6061 63.0416 86.9734 62.5024C87.3979 63.1478 88.0362 62.706 87.8856 62.098C88.5751 62.1381 88.7708 61.4497 88.1024 61.1314L87.3196 60.5548C87.1059 53.7628 85.4109 48.1439 82.3551 43.6091V43.6063Z" fill="#36463B"/>
<path d="M21.8903 41.825C22.6459 42.1721 22.9831 41.2542 22.2154 40.9187C17.1485 39.344 12.3948 35.9279 7.93905 30.7334L7.9812 29.9189C8.08356 29.3251 7.70723 28.9264 7.20145 29.285C6.91243 28.7543 6.15676 28.8117 6.20794 29.4513C5.4583 29.1846 5.2325 29.9045 5.73829 30.2975C5.16326 30.6646 5.44626 31.3243 6.17784 31.1924L7.16532 31.1981C11.6542 36.4814 16.5735 39.975 21.8873 41.8222L21.8903 41.825Z" fill="#36463B"/>
<path d="M50.9876 42.2555C50.4577 41.7019 49.7322 42.485 50.4818 43.0844C51.7944 44.358 53.2847 44.4956 54.9496 43.5003C55.8919 43.0156 55.2326 42.2785 54.5883 42.5567C53.4443 43.4688 52.2521 43.5089 50.9906 42.2584L50.9876 42.2555Z" fill="#36463B"/>
<path d="M45.0247 41.9396C44.4948 41.386 43.7693 42.1691 44.5189 42.7685C45.8316 44.042 47.3218 44.1797 48.9867 43.1844C49.929 42.6997 49.2697 41.9625 48.6254 42.2408C47.4814 43.1529 46.2892 43.193 45.0277 41.9425L45.0247 41.9396Z" fill="#36463B"/>
<path d="M44.5548 46.004C44.8438 44.9399 43.9466 44.8739 43.5703 45.8176C43.5011 45.9983 43.3987 46.1675 43.2542 46.331C42.4022 46.9678 43.6335 47.8942 44.0791 46.9563C48.1525 49.3972 52.2078 49.5922 56.248 47.0194C57.2536 47.9946 57.8828 47.2202 57.2325 46.3913C57.1753 46.3167 57.1181 46.2421 57.073 46.1589L56.9856 46.0012C56.9495 45.9381 56.9254 45.8692 56.9044 45.8033C56.5371 44.5957 55.2274 45.1206 55.8717 46.2077C51.9609 48.3618 48.2007 48.1065 44.5548 46.0069V46.004Z" fill="#36463B"/>
<path d="M53.3667 63.4487C53.4088 63.7929 53.4058 65.7204 53.4811 66.0216C53.6316 66.6153 54.2879 66.8275 54.9051 66.9853C56.4435 67.3782 58.2499 66.9423 60.4356 66.6239L60.246 72.3748C60.2399 72.587 60.1105 72.7821 59.9088 72.8738C58.7617 73.4045 57.6659 73.5422 56.7386 72.349C56.561 72.1195 56.4616 71.8384 56.4767 71.5544C56.5248 70.6968 56.6724 69.8277 56.9313 68.9501C56.9734 68.8095 56.853 68.6747 56.6995 68.689C55.721 68.7837 54.8148 68.6546 53.7761 68.4338C53.0295 68.2731 52.3822 67.8056 52.0601 67.1431C51.7048 66.4145 51.2653 64.6391 51.1328 63.8273L53.3667 63.4516V63.4487Z" fill="#333333" stroke="#333333" stroke-width="0.75" stroke-miterlimit="10"/>
<path d="M58.2074 68.9072C57.9485 69.9713 57.6384 71.1157 57.7468 71.589C57.9515 72.0708 58.3851 72.0823 58.9119 71.8959C58.9059 70.7916 58.942 69.7389 59.0715 68.8125C58.8246 68.8785 58.5416 68.9129 58.2074 68.9072Z" fill="white" stroke="#32473A" stroke-width="0.75" stroke-miterlimit="10"/>
<path d="M47.7069 63.9191C47.0235 66.9394 46.3942 71.3192 46.2618 75.0939C46.2557 75.2918 46.0872 75.4495 45.8794 75.4495H39.3343C39.0724 75.4495 38.8346 75.2889 38.7503 75.0509C38.4311 74.1588 38.3529 73.3156 38.675 72.5583C38.7984 72.2629 39.0152 72.0048 39.3102 71.8613C40.4874 71.282 42.1703 71.9789 44.064 72.0908C44.2958 72.1052 44.4945 71.9388 44.5096 71.7179C44.6782 68.9816 44.9973 65.663 45.4399 63.4487L47.7069 63.9191Z" fill="#36463B"/>
<path d="M44.2927 73.3299C42.5767 73.5364 40.5204 72.805 40.0417 73.0545C39.5992 73.3213 39.563 73.697 39.6805 74.1129H44.4162L44.2957 73.3299H44.2927Z" fill="white" stroke="#32473A" stroke-width="0.75" stroke-miterlimit="10"/>
</svg>
