<svg width="85" height="84" viewBox="0 0 85 84" fill="none" xmlns="http://www.w3.org/2000/svg">
<path d="M49.114 9.68311C30.4129 9.68311 18.1785 30.7591 20.5794 46.7784C20.5937 49.7814 22.4771 53.9662 24.1304 57.6893C27.5491 61.3635 30.5854 63.8388 34.3981 65.9441C41.9228 68.8095 48.559 68.7837 53.9531 64.7108C60.4398 61.2086 64.7988 54.864 68.3613 47.4639C74.0889 32.156 67.7978 10.2912 49.1168 9.68311H49.114Z" fill="#FFCDD8"/>
<path d="M49.1325 9.53699C43.7902 9.54846 38.629 11.3354 34.3074 14.4389C29.9858 17.5423 26.6389 21.7042 24.2265 26.345C21.8141 30.9859 20.342 36.0713 20.1033 41.2571C20.0458 42.4819 20.0631 43.7124 20.158 44.9371C20.204 45.5452 20.296 46.1475 20.3592 46.7527C20.4369 47.4956 20.4714 48.2213 20.6266 48.9556C20.9975 50.7052 21.6416 52.3946 22.3202 54.0467C22.6854 54.933 23.0678 55.8078 23.4531 56.6855C23.6227 57.067 23.7607 57.5632 24.031 57.8759C24.3473 58.2401 24.6981 58.5814 25.0345 58.9285C27.4354 61.3837 30.072 63.5923 33.0221 65.3649C33.3873 65.5829 33.7553 65.8009 34.1291 66.0045C34.523 66.2196 34.9773 66.343 35.4 66.4921C36.2885 66.799 37.1884 67.0744 38.0999 67.3038C39.759 67.7255 41.4583 68.0094 43.172 68.0811C46.3032 68.2102 49.4401 67.5849 52.1861 66.0447C52.8963 65.646 53.5288 65.1326 54.2275 64.7281C54.8889 64.3438 55.5473 63.9594 56.1799 63.5263C57.468 62.6458 58.6699 61.6419 59.7826 60.5491C62.0973 58.2774 64.0209 55.6329 65.6828 52.8593C66.5655 51.3878 67.3763 49.8763 68.1354 48.3417C68.7105 47.1801 69.1073 45.9611 69.4437 44.7105C70.7232 39.9894 70.9417 34.9699 70.1481 30.1455C69.3546 25.321 67.6236 20.9039 64.6592 17.1924C61.6947 13.4809 57.6319 10.9396 53.0027 9.98157C51.7461 9.72056 50.4666 9.58001 49.1842 9.53412C48.9887 9.52838 48.7558 9.81808 49.0376 9.82955C53.8796 9.99591 58.5204 11.7226 62.0973 15.024C65.4901 18.159 67.7271 22.3667 68.9635 26.7753C70.1999 31.1838 70.5133 36.3036 69.8002 41.042C69.6248 42.2065 69.3891 43.3624 69.09 44.504C68.768 45.7259 68.4057 46.9478 67.8479 48.0836C66.3844 51.058 64.7397 53.9578 62.75 56.6167C60.8896 59.1006 58.7188 61.3694 56.1713 63.1592C55.5329 63.6095 54.8716 64.0283 54.1902 64.4098C53.5087 64.7912 52.8819 65.2989 52.1976 65.6976C50.8548 66.4778 49.397 67.0514 47.8789 67.3928C44.6096 68.1328 41.1937 67.7886 37.9849 66.931C37.1137 66.6986 36.2511 66.4262 35.4 66.125C34.5489 65.8238 33.7496 65.3735 32.9589 64.8859C31.5816 64.034 30.2618 63.0904 29.0139 62.0635C27.6366 60.9306 26.3428 59.7001 25.1064 58.418C24.7642 58.0623 24.3904 57.7324 24.1891 57.2793C23.9879 56.8261 23.8039 56.4102 23.6141 55.9771C23.246 55.1395 22.8866 54.302 22.5473 53.453C21.9061 51.8554 21.3052 50.2176 20.986 48.5224C20.8509 47.814 20.8452 47.1027 20.7474 46.3942C20.6698 45.8177 20.6094 45.2383 20.5663 44.656C20.2068 39.6222 21.1873 34.511 23.0476 29.8386C24.908 25.1662 27.8695 20.5626 31.665 17.0146C35.4172 13.5095 40.0983 10.9683 45.1991 10.1393C46.4872 9.92994 47.7926 9.82955 49.098 9.82668C49.3338 9.82668 49.42 9.53125 49.1382 9.53125L49.1325 9.53699Z" fill="#32473A"/>
<path d="M52.534 12.6118C51.2171 12.7581 51.1826 13.9226 52.6433 14.6282C52.9567 14.7802 53.2988 14.8749 53.641 14.9437C55.5962 15.351 56.315 15.1416 55.9499 14.3959C55.7084 13.3891 54.3627 12.6118 52.534 12.6118Z" fill="#36463B"/>
<path d="M40.3572 36.7223C39.8167 36.0282 38.6809 36.8342 39.4602 37.7664C40.2106 38.6326 41.2515 39.0313 42.4907 39.1087C44.0348 39.146 43.7242 37.6402 42.7064 37.7061C41.7144 37.9126 40.9409 37.557 40.3572 36.7223Z" fill="#36463B"/>
<path d="M45.3204 38.7046C44.7281 38.0535 43.6556 38.9398 44.5038 39.8117C45.3175 40.6206 46.3843 40.9389 47.6264 40.9275C49.1705 40.85 48.7478 39.3729 47.7385 39.5134C46.7638 39.7916 45.9674 39.4962 45.3204 38.7046Z" fill="#36463B"/>
<path d="M39.3005 40.0698C40.2753 39.1089 39.1165 38.6098 38.6536 39.2925L38.0297 40.0497C37.9635 40.13 37.8801 40.196 37.7939 40.2619C37.0405 40.8356 38.0038 41.6961 38.4811 40.8442C40.074 43.7612 42.7049 44.4123 45.8821 43.8846C46.1208 44.6991 47.268 44.4898 46.9632 43.7526C46.8396 43.4285 46.8051 43.1044 46.8569 42.7803C47.1329 41.5154 45.5256 41.5154 45.7499 42.7946C42.7078 43.2765 40.5542 42.373 39.3005 40.0698Z" fill="#36463B"/>
<path d="M25.1442 24.3142C19.7674 23.7721 12.352 22.447 11.9609 23.3562C10.6239 24.1536 18.0135 29.7381 24.6238 34.8981L25.5152 33.5988L14.1145 24.6842L24.4714 25.6193L25.1471 24.3142H25.1442Z" fill="#36463B"/>
<path d="M70.4098 33.8369C74.832 36.0741 79.6366 39.3927 84.9991 43.3509L63.8167 45.2927C61.4388 45.3243 61.8126 43.9045 63.6729 43.7611L81.2152 42.3843C77.6958 39.6135 73.8055 37.0665 70.3983 35.3513L70.4126 33.834L70.4098 33.8369Z" fill="#36463B"/>
<path d="M31.5909 59.8691C27.4332 58.6358 21.7545 57.2332 17.7721 58.3202C16.4581 58.6788 16.392 59.2696 15.5064 60.2993C13.2435 62.9353 11.5011 66.7214 10.3337 71.7753C10.2906 71.956 10.3193 72.1539 10.4257 72.3059C10.6759 72.6673 11.0295 72.7476 11.4608 72.6099C11.7484 72.5182 11.9554 72.2657 12.0043 71.9703C12.7288 67.622 14.2499 63.7613 16.415 61.2832C17.3638 60.1961 18.6232 59.2438 20.0666 59.2008C23.3963 59.1061 27.8731 59.806 31.3321 61.3004L31.5909 59.8662V59.8691Z" fill="#36463B"/>
<path d="M37.2895 61.7708C33.7902 59.6167 30.1242 58.6042 26.1419 59.6942C24.8279 60.0527 23.6576 60.7984 22.772 61.8282C20.5091 64.4641 18.7667 68.2502 17.5993 73.3041C17.5562 73.4848 17.585 73.6827 17.6913 73.8347C17.9415 74.1961 18.2952 74.2764 18.7265 74.1387C19.014 74.047 19.221 73.7946 19.2699 73.4991C19.9945 69.1508 21.5155 65.2902 23.6806 62.812C24.6295 61.7249 25.9147 61.0021 27.3323 60.7296C30.6101 60.1015 33.7528 61.1713 36.8582 63.0672L37.2895 61.7737V61.7708Z" fill="#36463B"/>
</svg>
