<svg width="257" height="322" viewBox="0 0 257 322" fill="none" xmlns="http://www.w3.org/2000/svg">
<path opacity="0.87" d="M71.0204 33.5568C71.1849 33.9966 71.2629 34.4474 71.2109 34.9312C70.0245 46.1351 66.8897 67.9052 60.0918 80.9453C54.9219 90.8628 47.0761 98.0975 42.5038 104.024C34.0865 120.187 26.8123 184.683 18.343 237.778C17.9707 240.109 18.6461 242.473 20.0923 243.99C36.0436 260.725 70.9598 262.77 81.5507 253.754C82.2175 253.182 82.7717 252.413 83.1527 251.511C89.8121 235.81 103.754 130.126 102.273 120.901C100.316 93.1937 84.2525 101.605 95.0513 42.8915C95.1898 42.1549 95.5622 41.5282 96.0385 41.0664C98.6104 38.5925 99.5976 34.6013 98.7836 28.8729C98.6797 28.1362 98.2554 27.4875 97.7098 27.2017C89.7168 23.0675 82.0096 20.0879 74.9693 19.736C74.2678 19.7031 73.575 20.0659 73.1074 20.7256C69.6608 25.5964 69.6175 29.7305 71.0291 33.5568H71.0204Z" fill="#C1D8E5"/>
<path opacity="0.72" d="M154.691 180.054L155.479 183.958L132.34 192.688C132.331 196.701 127.317 197.789 128.478 193.358C124.91 193.611 124.763 191.104 128.001 190.159C126.113 186.739 128.919 184.947 131.145 188.938L154.691 180.065V180.054Z" fill="black"/>
<path opacity="0.72" d="M73.7828 246.486C72.8129 263.287 70.9511 279.064 67.9635 293.556C67.2361 297.096 68.3358 298.889 70.2237 299.944C75.662 300.824 78.9008 300.857 79.6022 299.944C81.1956 297.47 80.8146 294.82 78.8488 292.039C77.3333 290.06 75.74 288.476 73.7828 288.674C73.549 290.84 76.5799 267.487 77.6624 247.663L73.7828 246.486Z" fill="black"/>
<path d="M71.9032 292.138L70.916 296.382L77.4282 297.019C77.4715 295.062 76.008 293.369 71.9119 292.138H71.9032Z" fill="white"/>
<path opacity="0.72" d="M173.812 253.732C181.614 247.553 182.87 253.314 180.731 254.842L165.1 267.861C164.589 268.278 164.364 269.026 164.537 269.708L170.746 294.381C171.699 296.953 169.473 298.658 165.576 299.9C160.06 302.671 157.012 302.209 157.705 296.843C158.233 293.468 161.402 291.225 164.555 288.971C162.494 282.209 160.926 275.26 159.826 268.113C159.714 267.355 159.982 266.519 160.476 265.98C168.096 257.58 168.763 257.932 173.821 253.754L173.812 253.732Z" fill="black"/>
<path opacity="0.87" d="M161.817 40.6706C162.337 40.9015 162.657 41.6161 162.744 42.2978C168.719 91.6325 161.506 83.793 151.763 117.702C147.789 131.643 152.318 176.151 157.054 221.901L158.96 246.068C181.345 270.939 225.545 248.872 224.956 238.009C221.353 181.539 213.109 119.637 211.42 114.469C206.562 96.7122 195.945 100.308 189.061 61.3412L186.541 36.1076C187.511 35.25 187.173 35.338 187.944 34.6233C188.29 30.0714 188.056 26.2231 186.567 23.1225C186.021 22.001 185.06 21.2863 184.021 21.2863C175.067 21.2863 166.234 22.9136 160.12 26.6959C159.566 27.0367 159.159 27.6745 159.038 28.4441C158.327 33.029 159.029 39.3841 161.826 40.6486L161.817 40.6706Z" fill="#C1D8E5"/>
<path opacity="0.74" d="M187.641 71.3356C189.902 80.5385 192.136 89.7523 194.24 94.2383C196.076 97.8886 199.93 102.012 204.156 105.354C203.835 101.924 197.981 99.5159 195.028 91.0277C191.867 81.9129 189.062 70.8409 187.633 71.3356H187.641Z" fill="white"/>
<path opacity="0.74" d="M167.204 38.5375C164.018 37.526 163.056 40.1538 166.364 40.9674C175.111 42.6497 178.644 38.1637 182.55 34.1285C176.808 36.8113 171.058 39.5161 167.196 38.5375H167.204Z" fill="white"/>
<path opacity="0.74" d="M184.697 23.9362C178.938 26.399 173.067 27.3006 167.022 27.2896C164.199 27.7184 164.086 30.1593 167.022 30.1593C176.911 29.8625 183.103 28.2462 184.697 23.9362Z" fill="white"/>
<path d="M210.407 132.391C210 130.841 208.762 129.983 207.489 130.28C200.934 131.83 192.776 131.39 181.059 126.509C172.123 122.737 163.411 120.681 156.033 128.279C155.184 129.147 154.742 130.478 154.751 131.863C154.942 157.526 158.631 198.526 162.735 241.33C175.015 256.426 209.126 250.324 220.427 235.634C217.179 196.294 214.122 146.575 210.399 132.38L210.407 132.391Z" fill="#FFCDD8"/>
<path d="M167.057 236.415C170.564 241.923 176.184 243.979 183.874 243.353C187.191 242.968 186.68 240.736 183.874 240.78C177.968 241.451 172.348 240.098 167.057 236.415Z" fill="#E09EB1"/>
<path opacity="0.74" d="M74.4316 33.106C76.9949 37.515 81.8271 38.7135 90.7813 38.7354C92.8943 37.8888 92.1062 36.7783 90.7813 36.8553C84.91 36.8113 79.5496 35.305 74.4316 33.095V33.106Z" fill="white"/>
<path opacity="0.74" d="M75.7919 25.2995C79.1865 28.1362 84.3304 29.1368 89.4657 30.1373C92.9036 30.83 92.8343 28.4991 90.0112 27.9823C85.7593 27.4216 81.4554 26.0252 77.1255 24.0131C75.584 23.5843 74.9692 23.8922 75.8005 25.3105L75.7919 25.2995Z" fill="white"/>
<path opacity="0.74" d="M38.8581 129.488L23.7295 233.754C37.0049 249.345 54.0906 252.786 73.7396 248.059C79.6283 246.97 80.6934 241.725 81.6114 234.139L96.8959 133.6C86.4349 120.516 73.9302 119.956 60.317 126.157C52.7744 129.576 45.5348 131.149 38.8581 129.488Z" fill="#FFD29B"/>
<path d="M29.9473 228.718C34.6842 236.316 41.4388 240.978 50.2284 242.682C54.4371 243.1 52.0816 241.484 47.0763 239.032C41.0491 236.888 35.351 233.38 29.9473 228.718Z" fill="#F4CAAF"/>
<path opacity="0.72" d="M66.5773 201.11C63.8841 199.384 64.9753 196.338 67.4953 197.569C83.6197 208.443 100.013 217.163 116.795 222.594C118.441 220.219 120.372 220.945 119.497 223.815C121.359 223.891 121.627 226.025 119.497 225.959C120.943 227.707 118.796 230.28 116.319 226.266C99.3286 221.132 82.7797 212.479 66.5773 201.11Z" fill="black"/>
<path opacity="0.72" d="M173.647 205.97C176.34 204.364 175.413 201.176 172.902 202.275C156.717 212.391 140.367 220.285 123.767 224.771C122.268 222.22 120.355 222.847 121.073 225.849C119.255 225.805 118.9 227.982 120.978 228.059C119.489 229.752 121.48 232.545 124.07 228.586C140.852 224.419 157.358 216.613 173.638 205.981L173.647 205.97Z" fill="black"/>
<path opacity="0.72" d="M195.903 257.272C195.799 246.156 201.194 248.07 201.09 251.027L201.809 273.622C201.835 274.359 202.285 274.985 202.935 275.194L226.567 282.528C229.217 282.99 229.208 286.123 227.779 290.664C226.567 297.635 224.307 300.406 220.436 296.799C218.055 294.425 218.228 290.07 218.384 285.716C211.69 284.067 205.143 281.824 198.735 279.01C198.059 278.713 197.557 277.987 197.427 277.195C195.427 265.046 196.128 264.584 195.92 257.294L195.903 257.272Z" fill="black"/>
<path d="M220.834 285.661C220.202 290.257 220.341 293.402 221.432 294.974C222.176 295.843 222.609 295.216 222.895 293.886L224.463 286.629L220.834 285.661Z" fill="white"/>
<path d="M166.165 293.017C163.004 294.71 161.108 296.349 160.631 298.02C160.432 299.064 161.021 299.119 161.991 298.713L167.239 296.514L166.165 293.006V293.017Z" fill="white"/>
<path opacity="0.72" d="M95.9079 180.054L95.1025 183.958L118.856 192.688C118.865 196.701 124.009 197.789 122.822 193.358C126.486 193.611 126.633 191.104 123.316 190.159C125.247 186.739 122.372 184.947 120.086 188.938L95.9166 180.065L95.9079 180.054Z" fill="black"/>
<path opacity="0.72" d="M47.1452 253.71C44.8936 249.51 48.4095 246.992 50.306 249.29C53.8652 255.909 56.6623 274.26 53.1724 275.491L35.4112 287.41C36.1473 291.236 37.3423 295.007 35.264 299.218C33.2549 300.879 31.4017 301.252 29.843 299.339C26.9939 294.337 24.1362 290.246 25.9634 287.531C33.0038 282.473 38.2343 281.132 49.9423 272.533C50.2367 266.376 48.7732 260.054 47.1452 253.721V253.71Z" fill="black"/>
<path d="M31.9299 288.036L29.1328 289.818L32.7786 298.438C34.5105 297.14 32.9604 292.302 31.9299 288.025V288.036Z" fill="white"/>
<path opacity="0.72" d="M163.429 180.054C164.052 177.635 162.208 176.756 161.212 178.735L160.415 180.054C159.419 181.847 160.701 183.914 161.922 182.352C163.957 186.256 167.663 186.937 172.469 185.398C174.175 186.585 174.704 185.717 174.513 183.595L174.115 181.539C173.379 179.571 171.95 180.34 171.898 182.693C168.062 183.881 164.987 183.463 163.42 180.065L163.429 180.054Z" fill="black"/>
<path opacity="0.72" d="M59.4511 181.704C60.0226 178.757 57.52 178.086 56.4115 180.571L55.5022 182.253C54.3851 184.529 56.2643 186.717 57.7105 184.661C60.7674 188.85 65.7034 188.96 71.8432 186.267C74.1987 187.344 74.8049 186.223 74.3372 183.782L73.6098 181.451C72.4407 179.285 70.6482 180.45 70.8214 183.199C65.9113 185.288 61.8499 185.376 59.4511 181.693V181.704Z" fill="black"/>
<path opacity="0.72" d="M161.29 162.297C160.346 161.099 159.246 161.66 159.48 164.771C159.878 168.334 161.099 170.214 163.091 170.544C164.407 170.808 165.551 170.61 166.434 169.73C167.62 168.334 168.356 166.926 168.711 165.497C169.803 163.1 168.651 162.253 167.438 162.891C165.014 163.331 163.005 163.056 161.281 162.297H161.29Z" fill="black"/>
<path d="M161.506 164.76C161.878 167.025 162.519 167.905 163.307 167.96C165.446 168.554 166.347 166.728 166.658 165.585C164.961 165.431 163.238 165.167 161.506 164.76Z" fill="white"/>
<path d="M162.892 165.024L165.68 165.508C165.585 166.311 165.325 166.805 164.286 166.948C163.472 166.893 163.177 166.465 162.892 165.024Z" fill="#050606"/>
<path opacity="0.72" d="M73.8437 164.43C71.4796 163.254 69.9814 165.233 71.7047 167.355C75.0474 169.334 77.4288 170.005 81.6548 169.114C85.1793 167.762 84.0795 163.925 81.4816 165.167C78.6672 165.761 76.7794 165.827 73.8437 164.419V164.43Z" fill="#020101"/>
<path opacity="0.72" d="M175.301 167.454C173.621 166.179 172.452 167.003 173.561 168.894C175.907 170.94 177.657 171.819 180.956 171.808C183.762 171.324 183.112 168.774 181.017 169.323C178.8 169.642 177.691 169.323 175.301 167.454Z" fill="#020101"/>
<path d="M76.0425 153.688C73.0463 156.701 71.9292 153.787 74.25 150.753C76.6227 148.862 78.9955 149.092 81.3683 151.412C84.4425 154.645 82.5807 157.295 79.9221 154.425C78.6838 153.369 77.3935 153.161 76.0425 153.688Z" fill="#020101"/>
<path opacity="0.72" d="M55.3803 161.869C53.1807 160.252 51.492 162.242 52.9469 164.661C56.0211 167.256 59.5629 168.774 63.7716 168.257C67.4173 167.597 66.4907 163.848 63.7716 164.584C60.9225 164.639 58.1167 163.804 55.3803 161.869Z" fill="#020101"/>
<path opacity="0.72" d="M58.1002 152.325C55.1039 155.338 53.9868 152.424 56.3076 149.389C58.6804 147.498 61.0531 147.729 63.4259 150.049C66.5001 153.282 64.6383 155.931 61.9797 153.062C60.7414 152.006 59.4511 151.797 58.1002 152.325Z" fill="#020101"/>
<path opacity="0.72" d="M76.0425 153.688C73.0463 156.701 71.9292 153.787 74.25 150.753C76.6227 148.862 78.9955 149.092 81.3683 151.412C84.4425 154.645 82.5807 157.295 79.9221 154.425C78.6838 153.369 77.3935 153.161 76.0425 153.688Z" fill="#020101"/>
<path opacity="0.72" d="M177.639 159.373C174.548 159.824 173.569 158.614 175.985 158.031C178.41 157.844 180.748 158.372 182.991 159.626C185.901 161.319 183.952 161.858 181.441 160.373C180.263 159.78 178.99 159.461 177.639 159.373Z" fill="#020101"/>
<path opacity="0.72" d="M161.402 153.732C158.275 153.897 157.41 152.468 159.886 152.083C162.328 152.138 164.606 152.963 166.727 154.568C169.464 156.734 167.463 157.119 165.099 155.228C163.982 154.447 162.744 153.963 161.402 153.732Z" fill="#020101"/>
<path opacity="0.74" d="M57.4502 92.2482C64.3174 81.594 71.7388 55.4589 72.4922 52.3802C73.0984 57.262 65.2873 82.8035 64.0836 84.8925C63.2609 87.0365 59.9788 90.7529 57.4589 92.2482H57.4502Z" fill="white"/>
<mask id="path-38-inside-1_833_170" fill="white">
<path d="M93.1094 127.694V108.942H95.8292L103.57 125.493L111.207 108.942H113.927V127.694H111.939V111.847L104.721 127.694H102.629L95.097 111.847V127.694H93.1094Z"/>
</mask>
<path d="M93.1094 127.694V108.942H95.8292L103.57 125.493L111.207 108.942H113.927V127.694H111.939V111.847L104.721 127.694H102.629L95.097 111.847V127.694H93.1094Z" fill="#32473A"/>
<path d="M93.1094 127.694H-106.891V327.694H93.1094V127.694ZM93.1094 108.942V-91.0583H-106.891V108.942H93.1094ZM95.8292 108.942L276.994 24.21L223.082 -91.0583H95.8292V108.942ZM103.57 125.493L-77.5941 210.225L104.804 600.21L285.173 209.282L103.57 125.493ZM111.207 108.942V-91.0583H-16.7774L-70.3956 25.1529L111.207 108.942ZM113.927 108.942H313.927V-91.0583H113.927V108.942ZM113.927 127.694V327.694H313.927V127.694H113.927ZM111.939 127.694H-88.0609V327.694H111.939V127.694ZM111.939 111.847H311.939L-70.0696 28.9445L111.939 111.847ZM104.721 127.694V327.694H233.393L286.73 210.596L104.721 127.694ZM102.629 127.694L-78.0063 213.548L-23.7539 327.694H102.629V127.694ZM95.097 111.847L275.732 25.9928L-104.903 111.847H95.097ZM95.097 127.694V327.694H295.097V127.694H95.097ZM93.1094 127.694H293.109V108.942H93.1094H-106.891V127.694H93.1094ZM93.1094 108.942V308.942H95.8292V108.942V-91.0583H93.1094V108.942ZM95.8292 108.942L-85.3352 193.673L-77.5941 210.225L103.57 125.493L284.735 40.7613L276.994 24.21L95.8292 108.942ZM103.57 125.493L285.173 209.282L292.809 192.73L111.207 108.942L-70.3956 25.1529L-78.0321 41.7041L103.57 125.493ZM111.207 108.942V308.942H113.927V108.942V-91.0583H111.207V108.942ZM113.927 108.942H-86.0733V127.694H113.927H313.927V108.942H113.927ZM113.927 127.694V-72.3061H111.939V127.694V327.694H113.927V127.694ZM111.939 127.694H311.939V111.847H111.939H-88.0609V127.694H111.939ZM111.939 111.847L-70.0696 28.9445L-77.2877 44.7914L104.721 127.694L286.73 210.596L293.948 194.749L111.939 111.847ZM104.721 127.694V-72.3061H102.629V127.694V327.694H104.721V127.694ZM102.629 127.694L283.264 41.8397L275.732 25.9928L95.097 111.847L-85.5382 197.701L-78.0063 213.548L102.629 127.694ZM95.097 111.847H-104.903V127.694H95.097H295.097V111.847H95.097ZM95.097 127.694V-72.3061H93.1094V127.694V327.694H95.097V127.694Z" fill="#32473A" mask="url(#path-38-inside-1_833_170)"/>
<mask id="path-40-inside-2_833_170" fill="white">
<path d="M119.262 127.694V108.942H134.221V110.526H121.459V117.305H133.175V118.802H121.459V126.109H134.535V127.694H119.262Z"/>
</mask>
<path d="M119.262 127.694V108.942H134.221V110.526H121.459V117.305H133.175V118.802H121.459V126.109H134.535V127.694H119.262Z" fill="#32473A"/>
<path d="M119.262 127.694H-80.7383V327.694H119.262V127.694ZM119.262 108.942V-91.0583H-80.7383V108.942H119.262ZM134.221 108.942H334.221V-91.0583H134.221V108.942ZM134.221 110.526V310.526H334.221V110.526H134.221ZM121.459 110.526V-89.4737H-78.5415V110.526H121.459ZM121.459 117.305H-78.5415V317.305H121.459V117.305ZM133.175 117.305H333.175V-82.6947H133.175V117.305ZM133.175 118.802V318.802H333.175V118.802H133.175ZM121.459 118.802V-81.198H-78.5415V118.802H121.459ZM121.459 126.109H-78.5415V326.109H121.459V126.109ZM134.535 126.109H334.535V-73.8908H134.535V126.109ZM134.535 127.694V327.694H334.535V127.694H134.535ZM119.262 127.694H319.262V108.942H119.262H-80.7383V127.694H119.262ZM119.262 108.942V308.942H134.221V108.942V-91.0583H119.262V108.942ZM134.221 108.942H-65.7791V110.526H134.221H334.221V108.942H134.221ZM134.221 110.526V-89.4737H121.459V110.526V310.526H134.221V110.526ZM121.459 110.526H-78.5415V117.305H121.459H321.459V110.526H121.459ZM121.459 117.305V317.305H133.175V117.305V-82.6947H121.459V117.305ZM133.175 117.305H-66.8252V118.802H133.175H333.175V117.305H133.175ZM133.175 118.802V-81.198H121.459V118.802V318.802H133.175V118.802ZM121.459 118.802H-78.5415V126.109H121.459H321.459V118.802H121.459ZM121.459 126.109V326.109H134.535V126.109V-73.8908H121.459V126.109ZM134.535 126.109H-65.4653V127.694H134.535H334.535V126.109H134.535ZM134.535 127.694V-72.3061H119.262V127.694V327.694H134.535V127.694Z" fill="#32473A" mask="url(#path-40-inside-2_833_170)"/>
<mask id="path-42-inside-3_833_170" fill="white">
<path d="M138.615 127.694V108.942H145.624C149.599 108.942 150.855 109.118 152.319 109.998C154.934 111.495 156.399 114.312 156.399 118.186C156.399 122.324 154.83 125.405 151.901 126.813C150.541 127.518 149.076 127.782 146.252 127.782H138.615V127.694ZM140.917 126.109H146.043C148.867 126.109 150.018 125.845 151.273 125.053C153.156 123.82 154.202 121.179 154.202 118.098C154.202 114.752 152.947 112.199 150.645 111.231C149.495 110.702 148.658 110.614 145.833 110.614H141.021V126.109H140.917Z"/>
</mask>
<path d="M138.615 127.694V108.942H145.624C149.599 108.942 150.855 109.118 152.319 109.998C154.934 111.495 156.399 114.312 156.399 118.186C156.399 122.324 154.83 125.405 151.901 126.813C150.541 127.518 149.076 127.782 146.252 127.782H138.615V127.694ZM140.917 126.109H146.043C148.867 126.109 150.018 125.845 151.273 125.053C153.156 123.82 154.202 121.179 154.202 118.098C154.202 114.752 152.947 112.199 150.645 111.231C149.495 110.702 148.658 110.614 145.833 110.614H141.021V126.109H140.917Z" fill="#32473A"/>
<path d="M138.615 108.942V-91.0583H-61.3848V108.942H138.615ZM152.319 109.998L49.2768 281.411L51.1166 282.517L52.9797 283.583L152.319 109.998ZM151.901 126.813L65.2213 -53.4272L62.5528 -52.1439L59.9235 -50.7822L151.901 126.813ZM138.615 127.782H-61.3848V327.782H138.615V127.782ZM151.273 125.053L258.025 294.18L259.424 293.297L260.808 292.391L151.273 125.053ZM150.645 111.231L67.2068 292.994L70.1199 294.331L73.0742 295.575L150.645 111.231ZM141.021 110.614V-89.3856H-58.9787V110.614H141.021ZM141.021 126.109V326.109H341.021V126.109H141.021ZM138.615 127.694H338.615V108.942H138.615H-61.3848V127.694H138.615ZM138.615 108.942V308.942H145.624V108.942V-91.0583H138.615V108.942ZM145.624 108.942V308.942C145.548 308.942 143.049 308.95 139.497 308.796C136.004 308.645 128.642 308.231 119.273 306.779C109.183 305.215 96.6804 302.445 82.8485 297.414C68.8904 292.337 57.6156 286.423 49.2768 281.411L152.319 109.998L255.361 -61.4145C200.963 -94.1155 146.85 -91.0583 145.624 -91.0583V108.942ZM152.319 109.998L52.9797 283.583C19.676 264.524 -6.60541 236.27 -23.2729 203.187C-39.28 171.414 -43.6011 141.06 -43.6011 118.186H156.399H356.399C356.399 61.6256 331.455 -17.9207 251.659 -63.5867L152.319 109.998ZM156.399 118.186H-43.6011C-43.6011 73.3659 -23.1467 -10.9302 65.2213 -53.4272L151.901 126.813L238.58 307.054C332.806 261.74 356.399 171.281 356.399 118.186H156.399ZM151.901 126.813L59.9235 -50.7822C78.3528 -60.3267 97.2815 -66.3486 115.48 -69.502C130.832 -72.1618 142.698 -72.2181 146.252 -72.2181V127.782V327.782C160.054 327.782 199.957 327.156 243.878 304.409L151.901 126.813ZM146.252 127.782V-72.2181H138.615V127.782V327.782H146.252V127.782ZM138.615 127.782H338.615V127.694H138.615H-61.3848V127.782H138.615ZM140.917 126.109V326.109H146.043V126.109V-73.8908H140.917V126.109ZM146.043 126.109V326.109C162.296 326.109 209.087 325.07 258.025 294.18L151.273 125.053L44.5211 -44.0745C51.8413 -48.6951 61.6432 -54.1902 73.7393 -59.2042C85.9486 -64.2652 97.7619 -67.7052 108.715 -69.972C128.222 -74.0089 143.532 -73.8908 146.043 -73.8908V126.109ZM151.273 125.053L260.808 292.391C342.709 238.781 354.202 154.548 354.202 118.098H154.202H-45.7979C-45.7979 97.971 -42.5075 72.7094 -31.3305 45.7275C-20.2207 18.908 1.63704 -16.0366 41.7382 -42.2857L151.273 125.053ZM154.202 118.098H354.202C354.202 73.8021 335.377 -28.0209 228.216 -73.1134L150.645 111.231L73.0742 295.575C-29.4831 252.419 -45.7979 155.702 -45.7979 118.098H154.202ZM150.645 111.231L234.084 -70.533C188.891 -91.2787 147.434 -89.3856 145.833 -89.3856V110.614V310.614C145.71 310.614 145.207 310.614 144.476 310.606C143.753 310.597 142.513 310.578 140.931 310.525C138.066 310.429 131.94 310.162 124.123 309.188C115.641 308.13 105.408 306.279 94.0643 302.987C82.7558 299.705 73.6276 295.942 67.2068 292.994L150.645 111.231ZM145.833 110.614V-89.3856H141.021V110.614V310.614H145.833V110.614ZM141.021 110.614H-58.9787V126.109H141.021H341.021V110.614H141.021ZM141.021 126.109V-73.8908H140.917V126.109V326.109H141.021V126.109Z" fill="#32473A" mask="url(#path-42-inside-3_833_170)"/>
</svg>
