<svg width="173" height="171" viewBox="0 0 173 171" fill="none" xmlns="http://www.w3.org/2000/svg">
<path d="M72.1275 39.0336C66.9952 42.0932 61.465 41.2115 56.8711 39.1504C63.5893 34.1873 70.132 32.2254 74.8897 34.6836" fill="#FFCDD8"/>
<path d="M72.1275 39.0336C66.9952 42.0932 61.465 41.2115 56.8711 39.1504C63.5893 34.1873 70.132 32.2254 74.8897 34.6836" stroke="#32473A" stroke-miterlimit="10"/>
<path d="M74.8892 33.4283C72.4606 30.3745 70.9332 23.7648 71.7057 19.7593C72.9756 24.5472 76.6975 28.8389 79.4422 30.2344" fill="#FFCDD8"/>
<path d="M74.8892 33.4283C72.4606 30.3745 70.9332 23.7648 71.7057 19.7593C72.9756 24.5472 76.6975 28.8389 79.4422 30.2344" stroke="#36463B" stroke-miterlimit="10"/>
<path d="M91.2043 32.091C92.796 28.5293 91.965 24.2435 90.2153 20.5532C90.1801 25.5105 88.7464 29.2124 85.8203 30.1408" fill="#FFCDD8"/>
<path d="M91.2043 32.091C92.796 28.5293 91.965 24.2435 90.2153 20.5532C90.1801 25.5105 88.7464 29.2124 85.8203 30.1408" stroke="#36463B" stroke-miterlimit="10"/>
<path d="M95.1032 35.4252C99.8668 36.2894 103.712 33.3582 106.491 29.6972C99.9605 27.6827 94.4829 28.3717 91.7031 32.459" fill="#FFCDD8"/>
<path d="M95.1032 35.4252C99.8668 36.2894 103.712 33.3582 106.491 29.6972C99.9605 27.6827 94.4829 28.3717 91.7031 32.459" stroke="#32473A" stroke-miterlimit="10"/>
<path d="M65.0222 116.85C61.0603 120.972 56.1972 124.481 56.6595 131.587C57.5783 136.422 63.3661 136.883 69.0602 137.432L73.063 136.434C58.6902 135.791 55.1673 131.295 67.8839 121.03" fill="#FFCDD8"/>
<path d="M65.0222 116.85C61.0603 120.972 56.1972 124.481 56.6595 131.587C57.5783 136.422 63.3661 136.883 69.0602 137.432L73.063 136.434C58.6902 135.791 55.1673 131.295 67.8839 121.03" stroke="#32473A" stroke-miterlimit="10"/>
<path d="M102.874 85.459C103.968 80.4142 101.873 72.8877 98.5783 64.4212L81.3965 62.5645L96.5417 85.6576L102.874 85.459Z" fill="#FFCDD8"/>
<path d="M103.132 85.8738C104.794 81.15 101.657 71.9011 99.0234 64.4214" stroke="#36463B" stroke-miterlimit="10"/>
<path d="M76.5511 54.5066C85.2473 69.6295 92.8785 66.675 100.48 63.0549C111.752 56.1298 106.789 43.5235 99.4563 44.3818C97.1271 29.6093 78.2307 23.5718 71.2433 39.1793C68.8732 46.1744 68.2294 52.9359 69.7451 59.4113C56.5486 67.7844 58.2282 104.757 66.8074 118.811C70.8219 126.145 78.1312 128.486 86.0549 127.978L100.615 126.758C112.776 123.646 115.784 112.528 112.009 95.467C109.978 88.466 105.291 84.7583 97.0628 85.459" fill="#FFCDD8"/>
<path d="M76.5511 54.5066C85.2473 69.6295 92.8785 66.675 100.48 63.0549C111.752 56.1298 106.789 43.5235 99.4563 44.3818C97.1271 29.6093 78.2307 23.5718 71.2433 39.1793C68.8732 46.1744 68.2294 52.9359 69.7451 59.4113C56.5486 67.7844 58.2282 104.757 66.8074 118.811C70.8219 126.145 78.1312 128.486 86.0549 127.978L100.615 126.758C112.776 123.646 115.784 112.528 112.009 95.467C109.978 88.466 105.291 84.7583 97.0628 85.459" stroke="#32473A" stroke-miterlimit="10"/>
<path d="M77.3112 32.4238C78.4934 35.028 77.9433 37.9884 76.0004 40.0787C74.8709 40.9838 74.4437 42.2566 74.7422 43.8916L75.6317 47.9847C75.7546 48.5511 75.7019 49.1408 75.462 49.6663C74.4964 51.78 72.4013 51.8559 71.8571 49.9699C71.7576 49.6254 71.7986 49.2576 71.9156 48.9248C72.8636 46.2038 72.1321 44.6798 70.2185 44.9426C69.9961 39.0978 73.0334 34.8879 77.2995 32.4297L77.3112 32.4238Z" fill="#36463B" stroke="#36463B" stroke-miterlimit="10"/>
<path d="M67.0234 61.7529C68.1353 63.0609 69.5047 65.5775 67.0643 67.9948C65.2092 68.7714 64.9108 70.5406 65.7769 73.0572C67 75.6555 64.2612 78.2539 61.0074 79.4917C60.943 73.2323 62.8801 65.8694 67.0292 61.7588L67.0234 61.7529Z" fill="#36463B" stroke="#36463B" stroke-miterlimit="10"/>
<path d="M93.4411 83.427C98.8601 78.5456 95.2611 76.537 90.8369 78.061C88.8062 78.966 87.6007 80.4841 88.2912 83.427C90.2692 86.4866 89.842 89.371 86.0323 92.0219C83.6564 93.9605 83.5101 96.0742 88.4434 96.0742C93.3767 95.1633 95.2143 93.289 93.6752 90.3695C91.2817 87.8179 91.3226 85.5173 93.4469 83.4211L93.4411 83.427Z" fill="#36463B" stroke="#36463B" stroke-miterlimit="10"/>
<path d="M89.882 67.8664C86.9384 68.0883 84.6034 66.9964 82.6313 65.1046C81.9875 64.4857 81.18 64.0711 80.3255 64.0186C78.4997 63.9076 77.8794 65.5133 79.8281 69.1452C81.2151 70.9844 83.0877 72.0004 86.125 71.0195C87.0321 70.6867 87.9157 70.4005 88.776 70.1495C90.1337 69.7524 91.5382 69.6006 92.9368 69.7115L93.2997 69.7407C95.6756 69.694 95.2601 67.2241 93.2997 67.4986L89.8762 67.8664H89.882Z" fill="#36463B" stroke="#36463B" stroke-miterlimit="10"/>
<path d="M83.9552 113.615C86.6062 111.116 85.7342 109.014 81.0467 109.539C80.2683 109.627 79.4959 109.872 78.8521 110.316C77.3247 111.367 76.8332 112.973 77.2487 115.057C78.0562 117.107 79.3788 119.103 82.1352 120.54C86.4716 121.416 88.0751 120.873 87.4781 119.174C87.2382 118.502 86.7174 117.965 86.097 117.609C83.6684 116.237 82.6384 114.899 83.961 113.609L83.9552 113.615Z" fill="#36463B" stroke="#36463B" stroke-miterlimit="10"/>
<path d="M64.5716 117.994C61.7158 120.318 59.3281 122.968 57.7656 126.192C58.4737 126.443 59.8607 125.917 60.6624 125.304C60.8672 124.049 61.4349 123.068 62.5585 122.501C64.2556 121.304 64.952 119.804 64.5775 117.988L64.5716 117.994Z" fill="#36463B" stroke="#36463B" stroke-miterlimit="10"/>
<path d="M109.604 95.5372C103.131 92.3083 93.1475 97.5692 91.7079 110.211C91.6669 117.784 93.1299 123.331 97.6243 124.837C102.054 126.957 105.648 125.45 109.1 123.325C114.935 117.731 117.276 110.783 114.56 101.89C113.554 99.4727 112.149 97.2364 109.609 95.5372H109.604Z" fill="#36463B" stroke="#36463B" stroke-miterlimit="10"/>
<path d="M98.7428 104.839C96.6478 108.377 96.8701 111.484 99.5387 111.781C102.892 112.669 104.045 109.084 103.565 105.195" stroke="#FFCDD8" stroke-miterlimit="10"/>
<path d="M98.11 114.45C96.015 117.988 96.2373 121.094 98.9059 121.392C102.259 122.28 103.412 118.695 102.932 114.806" stroke="#FFCDD8" stroke-miterlimit="10"/>
<path d="M97.5146 48.3234C94.3662 48.446 91.3055 48.627 88.9822 49.3452C86.7935 50.0225 85.0321 51.7684 84.5288 53.9989C84.2947 55.0382 84.3357 56.095 84.6458 57.1694C85.2895 59.3999 86.9106 61.2684 89.0173 62.2668C92.7627 64.036 96.7012 62.658 100.669 60.6611C100.997 60.4976 101.318 60.3108 101.617 60.0947C105.128 57.5665 105.971 54.6353 105.052 51.4414C104.561 49.7364 103.168 48.4518 101.406 48.2066C100.447 48.0723 99.358 48.1073 98.1817 48.265C97.9594 48.2942 97.737 48.3175 97.5146 48.3234Z" stroke="#36463B" stroke-miterlimit="10"/>
<path d="M92.0996 56.5212C92.0587 55.8789 91.4149 55.5811 91.1457 56.7256C90.7712 57.7123 91.5144 57.9692 91.8714 57.3795C95.1661 58.2846 97.8991 57.4963 100.211 55.4585C101.053 55.984 101.287 55.2716 100.579 54.4776C99.9297 53.5141 99.2158 53.8878 99.6723 54.7695C97.5421 56.7664 95.0666 57.5138 92.0996 56.5153V56.5212Z" fill="#36463B"/>
<path d="M90.1457 40.5516C89.5663 40.7559 89.6131 41.4333 90.1457 41.4333C91.5853 41.2523 92.8845 41.4683 94.0198 42.1281C94.6401 42.3266 94.9444 41.7544 94.3358 41.3398C93.0893 40.5633 91.6789 40.3414 90.1457 40.5516Z" fill="#36463B"/>
<path d="M88.0215 41.661C88.3082 41.0538 87.4421 40.7034 87.1846 41.4275C86.7047 42.2799 85.7801 43.3076 84.6916 44.3936C84.2176 44.8141 84.7911 45.4914 85.2417 44.9951C86.4648 43.9265 87.4304 42.8171 88.0215 41.6552V41.661Z" fill="#36463B"/>
<path d="M96.3669 43.1848C96.5073 42.3966 96.0801 42.2389 95.5242 42.56C94.2718 43.1206 92.879 43.325 91.3516 43.1848C90.6786 42.9688 90.4387 43.3775 90.9537 44.4986C91.3633 45.4679 91.9368 46.0809 92.6917 46.3028C93.7451 46.6006 94.5352 46.3262 95.1906 45.7715C95.928 45.1058 96.2498 44.2066 96.361 43.1848H96.3669Z" fill="#36463B"/>
<path d="M95.3666 43.5234L94.6467 43.7804C94.6292 44.0957 94.4829 44.3526 94.0966 44.4985C93.7162 44.5628 93.3885 44.4168 93.2598 44.0314L91.709 44.0957C91.8202 44.7087 92.2415 45.1408 92.8384 45.4678C92.9379 45.5262 93.055 45.5671 93.172 45.5788C93.7572 45.6547 94.2195 45.4737 94.5999 45.1408C95.1032 44.6153 95.308 44.0723 95.3724 43.5293L95.3666 43.5234Z" fill="white"/>
<path d="M89.5961 43.9033C89.3504 42.9282 88.8529 42.969 88.1916 43.7223C87.3723 44.4113 86.0205 44.9835 84.458 45.5031C83.5626 45.7192 83.8786 46.2972 84.616 47.0038C85.6167 48.1424 86.6935 48.1774 87.7995 47.8446C88.8646 47.5059 89.5259 46.9746 89.6722 46.2097C89.959 45.5499 89.8653 44.7558 89.6078 43.9033H89.5961Z" fill="#36463B"/>
<path d="M85.88 46.046L85.1602 46.3204C85.8624 47.2196 86.7168 47.4123 87.7 47.0503C88.4315 46.8517 88.8645 46.4664 89.0635 45.9292C89.2449 45.2869 89.2098 44.7672 88.9406 44.3877L87.2259 45.3278C87.3605 45.8066 87.2728 46.1219 86.9509 46.2562C86.6817 46.5014 86.3364 46.478 85.88 46.0401V46.046Z" fill="white"/>
<path d="M92.0652 46.636C91.6673 46.4257 91.5093 46.8695 92.0652 47.1498C93.2415 47.6461 94.4295 47.4592 95.6174 46.6885C96.15 46.4257 95.8398 46.0754 95.5004 46.2272C94.5699 46.8111 93.6453 47.4067 92.0652 46.636Z" fill="#36463B"/>
<path d="M86.3413 48.6444C85.8672 48.5802 85.8204 49.024 86.4759 49.0999C87.8336 49.1816 89.0215 48.6503 90.0691 47.5992C90.5606 47.2022 90.1393 46.9862 89.8291 47.2256C89.0098 48.0313 88.2022 48.8429 86.3471 48.6444H86.3413Z" fill="#36463B"/>
<path d="M105.853 30.497C101.64 30.0766 96.2967 29.662 93.0312 33.4282" stroke="#36463B" stroke-width="0.75" stroke-miterlimit="10"/>
<path d="M57.9062 39.588C62.5762 37.1998 68.5454 34.2804 73.7362 36.2014" stroke="#36463B" stroke-width="0.75" stroke-miterlimit="10"/>
<path d="M91.4038 31.4604C92.9956 27.8986 92.0417 24.2435 90.2978 20.5532C90.2627 25.5105 89.2327 29.0723 86.3008 30.0065" stroke="#36463B" stroke-miterlimit="10"/>
<path d="M82.0999 128.504C82.2052 137.905 82.2813 147.253 79.1973 151.241" stroke="#36463B" stroke-miterlimit="10"/>
<path d="M95.5716 128.042C96.6425 137.385 97.6783 146.675 95.0215 150.955" stroke="#36463B" stroke-miterlimit="10"/>
<path d="M68.8682 73.9507C66.9135 82.9602 65.5266 91.526 66.0767 98.6203L63.3555 100.985" stroke="#36463B" stroke-miterlimit="10"/>
<path d="M66.5326 102.935L66.0761 98.6201L64.4785 102.661" stroke="#36463B" stroke-miterlimit="10"/>
<path d="M68.0834 101.143L66.0762 98.6201" stroke="#36463B" stroke-miterlimit="10"/>
<path d="M102.699 76.0934C111.805 74.546 112.525 74.0964 118.915 70.9492L122.128 72.59" stroke="#36463B" stroke-miterlimit="10"/>
<path d="M107.801 105.207C106.876 109.019 106.742 112.243 109.317 112.172C112.623 112.605 112.547 109.206 111.499 105.393" stroke="#FFCDD8" stroke-miterlimit="10"/>
<path d="M106.227 114.491C105.302 118.304 105.168 121.527 107.742 121.457C111.049 121.889 110.973 118.49 109.925 114.678" stroke="#FFCDD8" stroke-miterlimit="10"/>
</svg>
