<svg width="63" height="57" viewBox="0 0 63 57" fill="none" xmlns="http://www.w3.org/2000/svg">
<path d="M7.00435 23.001C6.98037 22.6083 7.23209 22.4029 7.75953 22.3846C8.09938 22.3313 8.3487 22.5039 8.50749 22.9022C8.69552 23.2477 8.96926 24.1235 9.32871 25.5296C9.54115 26.5784 9.97236 29.007 10.6223 32.8156C11.3015 36.5714 11.8355 39.1259 12.2241 40.4792C12.7659 42.3656 12.7703 43.3854 12.2372 43.5385C12.0321 43.5974 11.7713 43.5391 11.4545 43.3637C11.126 43.1474 10.8588 42.758 10.6529 42.1956C10.488 41.6215 10.2344 40.4292 9.89192 38.6187C9.3545 35.6657 8.74052 32.4461 8.04997 28.9599C7.34155 25.2569 6.99301 23.2706 7.00435 23.001ZM11.188 22.1989C11.445 21.548 11.7198 21.1139 12.0126 20.8967C12.2935 20.6384 12.7269 20.4473 13.3128 20.3234C13.9925 20.217 14.4849 20.231 14.7898 20.3653C15.1358 20.4879 15.6111 20.9063 16.2157 21.6205C17.8416 23.4175 18.7547 24.6645 18.9549 25.3617C19.1552 26.0588 18.9957 27.281 18.4765 29.0282C18.0974 30.3357 17.8818 31.2854 17.8299 31.8775C17.8072 32.4167 17.9516 32.9967 18.2631 33.6175C19.6504 36.5928 20.4153 38.7924 20.5579 40.2164C20.7298 41.5876 20.2826 42.4263 19.2164 42.7325C17.8631 43.1212 16.7341 42.5133 15.8293 40.9087C14.9245 39.3041 14.6787 37.4436 15.0919 35.3274L15.4669 33.1554L13.8113 31.1006C12.2146 29.2508 11.2219 27.6493 10.8333 26.296C10.4328 24.9017 10.551 23.536 11.188 22.1989ZM14.265 22.2474C13.8837 22.0017 13.5905 21.9084 13.3855 21.9673C13.0164 22.0733 12.7592 22.5689 12.6139 23.454C12.4978 24.2864 12.5576 25.1127 12.7932 25.9329C13.0405 26.7941 13.5459 27.7809 14.3093 28.8934C15.061 29.9648 15.5804 30.4593 15.8674 30.3769C16.0315 30.3298 16.3499 29.6612 16.8229 28.3712L17.4531 26.3923L16.1757 24.4952C15.3067 23.3243 14.6698 22.575 14.265 22.2474ZM18.0222 37.4156C17.6283 36.5077 17.2878 36.095 17.0007 36.1774C16.5906 36.2952 16.5594 37.0366 16.9071 38.4017C17.2548 39.7668 17.6777 40.4666 18.1759 40.501C18.5393 40.5298 18.7001 40.2395 18.6582 39.63C18.6456 38.9678 18.4336 38.2296 18.0222 37.4156ZM23.0377 23.4566C24.0079 21.5798 24.8301 20.6556 25.5041 20.684C25.7209 20.6661 25.8647 20.7802 25.9353 21.0262C26.0178 21.3133 25.6528 22.2838 24.8405 23.9376C23.4025 26.659 23.2136 29.8651 24.2736 33.5558C24.5092 34.376 24.7651 35.035 25.0412 35.5328C25.3584 36.0188 25.643 36.3143 25.8952 36.4195C26.1883 36.5129 26.4549 36.4363 26.6948 36.1898C26.9758 35.9315 27.2243 35.4829 27.4402 34.8437C27.6562 34.2046 27.825 33.4015 27.9468 32.4343C28.0916 31.2385 27.9723 29.7412 27.5889 27.9425C27.2464 26.132 26.7816 24.8228 26.1944 24.0149C25.8245 23.4996 25.821 23.1011 26.184 22.8193C26.5762 22.4847 27.0539 22.525 27.6171 22.9404C28.2331 23.3849 28.7889 24.779 29.2844 27.1226C29.8092 29.4134 29.9671 31.2769 29.7581 32.7131C29.4623 34.9288 28.8696 36.4974 27.98 37.4188C27.0787 38.2991 26.0005 38.4091 24.7454 37.7485C24.2293 37.4972 23.845 37.1637 23.5924 36.748C23.3808 36.3204 23.0689 35.389 22.6566 33.9537C22.0206 31.7392 21.7366 29.8232 21.8047 28.2055C21.8728 26.5878 22.2838 25.0049 23.0377 23.4566Z" fill="#FAFCF7"/>
<path d="M33.085 31.9076C33.2089 31.2254 33.5358 31.2223 34.0655 31.8981C34.3333 32.2491 34.6079 32.6941 34.8894 33.2331C35.4491 34.421 35.6605 35.5758 35.5234 36.6976C35.3863 37.8194 34.9435 38.6667 34.1952 39.2396C33.8239 39.539 33.5601 39.7059 33.4038 39.74C33.2735 39.7685 33.0973 39.7114 32.8751 39.5689C32.2142 39.1673 32.3588 38.7673 33.309 38.3687C33.9579 38.0904 34.2971 37.4568 34.3267 36.4677C34.3767 35.4468 34.1014 34.3742 33.501 33.2498C33.1763 32.6383 33.0377 32.1909 33.085 31.9076ZM35.6003 25.3805C36.0929 25.1364 37.3422 24.7953 39.3482 24.3571C40.5002 24.1327 41.2671 24.0198 41.6489 24.0183C42.0251 23.9907 42.2302 24.0551 42.2643 24.2114C42.3212 24.4719 41.9227 24.7091 41.0686 24.923C40.5272 25.0685 39.2865 25.4487 37.3463 26.0636C36.5093 26.3556 35.8564 26.5528 35.3874 26.6553C34.9446 26.752 34.6596 26.7596 34.5327 26.6782C34.1517 26.4339 34.3106 26.0989 35.0092 25.6734L35.6003 25.3805Z" fill="#FAFCF7"/>
</svg>
