<svg width="99" height="99" viewBox="0 0 99 99" fill="none" xmlns="http://www.w3.org/2000/svg">
<path d="M61.2715 36.3467C70.8795 46.39 69.8681 72.0747 62.092 84.197" stroke="#36463B" stroke-width="0.5" stroke-miterlimit="10"/>
<path d="M38.2549 24.2482C23.4327 26.6957 13.3525 35.3902 11.2695 54.6216C11.447 63.1404 13.386 71.5746 19.7489 79.7992C21.5875 82.1757 23.8748 84.1803 26.4501 85.7083C35.693 91.1947 44.4671 92.0703 52.8695 89.2882C59.2726 87.1652 64.6676 82.7707 68.5792 77.2301C77.0217 65.2633 77.3265 52.6102 70.133 39.325C66.1579 32.1889 62.089 27.0472 52.8293 24.7046C48.0672 23.5011 43.0974 23.447 38.2516 24.2482H38.2549Z" fill="#FFCDD8" stroke="#36463B" stroke-miterlimit="10"/>
<path d="M41.8237 30.228C23.1804 36.0424 16.0573 52.7892 19.7478 79.799" stroke="#36463B" stroke-width="0.5" stroke-miterlimit="10"/>
<path d="M46.743 35.1938C29.9952 51.038 31.5122 69.8841 32.3461 88.6152" stroke="#36463B" stroke-width="0.5" stroke-miterlimit="10"/>
<path d="M49.8082 82.2734C49.1317 84.8189 48.4084 87.3678 47.6582 89.9166" stroke="#36463B" stroke-width="0.5" stroke-miterlimit="10"/>
<path d="M54.2124 42.5601C55.6826 55.6086 53.3685 68.9006 49.8086 82.2736" stroke="#36463B" stroke-width="0.5" stroke-miterlimit="10"/>
<path d="M63.1764 38.1079C71.6759 48.6752 64.8275 71.855 61.2676 85.2314" stroke="#36463B" stroke-width="0.5" stroke-miterlimit="10"/>
<path d="M53.3789 37.1548C53.7339 38.9498 54.0085 40.7516 54.2128 42.5601" stroke="#36463B" stroke-width="0.5" stroke-miterlimit="10"/>
<path d="M23.2174 62.9644C22.9796 65.8039 22.9863 68.4677 23.4183 70.8273C23.271 71.118 24.2053 71.9665 24.6373 71.909C29.453 72.3147 49.9817 67.7747 59.4557 67.795L60.2461 68.5049C60.802 68.843 61.1235 68.5827 60.8723 67.9979C61.7899 68.4373 62.088 67.5314 61.4216 67.4198C62.1784 67.1663 62.0578 66.4699 61.1235 66.6896C61.5789 66.3482 61.3512 65.6383 60.3064 66.3076L59.516 66.8046C55.8088 66.8586 50.3702 67.5652 44.6101 68.39C36.0604 69.9382 28.2775 71.1789 24.7679 70.6955C24.5938 70.7157 24.4364 70.5805 24.433 70.4014C23.9943 68.3967 24.0144 65.8918 24.2254 63.1807L23.214 62.9677L23.2174 62.9644Z" fill="#36463B"/>
<path d="M65.9302 62.4165C66.2283 65.2493 66.2785 67.9131 65.8967 70.2828C66.0508 70.5702 65.1332 71.4389 64.7012 71.3916C59.8955 71.9021 39.273 67.8049 29.8023 68.0314L29.0287 68.7582C28.4795 69.1098 28.1513 68.8563 28.3925 68.2647C27.4849 68.7244 27.1668 67.8252 27.8298 67.7002C27.0663 67.4635 27.1735 66.7638 28.1111 66.9632C27.649 66.6319 27.8633 65.9187 28.9216 66.5609L29.722 67.0376C33.4292 67.0105 38.8845 67.5987 44.658 68.3019C53.2379 69.6642 61.0442 70.7358 64.5438 70.178C64.7213 70.1949 64.872 70.0563 64.8753 69.8772C65.2705 67.8624 65.1968 65.3609 64.9289 62.6531L65.9336 62.4199L65.9302 62.4165Z" fill="#36463B"/>
<path d="M59.3451 31.9928C58.384 32.865 57.8951 34.0244 57.9888 35.5457C58.1462 37.4759 57.7913 38.5441 56.4584 37.939C55.9192 37.6956 55.4772 37.2731 55.1088 36.8066C53.7525 35.0825 52.2455 33.896 50.4337 33.7844C50.4806 33.4193 42.6375 34.7039 46.4686 31.4587C46.6997 31.2626 46.9777 31.124 47.2623 31.0192C49.5329 30.1944 50.5342 29.0924 50.8189 28.0478C51.0298 25.3975 52.1651 25.4212 53.6286 26.3846C55.1992 27.8517 56.7531 28.8557 58.2769 29.1228C60.7952 29.3189 61.2339 30.8603 59.3418 31.9894L59.3451 31.9928Z" stroke="#36463B" stroke-width="0.25" stroke-miterlimit="10"/>
<path d="M54.5097 27.9495C51.9377 27.8076 50.1896 28.7304 49.8179 31.4145C49.7308 32.4016 50.0724 33.1656 50.8996 33.676C51.9143 34.2406 52.986 34.5583 54.1078 34.6699C56.6798 34.7476 57.5974 33.6591 58.4446 32.5233C58.9771 31.2218 58.7795 30.228 58.0729 29.4471C56.7568 28.4363 55.6048 28.078 54.5097 27.9495Z" stroke="#36463B" stroke-width="0.5" stroke-miterlimit="10"/>
<path d="M54.0811 28.575C52.1856 28.4803 51.2814 29.268 51.4723 31.0326C51.7201 31.9014 52.1789 32.5065 52.8721 32.8175C53.6156 33.2671 54.4829 33.1623 55.4072 32.8175C56.5057 32.0839 57.008 31.3808 56.9712 30.6979C56.4387 29.099 55.3671 28.6122 54.0811 28.5784V28.575Z" stroke="#36463B" stroke-width="0.75" stroke-miterlimit="10"/>
<path d="M53.8399 28.7844C52.8553 29.1529 52.3061 30.1028 52.3027 31.1C52.5171 31.9857 53.0897 32.4049 53.8399 32.5908C54.5365 32.4928 55.0756 32.2528 55.4842 31.9012C56.231 31.2623 56.3783 30.0622 55.742 29.3118C55.3234 28.8182 54.7005 28.6289 53.8399 28.7878V28.7844Z" fill="#36463B"/>
<path d="M43.8967 58.766C42.2156 57.8803 40.5344 57.8837 38.8466 58.766C38.6792 59.0128 38.6792 59.3069 38.7193 59.6111C38.9102 60.7165 39.4159 61.6563 40.4139 62.3358C41.298 62.6738 42.1486 62.5657 42.9858 62.2073C43.7059 61.609 44.1144 60.6151 44.3354 59.3914C44.2953 59.1007 44.1345 58.9046 43.8967 58.766Z" fill="#36463B"/>
<path d="M39.4375 63.6504C39.7155 62.7647 38.6405 62.4368 38.2989 63.6504L38.0377 64.1574C37.321 64.8809 38.3458 65.7834 38.8347 64.7152C42.3644 64.6679 45.8808 65.0059 49.3871 65.6685C49.8258 66.4156 50.6864 66.0911 50.3315 65.1919L50.0234 64.5191C49.6315 63.5354 48.9517 63.8971 48.9818 64.6577C46.1152 63.9952 43.0041 63.5828 39.4375 63.647V63.6504Z" fill="#36463B"/>
<path d="M43.261 59.5772C41.6067 58.7186 40.5551 58.9282 39.7012 59.4859C39.815 60.2398 40.1432 60.8246 40.6489 61.2708C41.2115 61.7678 41.7976 61.7745 42.4004 61.3824C43.0936 60.8821 43.318 60.2635 43.261 59.5772Z" fill="white" stroke="#36463B" stroke-width="0.25" stroke-miterlimit="10"/>
<path d="M40.8123 59.0599C40.6984 59.5028 40.762 59.8678 41.1572 60.0876C41.3983 60.2093 41.6897 60.1822 42.0045 60.0876C42.2925 59.8509 42.3092 59.5197 42.2355 59.1546C41.8437 58.9653 41.3548 58.9619 40.8123 59.0565V59.0599Z" fill="#36463B"/>
<path d="M45.2228 58.8977C47.0346 58.0661 48.8028 58.2723 50.5275 59.3439C50.7719 59.5805 50.8188 59.8746 50.7485 60.2059C50.5609 61.4161 50.0017 62.4269 48.3775 62.8663C47.4029 63.032 46.6997 62.8393 46.117 62.4911C45.1223 62.1226 44.4358 59.2087 45.2228 58.9011" fill="#36463B"/>
<path d="M49.8076 59.9457C48.5485 59.2426 46.8573 59.1885 45.8526 59.6144C45.8392 60.4798 45.9464 60.9599 46.7267 61.5481C47.5404 61.8624 47.8284 61.7948 48.5485 61.5109C49.2417 61.0106 49.6938 60.6691 49.8043 59.9457H49.8076Z" fill="white" stroke="#36463B" stroke-width="0.25" stroke-miterlimit="10"/>
<path d="M43.6168 57.7416V57.2684C42.1734 57.2988 40.6664 56.4841 39.1393 55.4023L38.8145 55.7877C40.4621 56.9675 42.083 57.8261 43.6168 57.7416Z" fill="#36463B"/>
<path d="M45.5352 57.5014L45.649 58.0017C47.213 57.6299 48.7802 57.6941 50.3542 58.3431L50.5618 57.8597C48.807 57.1803 47.1359 57.0856 45.5352 57.5048V57.5014Z" fill="#36463B"/>
<path d="M47.447 59.4383C47.3332 59.8812 47.3968 60.2463 47.792 60.466C48.0331 60.5877 48.3244 60.5606 48.6392 60.466C48.9272 60.2294 48.944 59.8981 48.8703 59.533C48.4785 59.3437 47.9895 59.3403 47.447 59.435V59.4383Z" fill="#36463B"/>
<path d="M36.5289 90.4472L35.8223 97.7085C35.8892 98.5434 36.2509 98.9153 36.8001 98.9964H40.139C40.9494 99.0268 41.3245 98.5569 41.3881 97.7355V96.4475C41.214 95.6565 40.6581 95.3151 39.7338 95.4064L36.991 95.981L37.48 90.5824L36.5289 90.4438V90.4472Z" fill="#36463B"/>
<path d="M36.8276 97.0528L36.6367 97.8742H40.1196C40.2033 97.8742 40.2736 97.8066 40.2736 97.7187V96.6471C40.2736 96.5491 40.2033 96.4646 40.1062 96.4511C39.0814 96.3125 37.8825 96.495 36.8243 97.0528H36.8276Z" fill="white" stroke="#36463B" stroke-width="0.5" stroke-miterlimit="10"/>
<path d="M46.2383 90.4677L46.9449 97.7289C47.1726 98.5334 47.5979 98.8275 48.1505 98.8005L51.4257 98.1447C52.2294 98.0162 52.5041 97.4821 52.4069 96.664L52.1591 95.3997C51.8343 94.6594 51.2248 94.4296 50.334 94.7034L47.7553 95.8054L47.1961 90.4136L46.2383 90.4643V90.4677Z" fill="#36463B"/>
<path d="M47.8061 96.8872L47.7793 97.7323L51.1985 97.0494C51.2822 97.0325 51.3358 96.9514 51.3191 96.8669L51.1114 95.8156C51.0914 95.7209 51.0076 95.6499 50.9105 95.6567C49.8791 95.7209 48.7371 96.1367 47.8061 96.8906V96.8872Z" fill="white" stroke="#36463B" stroke-width="0.5" stroke-miterlimit="10"/>
</svg>
