<svg width="85" height="85" viewBox="0 0 85 85" fill="none" xmlns="http://www.w3.org/2000/svg">
<path d="M79.141 35.0899L77.8385 33.3862L26.0254 69.8376L26.8276 70.9289L29.0186 70.6561L79.141 35.0899Z" fill="#FFCDD8"/>
<path d="M25.43 53.8105L20.2832 57.3254H24.2511L26.6089 55.7377L25.43 53.8105Z" fill="#FFCDD8"/>
<path d="M10.1677 56.6784L9.46042 56.6406L8.6582 58.3414L9.33965 58.4604" fill="#FFCDD8"/>
<path d="M10.1677 56.6784L9.46042 56.6406L8.6582 58.3414L9.33965 58.4604" stroke="#32473A" stroke-width="0.5" stroke-miterlimit="10"/>
<path d="M12.6378 57.4967L10.1679 56.6782L9.33984 58.4603L12.3647 59.5081" fill="#FFCDD8"/>
<path d="M12.6378 57.4967L10.1679 56.6782L9.33984 58.4603L12.3647 59.5081" stroke="#32473A" stroke-width="0.5" stroke-miterlimit="10"/>
<path d="M38.6211 66.7321L40.5389 67.7799L42.1779 64.2593H39.639L38.6211 66.7321Z" fill="#FFCDD8"/>
<path d="M37.155 64.8716L35.0762 66.3344L51.5316 71.4368L52.2245 71.4049L52.9175 69.7041L37.155 64.8716Z" fill="#FFCDD8"/>
<path d="M11.2578 58.4604L32.5524 57.2036L50.4167 64.1955L28.2222 64.361L11.2578 58.4604Z" fill="#FFCDD8"/>
<path d="M72.4352 39.8442L64.9939 45.1063L43.9121 63.8094L51.0084 64.1142C56.6929 63.8211 61.7764 61.444 66.1728 56.6811L72.4352 39.8471V39.8442Z" fill="#FFCDD8" stroke="#32473A" stroke-width="0.5" stroke-miterlimit="10"/>
<path d="M66.1763 40.6396L26.8535 55.6132C32.5006 59.2063 40.5486 65.255 47.5989 63.1072C51.9665 61.6734 55.5175 59.4734 58.3468 56.5971C62.3723 53.4683 64.4885 47.3819 66.1763 40.6367V40.6396Z" fill="#FFCDD8"/>
<path d="M72.7396 38.9792L62.4805 66.2387L64.7721 67.002L75.9197 36.7153L72.7396 38.9792Z" fill="#FFCDD8"/>
<path d="M75.6463 71.6198L76.5261 69.7623L32.9335 56.6782L32.1543 58.4313L75.6463 71.6198Z" fill="#FFCDD8"/>
<path d="M9.65551 67.6146L17.9882 61.862L15.5902 60.6372L8.73828 65.5307L9.65551 67.6146Z" fill="#FFCDD8"/>
<path d="M66.1758 34.3677V41.5802L76.4579 34.3677H66.1758Z" fill="#FFCDD8"/>
<path d="M66.1758 35.0322H75.2071" stroke="#32473A" stroke-width="0.5" stroke-miterlimit="10"/>
<path d="M66.1758 34.3677H76.4579" stroke="#32473A" stroke-width="0.5" stroke-miterlimit="10"/>
<path d="M44.2539 59.8912L62.7968 65.6496L72.4348 39.8442L44.2539 59.8912Z" stroke="#32473A" stroke-width="0.75" stroke-miterlimit="10"/>
<path d="M77.6427 35.305C77.8952 35.305 78.0999 35.1139 78.0999 34.8783C78.0999 34.6427 77.8952 34.4517 77.6427 34.4517C77.3902 34.4517 77.1855 34.6427 77.1855 34.8783C77.1855 35.1139 77.3902 35.305 77.6427 35.305Z" stroke="#32473A" stroke-width="0.5" stroke-miterlimit="10"/>
<path d="M42.3673 60.5325C42.6198 60.5325 42.8245 60.3415 42.8245 60.1059C42.8245 59.8702 42.6198 59.6792 42.3673 59.6792C42.1148 59.6792 41.9102 59.8702 41.9102 60.1059C41.9102 60.3415 42.1148 60.5325 42.3673 60.5325Z" stroke="#32473A" stroke-width="0.5" stroke-miterlimit="10"/>
<path d="M31.9816 65.4115L28.2207 64.3608H33.6119" fill="#FFCDD8"/>
<path d="M31.9816 65.4115L28.2207 64.3608H33.6119" stroke="#32473A" stroke-width="0.25" stroke-miterlimit="10"/>
<path d="M34.9863 66.3402L37.1543 64.8716" stroke="#32473A" stroke-width="0.25" stroke-miterlimit="10"/>
<path d="M39.5176 60.4312L41.6539 58.9277" stroke="#32473A" stroke-width="0.5" stroke-miterlimit="10"/>
<path d="M42.0977 61.3859L44.3922 59.7925" stroke="#32473A" stroke-width="0.5" stroke-miterlimit="10"/>
<path d="M77.0564 36.7153C75.4146 41.9716 73.353 47.7329 70.7422 50.9255" stroke="#32473A" stroke-width="0.25" stroke-miterlimit="10"/>
<path d="M66.1756 56.8003C63.5016 59.514 59.6889 62.0769 55.373 63.4091" stroke="#32473A" stroke-width="0.5" stroke-miterlimit="10"/>
<path d="M37.8555 64.3666L51.4499 64.1982" stroke="#32473A" stroke-width="0.5" stroke-miterlimit="10"/>
<path d="M28.3343 64.361C21.0626 64.065 15.1222 62.1987 11.2578 58.4575L28.3343 64.361Z" fill="#FFCDD8"/>
<path d="M28.3343 64.361C21.0626 64.065 15.1222 62.1987 11.2578 58.4575" stroke="#32473A" stroke-width="0.5" stroke-miterlimit="10"/>
<path d="M46.358 64.2012C44.8254 64.3086 42.5281 63.3537 40.4492 62.4917" stroke="#32473A" stroke-width="0.5" stroke-miterlimit="10"/>
<path d="M38.1613 61.3858C37.1463 60.8517 35.907 59.9113 35.0703 59.1538" stroke="#32473A" stroke-width="0.25" stroke-miterlimit="10"/>
<path d="M32.5513 57.2036L10.4689 57.5287C10.0405 57.6419 10.0693 58.3588 10.5379 58.4604" fill="#FFCDD8"/>
<path d="M32.5513 57.2036L10.4689 57.5287C10.0405 57.6419 10.0693 58.3588 10.5379 58.4604" stroke="#32473A" stroke-width="0.5" stroke-miterlimit="10"/>
<path d="M3.34469 70.6156H2.87314L2.46484 70.0235L14.8632 61.2466" fill="#FFCDD8"/>
<path d="M3.34469 70.6156H2.87314L2.46484 70.0235L14.8632 61.2466" stroke="#32473A" stroke-width="0.5" stroke-miterlimit="10"/>
<path d="M2.46484 70.0233L3.19805 70.0117" stroke="#32473A" stroke-width="0.5" stroke-miterlimit="10"/>
<path d="M27.4706 70.848L26.7489 69.8989L26.0215 69.8467" stroke="#32473A" stroke-width="0.25" stroke-miterlimit="10"/>
<path d="M62.7969 65.6494L64.9936 66.2386" stroke="#32473A" stroke-width="0.25" stroke-miterlimit="10"/>
<path d="M24.25 57.3254L26.6078 55.7378" stroke="#32473A" stroke-width="0.5" stroke-miterlimit="10"/>
<path d="M25.43 53.8105L20.2832 57.3254" stroke="#32473A" stroke-width="0.5" stroke-miterlimit="10"/>
<path d="M64.9933 45.5649C63.3602 52.9458 58.2306 58.1266 51.0078 61.9897" stroke="#32473A" stroke-width="0.75" stroke-miterlimit="10"/>
<path d="M47.9311 63.1011C47.126 63.4958 44.8258 63.6351 43.0488 63.5248" stroke="#32473A" stroke-width="0.5" stroke-miterlimit="10"/>
<path d="M26.5656 55.6944C24.7225 53.4827 23.5292 50.6268 22.8507 47.26C22.635 46.1861 22.566 45.0832 22.6264 43.9919C23.4919 28.4059 33.8257 18.6886 44.5478 17.696C54.2088 17.3042 60.155 21.4372 63.9561 28.1824C66.2708 32.983 66.5065 37.2641 65.8883 41.3361" fill="#FFCDD8"/>
<path d="M26.5656 55.6944C24.7225 53.4827 23.5292 50.6268 22.8507 47.26C22.635 46.1861 22.566 45.0832 22.6264 43.9919C23.4919 28.4059 33.8257 18.6886 44.5478 17.696C54.2088 17.3042 60.155 21.4372 63.9561 28.1824C66.2708 32.983 66.5065 37.2641 65.8883 41.3361" stroke="#32473A" stroke-width="0.75" stroke-miterlimit="10"/>
<path d="M44.8557 40.6395C44.2548 40.2419 43.6021 40.7237 44.0736 41.4058C44.6861 42.0675 45.5573 42.4042 46.8569 42.2127C47.846 42.0966 47.6591 41.1939 46.8569 41.281C46.0921 41.4551 45.4308 41.22 44.8557 40.6395Z" fill="#36463B"/>
<path d="M40.5382 39.1623C39.9229 38.753 39.3219 39.0752 39.5491 39.6586C40.357 40.5612 41.2685 40.9182 42.249 40.9211C43.5716 40.8718 43.3531 39.8501 42.3956 39.9488C41.6768 40.0533 41.1247 39.8385 40.5411 39.1623H40.5382Z" fill="#36463B"/>
<path d="M39.483 41.673C40.337 40.8923 39.2731 40.3989 38.7757 41.2318L38.4076 41.673C37.453 42.1374 38.2466 43.0662 38.8217 42.3696C39.8396 44.0646 41.7689 45.0137 45.2365 44.7002C45.6304 45.6696 46.4441 44.6045 46.1192 44.4767L46.0387 43.786C45.8978 42.7498 44.9001 42.953 45.0697 43.8614C42.5999 44.2823 40.7453 43.5364 39.483 41.673Z" fill="#36463B"/>
<path d="M51.1204 20.1514C49.9559 20.3574 50.091 21.1266 51.1204 21.5997C52.9404 22.2701 53.5126 22.1743 53.7484 21.8696C54.6167 21.3762 53.0669 20.1514 51.1204 20.1514Z" fill="#36463B"/>
<path d="M15.2831 61.3887L3.19531 70.0146L3.47709 70.54C4.37994 70.3978 5.23678 70.3397 6.05337 70.3513L15.1537 63.8209" fill="#FFCDD8"/>
<path d="M15.2831 61.3887L3.19531 70.0146L3.47709 70.54C4.37994 70.3978 5.23678 70.3397 6.05337 70.3513L15.1537 63.8209" stroke="#32473A" stroke-width="0.5" stroke-miterlimit="10"/>
<path d="M76.9469 36.7646L75.8025 37.5947C73.8933 42.5404 72.1538 47.1437 70.9375 50.6788C73.3183 47.4107 75.2073 42.3634 76.944 36.7646H76.9469Z" fill="#FFCDD8" stroke="#32473A" stroke-width="0.25" stroke-miterlimit="10"/>
<path d="M39.1445 65.5479L39.6333 64.3057" stroke="#32473A" stroke-width="0.25" stroke-miterlimit="10"/>
<path d="M39.5098 65.6205L40.0302 64.3057" stroke="#32473A" stroke-width="0.25" stroke-miterlimit="10"/>
<path d="M41.4141 66.2097L42.1789 64.2593" stroke="#32473A" stroke-width="0.25" stroke-miterlimit="10"/>
<path d="M26.4096 57.3691C25.7023 57.7755 24.8454 58.5852 24.2617 59.5401L26.4096 57.3691Z" fill="#FFCDD8"/>
<path d="M26.4096 57.3691C25.7023 57.7755 24.8454 58.5852 24.2617 59.5401" stroke="#32473A" stroke-width="0.25" stroke-miterlimit="10"/>
<path d="M27.7068 58.2773C26.8729 58.3847 25.7458 59.1713 25.1621 60.1291L27.7068 58.2773Z" fill="#FFCDD8"/>
<path d="M27.7068 58.2773C26.8729 58.3847 25.7458 59.1713 25.1621 60.1291" stroke="#32473A" stroke-width="0.25" stroke-miterlimit="10"/>
<path d="M32.8999 57.0149C29.9067 56.8726 26.7065 56.6782 25.2545 58.1758C22.8421 60.5181 21.0393 64.3609 20.6396 67.2168C20.1565 68.3023 21.2262 68.7058 21.5856 68.0556C22.4683 64.4334 23.8542 61.3656 26.0193 59.1539C28.2879 57.4734 31.1431 57.8304 32.299 58.3587L10.4121 58.4603" fill="#FFCDD8"/>
<path d="M32.8999 57.0149C29.9067 56.8726 26.7065 56.6782 25.2545 58.1758C22.8421 60.5181 21.0393 64.3609 20.6396 67.2168C20.1565 68.3023 21.2262 68.7058 21.5856 68.0556C22.4683 64.4334 23.8542 61.3656 26.0193 59.1539C28.2879 57.4734 31.1431 57.8304 32.299 58.3587L10.4121 58.4603" stroke="#32473A" stroke-width="0.5" stroke-miterlimit="10"/>
<path d="M32.6746 57.0934L32.1541 58.0715C28.9252 57.2704 26.3345 58.4546 25.1154 59.8536L24.4512 59.4124C25.262 57.4329 27.6773 56.5187 32.6746 57.0934Z" fill="#FFCDD8"/>
<path d="M77.39 33.54H78.0226L79.2302 35.0667L75.7252 37.5512L64.9945 66.2386L76.5648 69.736L75.7999 71.4368H75.0696L42.1559 61.2639L37.1557 64.8716L52.9182 69.7041L52.2252 71.4049L51.5323 71.4368L35.0769 66.3344L29.0186 70.6561L26.8276 70.9289L26.0254 69.8376L39.5221 60.3206L32.3051 58.2483L33.0843 56.4952L41.6585 58.8171L77.39 33.54Z" stroke="#32473A" stroke-width="0.5" stroke-miterlimit="10"/>
<path d="M26.7923 30.3594L17.7178 29.4742C19.9692 31.5784 22.4449 33.6101 24.6962 35.0207L24.3656 36.022C21.8267 34.3938 18.6696 31.8483 15.7454 29.1346C15.5901 28.6673 15.7339 28.3945 16.214 28.3364C20.1216 28.4903 23.8653 28.8095 27.3703 29.3842L26.7952 30.3594H26.7923Z" fill="#36463B"/>
<path d="M31.6378 56.9511C27.1236 55.5463 22.7934 55.6508 20.818 56.2429C20.4902 56.3416 20.1912 56.4983 19.9324 56.7073C17.2843 58.8434 15.5246 62.1464 14.4118 66.2997C14.0783 67.1472 14.8633 67.5333 15.4182 66.915C16.8041 62.7501 18.2993 58.8144 20.956 57.2994C21.35 57.0759 21.7928 56.9453 22.2528 56.8988C23.0119 56.8205 24.1649 56.8001 27.5635 57.0991" fill="#36463B"/>
<path d="M32.8994 57.0151C28.2212 55.8309 28.7445 56.4955 26.7692 57.1021C26.4414 57.2008 26.1424 57.3634 25.8836 57.5781C23.2354 59.7666 21.4758 63.145 20.363 67.3999C20.0295 68.2677 20.8144 68.6624 21.3694 68.0326C22.2808 63.9112 25.645 59.2731 26.0245 59.1599C26.0245 59.1599 27.8791 58.1528 28.3363 58.1064C29.0953 58.028 28.9401 57.6217 32.1575 58.4372" fill="#36463B"/>
<path d="M66.1751 38.3379C70.3385 40.1287 68.5644 39.5047 74.2604 42.9527C75.7441 43.8496 76.0518 44.671 74.7809 44.9351L59.9213 47.5676C57.6641 47.5937 58.0207 46.4501 59.7832 46.334L73.7026 44.0063C70.3644 41.7743 69.3925 40.9414 66.1607 39.5598L66.1722 38.3379H66.1751Z" fill="#36463B"/>
</svg>
