<?xml version="1.0" encoding="UTF-8"?>
<svg id="Layer_1" data-name="Layer 1" xmlns="http://www.w3.org/2000/svg" xmlns:xlink="http://www.w3.org/1999/xlink" viewBox="0 0 436 159">
  <defs>
    <style>
      .cls-1 {
        mask: url(#mask);
      }

      .cls-2 {
        fill: #ffcdd8;
      }

      .cls-3 {
        mask: url(#mask-2);
      }

      .cls-4 {
        mask: url(#mask-1);
      }

      .cls-5 {
        fill: #fff;
      }
    </style>
    <mask id="mask" x="-48.91" y="-120.5" width="419.28" height="783.28" maskUnits="userSpaceOnUse">
      <g id="path-9-inside-1_903_3" data-name="path-9-inside-1 903 3">
        <path class="cls-5" d="M151.09,100.8v-21.3h2.52l7.17,18.8,7.07-18.8h2.52v21.3h-1.84v-18l-6.69,18h-1.94l-6.98-18v18h-1.84Z"/>
      </g>
    </mask>
    <mask id="mask-1" x="-24.68" y="-120.5" width="414.15" height="421.3" maskUnits="userSpaceOnUse">
      <g id="path-11-inside-2_903_3" data-name="path-11-inside-2 903 3">
        <path class="cls-5" d="M175.32,100.8v-21.3h13.86v1.8h-11.82v7.7h10.85v1.7h-10.85v8.3h12.11v1.8h-14.15Z"/>
      </g>
    </mask>
    <mask id="mask-2" x="-6.76" y="-120.51" width="416.47" height="421.41" maskUnits="userSpaceOnUse">
      <g id="path-13-inside-3_903_3" data-name="path-13-inside-3 903 3">
        <path class="cls-5" d="M193.24,100.8v-21.3h6.49c3.68,0,4.85.2,6.2,1.2,2.42,1.7,3.78,4.9,3.78,9.3,0,4.7-1.45,8.2-4.17,9.8-1.26.8-2.62,1.1-5.23,1.1h-7.07v-.1ZM195.38,99h4.75c2.62,0,3.68-.3,4.85-1.2,1.74-1.4,2.71-4.4,2.71-7.9,0-3.8-1.16-6.7-3.29-7.8-1.07-.6-1.84-.7-4.46-.7h-4.46v17.6h-.1Z"/>
      </g>
    </mask>
  </defs>
  <path class="cls-2" d="M69.06,32.06c-6.41,11.41-13.44,22.42-20.43,33.46-6.95,10.99-13.51,22.19-20.21,33.34-1.55,2.6-3.06,5.24-4.72,7.74-.88,1.31-1.8,2.57-2.81,3.76-.29.35-1.12,1.5-1.42,1.59.54-.16-1.35-.63-1.35-.63-5.22-1.73-6.41-9.63-6.56-14.36-.36-12.88-.45-26.12,1.46-38.91,1.12-7.37,3.08-14.71,5.49-21.75,2.27-6.64,5.82-12.7,8.65-19.08.61-1.36-1.28-.4-1.71-.14-1.21.72-2.72,1.96-3.33,3.34-2.83,6.38-6.38,12.44-8.65,19.08-2.25,6.62-4.16,13.47-5.37,20.37-1.28,7.27-1.66,14.71-1.84,22.07-.18,7.04-.4,14.26.16,21.3.36,4.54,2.32,11.76,7.35,12.86,5.01,1.08,9.73-5.43,12.36-8.91,4.18-5.49,7.53-11.78,10.99-17.77,3.75-6.45,7.62-12.86,11.58-19.2,8.59-13.7,17.42-27.24,25.38-41.36.76-1.33-1.37-.35-1.71-.14-1.28.77-2.54,1.96-3.3,3.32Z"/>
  <path class="cls-2" d="M69.06,84.37c-2.54,5.68-6.16,11.25-7.13,17.54-.36,2.36-.38,5.64,1.84,7.08,1.93,1.26,4.59.54,6.52-.33,5.93-2.69,10.61-8.18,14.52-13.35,2.11-2.78,4.14-5.64,6.41-8.28,1.71-2.01,3.66-4.91,6.29-5.52-.22-.09-.47-.21-.7-.3.99,4.7-2.23,9.26-3.75,13.47-1.39,3.83-3.48,8.93-2.72,13.05.22,1.22,2.92-1.03,3.21-1.29,3.24-2.95,4.14-6.64,5.53-10.71.72-2.08,1.66-4.16,2.67-6.1.68-1.29,1.44-2.6,2.4-3.69.43-.47,0-.07-.09.02.2-.16.43-.33.63-.47,2.36-1.68,6.14-4.42,9.13-4.35,3.75.09-.49,6.36-1.3,7.83-1.8,3.37-3.08,7.41-3.87,11.15-.56,2.67-.94,6.41,1.75,8,4.63,2.74,11.89-4,15.06-6.73,5.44-4.7,10.27-10.12,14.88-15.67.56-.68,1.39-1.71.16-1.78-1.15-.05-3.08,2.03-3.73,2.83-3.66,4.42-7.49,8.82-11.76,12.63-2.7,2.39-10.66,8.25-11.47.8-.45-4.05,1.6-8.7,3.06-12.35,1.15-2.92,4.27-6.27,4.07-9.56-.32-5.52-12.97,2.76-14.72,3.98-3.8,2.62-6.83,6.01-9.04,10.17-1.19,2.22-2.25,4.61-3.03,7.01-.38,1.17-.72,2.34-1.12,3.51-.16.44-.31.89-.49,1.33-.31.77-1.46,2.22.13.77,1.08-.42,2.14-.87,3.21-1.29-.79-4.21,1.37-9.66,2.94-13.49,1.62-3.93,4.45-8.58,3.51-13.02-.09-.42-.29-.4-.7-.3-5.13,1.17-9.4,6.15-12.77,10.03-4.11,4.72-7.42,10.24-11.78,14.71-1.78,1.82-4.2,3.81-6.9,3.18-2.88-.68-3.12-3.97-2.81-6.55.79-6.15,4.45-11.6,6.92-17.12.61-1.36-1.28-.4-1.71-.14-1.17.68-2.68,1.92-3.28,3.3Z"/>
  <path class="cls-2" d="M343.3,78.09c2.21.97-1.1,9.25-1.56,10.77-.74,2.43-1.51,4.86-2.14,7.33-.44,1.74-1.07,3.76-.76,5.56.23,1.4,3.96-2.28,4.25-2.68,2.21-2.86,3.56-6.02,4.61-9.46,1.01-3.28,1.82-7.38,4.18-10,1.47-1.64,8.97-7.31,10.02-3.09.67,2.71-1.38,5.94-2.54,8.21-1.43,2.81-3,5.69-3.48,8.83-.42,2.68.39,6.26,3.12,7.4,2.73,1.12,5.88-.8,8.1-2.3,7.96-5.4,14.25-13.36,20.05-20.98.5-.66,1.31-1.77.07-1.72-1.18.07-2.9,2.09-3.55,2.93-2.79,3.68-5.65,7.34-8.84,10.68-2.2,2.29-4.91,5.34-7.95,6.51-3.41,1.31-5.96-1.52-6.11-4.88-.13-3.32,1.67-6.47,3.12-9.35,1.13-2.23,6.25-12.21.13-11.67-2.46.21-4.85,1.75-6.9,3.07-2.24,1.44-4.43,3.08-6.34,4.92-3.08,2.97-5.23,6.5-6.6,10.55-1.31,3.86-2.05,8.23-4.59,11.53,1.42-.9,2.82-1.79,4.25-2.68-.29-1.81.31-3.82.76-5.56.71-2.68,1.57-5.34,2.35-8,.47-1.6,3.65-9.54,1.21-10.61-1.64-.67-5.31,4.5-4.86,4.7Z"/>
  <path class="cls-2" d="M80.21,59.56c-.67.26-1.33.51-2,.77.22.09.47.21.7.3.02-.07.02-.12.04-.16-.04.14-.09.26-.13.4.04-.16.11-.3.2-.44-.09.16-.2.33-.29.49.07-.09.13-.19.2-.28-.13.19-.29.37-.43.56.07-.09.13-.16.2-.26-.18.21-.38.4-.56.61.09-.09.18-.19.27-.28-.22.21-.45.42-.67.63.13-.12.27-.23.4-.35-.22.19-.47.37-.7.58.58-.47,1.19-.87,1.8-1.31.7-.54,1.37-1.12,1.93-1.8.22-.26.43-.51.58-.82.13-.19.22-.4.27-.63-.02-.09-.04-.19-.07-.26-.2-.14-.4-.16-.63-.05-.65.19-1.28.61-1.8,1.03-.29.23-.63.44-.92.68-.58.42-1.12.84-1.69,1.31-.9.77-1.71,1.61-2.43,2.57-.4.51-.72,1.15-.85,1.8-.09.44.49.4.7.3.67-.26,1.33-.51,2-.77.65-.26,1.24-.61,1.8-1.03.36-.28.72-.56,1.03-.89.31-.28.61-.58.9-.91.13-.19.29-.37.43-.56.2-.26.34-.56.4-.89-.02-.09-.04-.19-.07-.26-.18-.19-.38-.21-.63-.09Z"/>
  <path class="cls-2" d="M232.55,50.59c-1.89,7.61-.92,15.76-.45,23.45.23,3.82.44,7.65.24,11.48-.1,1.57-.24,3.14-.58,4.68-.18.79-.41,1.56-.72,2.3-.39.97-.9,1.04.27.21.59-.13,1.18-.23,1.76-.36-.23-1.02-.45-2.06-.46-3.12-.02-2.64,1.17-1.29-2.61,1.54-.5.24-.97.47-1.46.69,1-.2-.27,3.92-.35,4.14,1.6-1.13,3.17-2.28,4.76-3.42,3.32-11.81,4.12-24.11,6.43-36.13,1.03-5.37,2.34-10.99,5.1-15.73,2.45-4.26,6.6-6.38,11.4-6.23,7.58.23,14.49,5.48,19.38,11.16,5,5.81,7.75,13.39,8,21.19.2,6.35-.59,13.07-3.45,18.81-2.31,4.6-5.99,8.04-9.67,11.44-5.2,4.78-9.93,9.87-16.29,12.97-4.49,2.18-9.29,3.21-14.12,4.26-1.33.29-2.48,1.44-3.38,2.46-.17.19-1.9,2.6-.96,2.45.37-.04.72-.11,1.09-.16,1.44-1.63,2.9-3.28,4.34-4.91-2.77.42-6.15.79-8.79-.5-.74-.37-1.54-.9-1.91-1.7-.22-.49-.29-.95-.23-1.48.03-.32.12-.63.29-.91.52-1.07-.05-.59-1.73,1.46.38.05,1.74-.8,2.11-.93,1.21-.42,2.47-.73,3.74-.96,3.27-.61,6.59-.72,9.88-.97,5.79-.42,11.64-1.15,17.07-3.43,6.23-2.61,11.52-6.98,16.02-12.12.42-.49,1.82-1.95.96-2.45-.75-.44-3.02,2.07-3.38,2.46-5.42,6.17-12.59,9.02-20.4,10.07-6.58.88-13.38.47-19.8,2.49-3.97,1.25-8.36,4.19-9.55,8.63-1.69,6.29,8.03,5.74,11.35,5.24,1.31-.19,2.52-1.49,3.38-2.46.17-.19,1.9-2.6.96-2.45-.37.05-.72.11-1.09.16-1.44,1.63-2.9,3.28-4.34,4.91,4.71-1,9.44-1.95,13.88-3.95,7.07-3.17,12.44-7.95,18.1-13.24,4.59-4.3,9.43-8.37,13.27-13.45,3.87-5.09,6.29-10.96,7.16-17.38,1.16-8.55.2-17.44-4.01-24.97-4.03-7.22-11.15-13.57-18.93-15.88-12.56-3.72-23.44,7.68-27.53,19.1-5.34,14.9-4.88,31.33-9.15,46.55-.37,1.36,1.16.39,1.68.04,1.15-.78,2.56-2.09,3.09-3.47.61-1.58,2.12-7.05-1.24-5.1-3.77,2.18-4.49,5.45-3.58,9.48.17.82,1.45-.11,1.76-.36,7.06-5.16,7.73-12.97,7.45-21.3-.31-9.36-2.1-19.32.2-28.54.26-1.03-2.3.76-2.4.86-1.01.91-2.23,2.07-2.56,3.42Z"/>
  <path class="cls-2" d="M319.3,70.81c-2.86,1.52-5.78,2.88-8.39,4.86-2.49,1.89-4.61,4.33-6.74,6.64-3.21,3.46-6.74,7.88-6.05,13.07.74,5.61,6.5,3.51,9.58,1.26,4.9-3.55,7.85-8.79,11.4-13.63,2.52-3.44,6.36-8.37,5.98-12.95-.11-1.47-4.11,2.13-4.43,2.53-2.92,3.6-3.06,9.03-3.67,13.47-.43,3.16-.79,6.62.65,9.56,1.35,2.74,3.89,4.19,6.77,3.53,2.95-.65,5.8-2.57,8.2-4.37,2.86-2.13,5.58-4.75,7.58-7.76,2.43-3.62,4.34-8.65,6.72-11.71.52-.65,1.44-1.75.16-1.78-1.17,0-3.08,1.99-3.73,2.83-4.54,5.82-6.81,16.65-15.04,18.17-2.65.49-4.79-1.64-5.76-4.02-1.06-2.67-.67-5.71-.29-8.46.25-1.8.47-3.6.76-5.38.18-1.1.38-2.17.65-3.25.11-.49.29-.96.43-1.45.07-.21.63-1.12.11-.49-1.48.84-2.94,1.68-4.43,2.53.29,3.55-2.38,7.44-4.34,10.12-1.64,2.24-3.17,4.56-4.79,6.83-1.15,1.61-2.11,3.37-4.25,3.39-4.14.05-3.33-6.08-2.09-8.6,1.21-2.5,3.35-4.33,5.17-6.34,1.96-2.13,4.47-3.13,6.97-4.44,1.35-.72,2.81-1.82,3.66-3.18.58-.94.38-1.59-.81-.96Z"/>
  <path class="cls-2" d="M311.77,76.12c-7.66,2.7-15.05,6.51-22.42,9.98-2.45,1.14-5.01,2.19-7.31,3.63-4.34,2.69-8.51,5.68-12.71,8.6-1.03.71-2.95,2.08-3.19,3.43-.24,1.3,1.07.51,1.71.07,3.96-2.77,7.86-5.7,12.01-8.15,2.17-1.29,4.54-2.26,6.83-3.33,7.03-3.29,14.1-6.93,21.4-9.52,1.39-.5,2.71-1.77,3.61-2.94.28-.4,1.44-2.25.07-1.75Z"/>
  <path class="cls-2" d="M400.31,69.41c-.58-2.86.03-5.7-.38-8.52-.3-2-1.5-1.77-3.07-1.01-4.56,2.21-7.66,7.7-9.84,12.17-.92,1.89-2.3,4.32-2.46,6.49-.2,2.72,2.25,5.4,3.84,7.3,3.96,4.76,7.37,8.69,8.92,14.98,1.46,5.93.61,12.85-2,18.31-1.52,3.15-7.73,11.61-10.66,4.99-1.96-4.47.67-10.58,2.79-14.43,2.93-5.32,6.95-10.02,11.2-14.25,4.93-4.92,10.29-9.26,15.56-13.76,5.18-4.45,9.92-9.33,15.19-13.6.49-.4,2.98-2.57,2.57-3.37-.46-.89-1.92.44-2.4.86-5.02,4.07-9.53,8.69-14.43,12.93-4.84,4.18-9.8,8.2-14.47,12.59-8.43,7.86-18.05,17.77-20.97,29.57-.81,3.24-1.39,8.95,2.41,10.39,4.38,1.64,9.47-3.65,12.12-6.59,8-8.85,11.08-21.5,6.48-32.82-1.31-3.23-3.35-5.79-5.59-8.34-1.91-2.18-5.82-5.71-5.6-8.96.1-1.57,1.18-3.4,1.83-4.82.5-1.11,1.77-4.4,2.84-5.06.66-.41.51-.4.74.64.14.57.04,1.7.04,2.22,0,2.14-.1,4.21.33,6.32.25,1.02,5.33-2.62,5.01-4.23Z"/>
  <path class="cls-2" d="M151.09,100.8v-21.3h2.52l7.17,18.8,7.07-18.8h2.52v21.3h-1.84v-18l-6.69,18h-1.94l-6.98-18v18h-1.84Z"/>
  <g class="cls-1">
    <path class="cls-2" d="M151.09,100.8H-48.91v200h200V100.8ZM151.09,79.5V-120.5H-48.91V79.5h200ZM153.61,79.5L340.48,8.22l-49.1-128.72h-137.77V79.5ZM160.78,98.3L-26.08,169.58l188.14,493.2,185.91-494.04-187.18-70.44ZM167.86,79.5V-120.5H29.43L-19.33,9.06l187.18,70.44ZM170.38,79.5h200V-120.5h-200V79.5ZM170.38,100.8v200h200V100.8h-200ZM168.54,100.8H-31.47v200h200V100.8ZM168.54,82.8h200L-18.95,13.15l187.48,69.65ZM161.85,100.8v200h139.05l48.43-130.35-187.48-69.65ZM159.91,100.8L-26.57,173.09l49.51,127.71h136.97V100.8ZM152.93,82.8L339.41,10.51-47.07,82.8h200ZM152.93,100.8v200h200V100.8h-200ZM151.09,100.8h200v-21.3H-48.91v21.3h200ZM151.09,79.5v200h2.52V-120.5h-2.52V79.5ZM153.61,79.5L-33.25,150.78l7.17,18.8,186.87-71.28L347.65,27.01l-7.17-18.8-186.87,71.28ZM160.78,98.3l187.18,70.44,7.07-18.8-187.19-70.44L-19.33,9.06l-7.07,18.8,187.19,70.44ZM167.86,79.5v200h2.52V-120.5h-2.52V79.5ZM170.38,79.5H-29.62v21.3h400v-21.3h-200ZM170.38,100.8V-99.2h-1.84v400h1.84V100.8ZM168.54,100.8h200v-18H-31.47v18h200ZM168.54,82.8L-18.95,13.15l-6.69,18,187.48,69.65,187.48,69.65,6.69-18-187.48-69.65ZM161.85,100.8V-99.2h-1.94v400h1.94V100.8ZM159.91,100.8L346.39,28.51l-6.98-18-186.48,72.29L-33.54,155.09l6.98,18,186.48-72.29ZM152.93,82.8H-47.07v18h400v-18h-200ZM152.93,100.8V-99.2h-1.84v400h1.84V100.8Z"/>
  </g>
  <path class="cls-2" d="M175.32,100.8v-21.3h13.86v1.8h-11.82v7.7h10.85v1.7h-10.85v8.3h12.11v1.8h-14.15Z"/>
  <g class="cls-4">
    <path class="cls-2" d="M175.32,100.8H-24.68v200h200V100.8ZM175.32,79.5V-120.5H-24.68V79.5h200ZM189.17,79.5h200V-120.5h-200V79.5ZM189.17,81.3v200h200V81.3h-200ZM177.35,81.3V-118.7H-22.65V81.3h200ZM177.35,89H-22.65v200h200V89ZM188.21,89h200V-111h-200V89ZM188.21,90.7v200h200V90.7h-200ZM177.35,90.7V-109.3H-22.65V90.7h200ZM177.35,99H-22.65v200h200V99ZM189.46,99h200V-101h-200V99ZM189.46,100.8v200h200V100.8h-200ZM175.32,100.8h200v-21.3H-24.68v21.3h200ZM175.32,79.5v200h13.86V-120.5h-13.86V79.5ZM189.17,79.5H-10.83v1.8h400v-1.8h-200ZM189.17,81.3V-118.7h-11.82v400h11.82V81.3ZM177.35,81.3H-22.65v7.7h400v-7.7h-200ZM177.35,89v200h10.85V-111h-10.85V89ZM188.21,89H-11.79v1.7h400v-1.7h-200ZM188.21,90.7V-109.3h-10.85v400h10.85V90.7ZM177.35,90.7H-22.65v8.3h400v-8.3h-200ZM177.35,99v200h12.11V-101h-12.11V99ZM189.46,99H-10.54v1.8h400v-1.8h-200ZM189.46,100.8V-99.2h-14.15v400h14.15V100.8Z"/>
  </g>
  <path class="cls-2" d="M193.24,100.8v-21.3h6.49c3.68,0,4.85.2,6.2,1.2,2.42,1.7,3.78,4.9,3.78,9.3,0,4.7-1.45,8.2-4.17,9.8-1.26.8-2.62,1.1-5.23,1.1h-7.07v-.1ZM195.38,99h4.75c2.62,0,3.68-.3,4.85-1.2,1.74-1.4,2.71-4.4,2.71-7.9,0-3.8-1.16-6.7-3.29-7.8-1.07-.6-1.84-.7-4.46-.7h-4.46v17.6h-.1Z"/>
  <g class="cls-3">
    <path class="cls-2" d="M193.24,79.5V-120.5H-6.76V79.5h200ZM205.94,80.7l-118.66,161,1.88,1.38,1.91,1.34,114.88-163.72ZM205.55,99.8L103.97-72.48l-2.84,1.68-2.79,1.77,107.21,168.84ZM193.24,100.9H-6.76v200h200V100.9ZM204.97,97.8l122.4,158.17,1.4-1.08,1.38-1.11-125.18-155.98ZM204.39,82.1l-98.1,174.29,3.17,1.78,3.23,1.67,91.7-177.74ZM195.47,81.4V-118.6H-4.53V81.4h200ZM195.47,99v200h200V99h-200ZM193.24,100.8h200v-21.3H-6.76v21.3h200ZM193.24,79.5v200h6.49V-120.5h-6.49V79.5ZM199.74,79.5v200c-.39,0-3.7,0-8.26-.23-4.51-.24-13.64-.88-25.11-3.06-12.41-2.36-27.14-6.43-42.91-13.46-15.68-6.99-27.79-14.87-36.18-21.05l118.66-161,118.66-161c-22.99-16.95-51.09-30.29-83.54-36.46-21.66-4.12-40.29-3.74-41.32-3.74V79.5ZM205.94,80.7l-114.88,163.72C20.01,194.56,9.72,121.57,9.72,90h400c0-40.37-13.01-119.76-88.9-173.02l-114.87,163.72ZM209.72,90H9.72c0-25.78,7.81-111.52,94.25-162.48l101.58,172.28,101.58,172.28c91.86-54.17,102.58-146.9,102.58-182.08h-200ZM205.55,99.8L98.34-69.04c19.65-12.48,41.26-21.21,63.54-25.95,18.8-3.99,33.58-4.12,38.44-4.12v400c17.6,0,64.08-1.55,112.44-32.26l-107.21-168.84ZM200.32,100.9V-99.1h-7.07v400h7.07V100.9ZM193.24,100.9h200v-.1H-6.76v.1h200ZM195.38,99v200h4.75V-101h-4.75V99ZM200.12,99v200c6.25,0,27.01-.02,52.16-6.4,31.55-8.01,56.54-22.27,75.09-36.63l-122.4-158.17L82.56-60.37c17.39-13.46,41.26-27.12,71.34-34.75,23.67-6.01,42.59-5.88,46.22-5.88V99ZM204.97,97.8l125.18,155.98c73.44-58.94,77.53-140.1,77.53-163.88H7.68c0-15.64,2.04-36.24,9.82-59.28,7.21-21.34,23.97-58.05,62.29-88.8l125.18,155.98ZM207.68,89.9h200c0-25.27-6.08-131.1-111.59-185.54l-91.7,177.74-91.7,177.74c-51.5-26.57-78.14-68.33-90.47-97.93-12.16-29.18-14.53-55.1-14.53-72.01h200ZM204.39,82.1l98.1-174.29c-51.09-28.76-100.12-26.41-102.55-26.41v400c-.17,0-2.86,0-6.54-.14-3.67-.15-11.27-.56-20.87-2.03-10.44-1.6-22.69-4.34-35.95-9.06-13.09-4.66-23.37-9.89-30.27-13.77l98.1-174.29ZM199.93,81.4V-118.6h-4.46v400h4.46V81.4ZM195.47,81.4H-4.53v17.6h400v-17.6h-200ZM195.47,99V-101h-.1v400h.1V99Z"/>
  </g>
</svg>