<svg width="553" height="159" viewBox="0 0 553 159" fill="none" xmlns="http://www.w3.org/2000/svg">
<path d="M69.06 32.0635C62.6533 43.4741 55.6172 54.4872 48.626 65.5237C41.6798 76.5134 35.1157 87.7136 28.4168 98.8669C26.8657 101.462 25.3596 104.105 23.6961 106.606C22.8194 107.916 21.8977 109.179 20.8861 110.371C20.5939 110.722 19.7621 111.868 19.4699 111.961C20.0094 111.797 18.1211 111.33 18.1211 111.33C12.9058 109.599 11.7144 101.696 11.557 96.973C11.1974 84.0893 11.1074 70.8549 13.0182 58.0647C14.1422 50.6993 16.0979 43.3572 18.5033 36.3191C20.7737 29.6785 24.3255 23.6225 27.1579 17.2391C27.7649 15.883 25.8766 16.8416 25.4495 17.0988C24.2356 17.8237 22.7294 19.063 22.1225 20.4425C19.29 26.8259 15.7383 32.8819 13.4678 39.5225C11.2198 46.1397 9.30907 52.9908 8.09516 59.8885C6.81382 67.1605 6.43167 74.5961 6.25183 81.9615C6.07199 88.9996 5.8472 96.2247 6.40919 103.263C6.76886 107.799 8.72459 115.024 13.76 116.123C18.773 117.199 23.4937 110.698 26.1239 107.214C30.3051 101.72 33.6546 95.4297 37.1164 89.4438C40.8705 82.9903 44.737 76.5835 48.6935 70.2469C57.2807 56.5449 66.1152 43.0065 74.073 28.8835C74.8373 27.5508 72.7017 28.5328 72.3646 28.7433C71.0832 29.5149 69.8244 30.7074 69.06 32.0635Z" fill="#FFCDD8"/>
<path d="M69.0602 84.3699C66.52 90.0518 62.9008 95.6168 61.9342 101.907C61.5745 104.268 61.552 107.542 63.7775 108.991C65.7108 110.254 68.3634 109.529 70.2966 108.664C76.2313 105.975 80.907 100.48 84.8185 95.3128C86.9316 92.5303 88.9548 89.6777 91.2252 87.0354C92.9337 85.0246 94.8894 82.1252 97.5195 81.5172C97.2947 81.4237 97.0474 81.3068 96.8226 81.2132C97.8117 85.9131 94.5972 90.4727 93.0685 94.6815C91.6748 98.5162 89.5842 103.614 90.3485 107.729C90.5733 108.945 93.2708 106.7 93.5631 106.443C96.8002 103.497 97.6993 99.8022 99.0931 95.7337C99.8124 93.6527 100.757 91.5716 101.768 89.6309C102.443 88.3449 103.207 87.0354 104.173 85.9365C104.601 85.4688 104.173 85.8663 104.084 85.9599C104.286 85.7962 104.511 85.6325 104.713 85.4922C107.073 83.8087 110.85 81.073 113.84 81.1431C117.594 81.2366 113.345 87.5031 112.536 88.9762C110.738 92.3432 109.456 96.3884 108.669 100.13C108.107 102.795 107.725 106.536 110.423 108.126C115.054 110.862 122.315 104.128 125.484 101.392C130.924 96.6924 135.757 91.2677 140.366 85.726C140.928 85.048 141.76 84.0191 140.523 83.949C139.377 83.9022 137.443 85.9832 136.791 86.7782C133.127 91.1975 129.306 95.5934 125.035 99.4047C122.337 101.79 114.379 107.659 113.57 100.2C113.12 96.1546 115.166 91.5015 116.627 87.8538C117.774 84.931 120.898 81.5874 120.696 78.2904C120.381 72.7722 107.725 81.0496 105.972 82.2654C102.173 84.8843 99.138 88.2747 96.935 92.4368C95.7436 94.6581 94.6871 97.0431 93.9003 99.4515C93.5181 100.621 93.1809 101.79 92.7763 102.959C92.6189 103.403 92.4616 103.847 92.2817 104.292C91.967 105.063 90.8206 106.513 92.4166 105.063C93.4956 104.642 94.5522 104.198 95.6312 103.777C94.8444 99.5684 97.0025 94.1203 98.576 90.2856C100.195 86.3574 103.027 81.7043 102.083 77.2616C101.993 76.8407 101.791 76.8641 101.386 76.9577C96.2606 78.1268 91.9895 83.1072 88.6176 86.9887C84.5038 91.7119 81.1993 97.2302 76.8382 101.696C75.0623 103.52 72.6345 105.508 69.9369 104.876C67.0595 104.198 66.8123 100.901 67.127 98.3291C67.9138 92.1796 71.578 86.7315 74.0507 81.2132C74.6577 79.8571 72.7694 80.8157 72.3423 81.0729C71.1733 81.751 69.6672 82.9903 69.0602 84.3699Z" fill="#FFCDD8"/>
<path d="M343.302 78.0878C345.513 79.06 342.201 87.3399 341.745 88.853C341.003 91.2838 340.238 93.7159 339.609 96.185C339.165 97.9226 338.535 99.9415 338.851 101.747C339.08 103.152 342.808 99.4629 343.099 99.0628C345.311 96.2071 346.662 93.0422 347.708 89.6027C348.718 86.3229 349.53 82.2218 351.888 79.6051C353.362 77.964 360.862 72.2953 361.905 76.5116C362.58 79.2186 360.521 82.4481 359.369 84.723C357.934 87.5326 356.369 90.4175 355.886 93.5535C355.468 96.2352 356.277 99.8124 359.009 100.956C361.74 102.078 364.891 100.157 367.107 98.6522C375.067 93.249 381.357 85.2878 387.153 77.6712C387.653 77.0111 388.464 75.9047 387.22 75.956C386.043 76.0257 384.322 78.0418 383.675 78.8907C380.882 82.569 378.021 86.2287 374.831 89.5702C372.634 91.8621 369.919 94.9053 366.884 96.076C363.478 97.3813 360.926 94.5605 360.774 91.192C360.646 87.8671 362.442 84.7209 363.897 81.8425C365.028 79.6138 370.144 69.6283 364.026 70.1713C361.565 70.3848 359.173 71.9227 357.125 73.2375C354.884 74.6764 352.697 76.3147 350.789 78.1617C347.714 81.1361 345.559 84.6639 344.187 88.7082C342.873 92.5689 342.142 96.9354 339.597 100.239C341.02 99.3437 342.421 98.45 343.845 97.555C343.551 95.7486 344.158 93.7311 344.603 91.9935C345.31 89.3171 346.174 86.6539 346.949 83.996C347.423 82.3918 350.597 74.4578 348.158 73.3865C346.52 72.7181 342.847 77.8897 343.302 78.0878Z" fill="#FFCDD8"/>
<path d="M80.2101 59.5612C79.5357 59.8184 78.8838 60.0756 78.2094 60.3328C78.4342 60.4264 78.6815 60.5433 78.9063 60.6368C78.9288 60.5667 78.9288 60.5199 78.9513 60.4731C78.9063 60.6134 78.8613 60.7303 78.8164 60.8706C78.8613 60.7069 78.9288 60.5667 79.0187 60.4264C78.9288 60.59 78.8164 60.7537 78.7265 60.9174C78.7939 60.8239 78.8613 60.7303 78.9288 60.6368C78.7939 60.8239 78.6365 61.0109 78.5017 61.198C78.5691 61.1044 78.6365 61.0343 78.704 60.9408C78.5241 61.1512 78.3218 61.3383 78.142 61.5487C78.2319 61.4552 78.3218 61.3617 78.4117 61.2681C78.187 61.4786 77.9622 61.689 77.7374 61.8994C77.8722 61.7825 78.0071 61.6656 78.142 61.5487C77.9172 61.7358 77.6699 61.9228 77.4451 62.1333C78.0296 61.6656 78.6365 61.2681 79.2435 60.8239C79.9404 60.2861 80.6148 59.7015 81.1767 59.0234C81.4015 58.7662 81.6039 58.509 81.7612 58.205C81.8961 58.018 81.986 57.8075 82.031 57.5737C82.0085 57.4802 81.986 57.3867 81.9635 57.3165C81.7612 57.1762 81.5589 57.1528 81.3341 57.2697C80.6822 57.4568 80.0528 57.8777 79.5357 58.2986C79.2435 58.5324 78.9063 58.7428 78.6141 58.9767C78.0296 59.3975 77.4901 59.8184 76.9281 60.2861C76.0289 61.0577 75.2196 61.8994 74.5003 62.8581C74.0956 63.3725 73.7809 64.0039 73.6461 64.6586C73.5561 65.1028 74.1406 65.0561 74.3429 64.9625C75.0173 64.7053 75.6692 64.4481 76.3436 64.1909C76.9955 63.9337 77.58 63.583 78.142 63.1621C78.5017 62.8815 78.8613 62.6009 79.1761 62.2736C79.4908 61.993 79.783 61.689 80.0752 61.3617C80.2101 61.1746 80.3675 60.9875 80.5024 60.8005C80.7047 60.5433 80.8396 60.2393 80.907 59.9119C80.8845 59.8184 80.862 59.7249 80.8395 59.6547C80.6597 59.4677 80.4574 59.4443 80.2101 59.5612Z" fill="#FFCDD8"/>
<path d="M232.555 50.5888C230.663 58.1974 231.637 66.3439 232.104 74.0387C232.337 77.8631 232.548 81.6889 232.34 85.5171C232.241 87.0862 232.099 88.6579 231.756 90.1958C231.575 90.9884 231.349 91.7607 231.033 92.4925C230.64 93.4588 230.138 93.5354 231.308 92.7056C231.896 92.5778 232.485 92.473 233.073 92.3452C232.847 91.3246 232.619 90.2812 232.611 89.2243C232.591 86.5822 233.78 87.9348 230.001 90.7625C229.506 90.9995 229.033 91.2352 228.538 91.4493C229.541 91.2502 228.269 95.3732 228.191 95.5848C229.787 94.4532 231.359 93.3001 232.954 92.1685C236.269 80.3588 237.072 68.0586 239.385 56.034C240.419 50.6613 241.727 45.0421 244.488 40.2998C246.941 36.0358 251.086 33.9215 255.893 34.0653C263.478 34.2928 270.387 39.5494 275.268 45.2283C280.266 51.0379 283.018 58.6165 283.27 66.4162C283.474 72.7709 282.682 79.485 279.816 85.2221C277.511 89.8218 273.828 93.2641 270.143 96.6607C264.94 101.437 260.215 106.529 253.851 109.629C249.357 111.81 244.564 112.838 239.728 113.891C238.399 114.179 237.245 115.33 236.349 116.35C236.182 116.544 234.451 118.948 235.391 118.798C235.763 118.753 236.112 118.686 236.484 118.64C237.922 117.012 239.382 115.36 240.821 113.733C238.046 114.154 234.673 114.521 232.034 113.234C231.289 112.865 230.492 112.339 230.123 111.534C229.9 111.042 229.834 110.586 229.895 110.054C229.924 109.73 230.019 109.426 230.181 109.14C230.7 108.074 230.129 108.546 228.447 110.602C228.824 110.648 230.191 109.806 230.559 109.669C231.771 109.25 233.033 108.943 234.298 108.705C237.571 108.092 240.89 107.982 244.18 107.736C249.972 107.314 255.815 106.59 261.25 104.305C267.485 101.696 272.773 97.3279 277.275 92.1807C277.692 91.6956 279.095 90.231 278.233 89.7318C277.485 89.2947 275.209 91.8009 274.854 92.1903C269.434 98.3589 262.265 101.209 254.456 102.259C247.873 103.143 241.071 102.73 234.654 104.753C230.687 106.006 226.296 108.94 225.106 113.38C223.412 119.666 233.139 119.12 236.461 118.618C237.772 118.424 238.985 117.131 239.84 116.16C240.007 115.966 241.737 113.562 240.798 113.711C240.426 113.757 240.077 113.824 239.705 113.87C238.266 115.497 236.806 117.149 235.367 118.777C240.074 117.778 244.804 116.823 249.242 114.829C256.307 111.663 261.685 106.876 267.347 101.589C271.935 97.2871 276.776 93.2224 280.621 88.1382C284.487 83.0527 286.906 77.1819 287.778 70.7617C288.941 62.2091 287.975 53.3266 283.772 45.7905C279.739 38.5658 272.623 32.2186 264.847 29.9111C252.29 26.1939 241.404 37.5915 237.321 49.0112C231.979 63.9096 232.437 80.3394 228.168 95.5632C227.795 96.9191 229.332 95.952 229.843 95.5991C230.993 94.8164 232.404 93.5123 232.93 92.1241C233.535 90.5472 235.049 85.0763 231.688 87.0279C227.921 89.2112 227.201 92.4731 228.105 96.5095C228.277 97.3265 229.552 96.3983 229.87 96.1491C236.925 90.9842 237.597 83.1741 237.318 74.8473C237.011 65.4879 235.221 55.5292 237.518 46.3099C237.776 45.2828 235.222 47.0704 235.117 47.1687C234.105 48.0809 232.885 49.2355 232.555 50.5888Z" fill="#FFCDD8"/>
<path d="M319.303 70.8087C316.448 72.3285 313.526 73.6847 310.918 75.6722C308.423 77.5662 306.31 79.9979 304.174 82.3128C300.959 85.7734 297.43 90.1926 298.127 95.3835C298.869 100.995 304.624 98.8909 307.703 96.6462C312.604 93.092 315.549 87.8544 319.101 83.0143C321.618 79.5771 325.462 74.6434 325.08 70.0604C324.968 68.5873 320.966 72.1882 320.652 72.5857C317.729 76.1866 317.594 81.6113 316.987 86.054C316.56 89.2106 316.201 92.6712 317.639 95.6173C318.988 98.3531 321.528 99.8028 324.406 99.1481C327.351 98.4934 330.205 96.576 332.611 94.7756C335.466 92.6478 338.186 90.029 340.186 87.0126C342.614 83.3884 344.525 78.3612 346.908 75.2981C347.425 74.6434 348.347 73.5444 347.065 73.521C345.896 73.521 343.986 75.5085 343.334 76.3503C338.793 82.1725 336.522 92.9985 328.295 94.5184C325.642 95.0094 323.507 92.8816 322.54 90.4966C321.483 87.831 321.866 84.7913 322.248 82.0322C322.495 80.2318 322.72 78.4313 323.012 76.6543C323.192 75.5553 323.394 74.4797 323.664 73.4041C323.776 72.9131 323.956 72.4454 324.091 71.9544C324.158 71.744 324.72 70.8321 324.203 71.4634C322.72 72.3051 321.259 73.1469 319.775 73.9887C320.067 77.5428 317.392 81.4243 315.436 84.1132C313.795 86.3579 312.267 88.6728 310.648 90.9409C309.502 92.5543 308.535 94.3079 306.4 94.3313C302.263 94.3781 303.073 88.2519 304.309 85.7266C305.523 83.2247 307.658 81.4009 309.479 79.39C311.435 77.2622 313.953 76.2568 316.448 74.9473C317.797 74.2225 319.258 73.1235 320.112 71.7674C320.697 70.8321 320.494 70.1773 319.303 70.8087Z" fill="#FFCDD8"/>
<path d="M311.772 76.1215C304.112 78.8182 296.718 82.6315 289.356 86.0981C286.909 87.238 284.347 88.2907 282.046 89.7237C277.705 92.4173 273.533 95.4029 269.336 98.3206C268.309 99.0319 266.386 100.403 266.146 101.748C265.903 103.047 267.219 102.255 267.853 101.813C271.809 99.0441 275.714 96.1158 279.861 93.6606C282.033 92.3713 284.397 91.3961 286.69 90.3318C293.722 87.0403 300.785 83.4022 308.091 80.8127C309.485 80.316 310.805 79.0399 311.703 77.8738C311.98 77.4707 313.144 75.6258 311.772 76.1215Z" fill="#FFCDD8"/>
<path d="M400.307 69.4087C399.725 66.5508 400.334 63.7122 399.929 60.8895C399.632 58.8869 398.431 59.1207 396.86 59.8823C392.298 62.089 389.198 67.5822 387.017 72.055C386.097 73.948 384.719 76.3742 384.561 78.5422C384.366 81.2638 386.812 83.9392 388.405 85.84C392.365 90.6048 395.777 94.5303 397.322 100.82C398.784 106.747 397.936 113.665 395.32 119.128C393.801 122.275 387.586 130.736 384.658 124.118C382.696 119.645 385.324 113.537 387.448 109.688C390.38 104.366 394.4 99.666 398.643 95.4351C403.578 90.519 408.938 86.1741 414.203 81.6743C419.382 77.2256 424.121 72.3444 429.397 68.0735C429.884 67.6765 432.377 65.5039 431.963 64.7025C431.5 63.8122 430.045 65.1408 429.559 65.5607C424.538 69.6324 420.028 74.247 415.126 78.4951C410.286 82.6706 405.328 86.6925 400.653 91.0875C392.227 98.9487 382.602 108.858 379.682 120.655C378.873 123.896 378.296 129.603 382.092 131.048C386.471 132.687 391.564 127.394 394.217 124.454C402.22 115.608 405.295 102.952 400.702 91.6356C399.396 88.4085 397.352 85.8463 395.111 83.2961C393.196 81.1165 389.296 77.588 389.51 74.3372C389.609 72.7697 390.686 70.936 391.343 69.5182C391.839 68.4088 393.109 65.1166 394.178 64.4545C394.841 64.0467 394.687 64.0561 394.915 65.0985C395.053 65.6642 394.955 66.7953 394.959 67.3232C394.954 69.459 394.859 71.5315 395.294 73.6406C395.542 74.6588 400.629 71.0194 400.307 69.4087Z" fill="#FFCDD8"/>
<mask id="path-9-inside-1_903_3" fill="white">
<path d="M151.093 100.797V79.5H153.612L160.783 98.2975L167.856 79.5H170.376V100.797H168.535V82.7996L161.849 100.797H159.911L152.934 82.7996V100.797H151.093Z"/>
</mask>
<path d="M151.093 100.797V79.5H153.612L160.783 98.2975L167.856 79.5H170.376V100.797H168.535V82.7996L161.849 100.797H159.911L152.934 82.7996V100.797H151.093Z" fill="#FFCDD8"/>
<path d="M151.093 100.797H-48.9072V300.797H151.093V100.797ZM151.093 79.5V-120.5H-48.9072V79.5H151.093ZM153.612 79.5L340.478 8.21735L291.377 -120.5H153.612V79.5ZM160.783 98.2975L-26.0829 169.58L162.055 662.779L347.968 168.737L160.783 98.2975ZM167.856 79.5V-120.5H29.4262L-19.3287 9.06035L167.856 79.5ZM170.376 79.5H370.376V-120.5H170.376V79.5ZM170.376 100.797V300.797H370.376V100.797H170.376ZM168.535 100.797H-31.4653V300.797H168.535V100.797ZM168.535 82.7996H368.535L-18.9461 13.1507L168.535 82.7996ZM161.849 100.797V300.797H300.904L349.329 170.446L161.849 100.797ZM159.911 100.797L-26.5682 173.086L22.9392 300.797H159.911V100.797ZM152.934 82.7996L339.413 10.5109L-47.0661 82.7996H152.934ZM152.934 100.797V300.797H352.934V100.797H152.934ZM151.093 100.797H351.093V79.5H151.093H-48.9072V100.797H151.093ZM151.093 79.5V279.5H153.612V79.5V-120.5H151.093V79.5ZM153.612 79.5L-33.2535 150.783L-26.0829 169.58L160.783 98.2975L347.648 27.0148L340.478 8.21735L153.612 79.5ZM160.783 98.2975L347.968 168.737L355.042 149.94L167.856 79.5L-19.3287 9.06035L-26.4023 27.8578L160.783 98.2975ZM167.856 79.5V279.5H170.376V79.5V-120.5H167.856V79.5ZM170.376 79.5H-29.6242V100.797H170.376H370.376V79.5H170.376ZM170.376 100.797V-99.2029H168.535V100.797V300.797H170.376V100.797ZM168.535 100.797H368.535V82.7996H168.535H-31.4653V100.797H168.535ZM168.535 82.7996L-18.9461 13.1507L-25.6321 31.1483L161.849 100.797L349.329 170.446L356.016 152.448L168.535 82.7996ZM161.849 100.797V-99.2029H159.911V100.797V300.797H161.849V100.797ZM159.911 100.797L346.389 28.5085L339.413 10.5109L152.934 82.7996L-33.5449 155.088L-26.5682 173.086L159.911 100.797ZM152.934 82.7996H-47.0661V100.797H152.934H352.934V82.7996H152.934ZM152.934 100.797V-99.2029H151.093V100.797V300.797H152.934V100.797Z" fill="#FFCDD8" mask="url(#path-9-inside-1_903_3)"/>
<mask id="path-11-inside-2_903_3" fill="white">
<path d="M175.317 100.797V79.5H189.174V81.2998H177.352V88.9987H188.205V90.6985H177.352V98.9974H189.465V100.797H175.317Z"/>
</mask>
<path d="M175.317 100.797V79.5H189.174V81.2998H177.352V88.9987H188.205V90.6985H177.352V98.9974H189.465V100.797H175.317Z" fill="#FFCDD8"/>
<path d="M175.317 100.797H-24.6826V300.797H175.317V100.797ZM175.317 79.5V-120.5H-24.6826V79.5H175.317ZM189.174 79.5H389.174V-120.5H189.174V79.5ZM189.174 81.2998V281.3H389.174V81.2998H189.174ZM177.352 81.2998V-118.7H-22.6477V81.2998H177.352ZM177.352 88.9987H-22.6477V288.999H177.352V88.9987ZM188.205 88.9987H388.205V-111.001H188.205V88.9987ZM188.205 90.6985V290.699H388.205V90.6985H188.205ZM177.352 90.6985V-109.301H-22.6477V90.6985H177.352ZM177.352 98.9974H-22.6477V298.997H177.352V98.9974ZM189.465 98.9974H389.465V-101.003H189.465V98.9974ZM189.465 100.797V300.797H389.465V100.797H189.465ZM175.317 100.797H375.317V79.5H175.317H-24.6826V100.797H175.317ZM175.317 79.5V279.5H189.174V79.5V-120.5H175.317V79.5ZM189.174 79.5H-10.826V81.2998H189.174H389.174V79.5H189.174ZM189.174 81.2998V-118.7H177.352V81.2998V281.3H189.174V81.2998ZM177.352 81.2998H-22.6477V88.9987H177.352H377.352V81.2998H177.352ZM177.352 88.9987V288.999H188.205V88.9987V-111.001H177.352V88.9987ZM188.205 88.9987H-11.7949V90.6985H188.205H388.205V88.9987H188.205ZM188.205 90.6985V-109.301H177.352V90.6985V290.699H188.205V90.6985ZM177.352 90.6985H-22.6477V98.9974H177.352H377.352V90.6985H177.352ZM177.352 98.9974V298.997H189.465V98.9974V-101.003H177.352V98.9974ZM189.465 98.9974H-10.5352V100.797H189.465H389.465V98.9974H189.465ZM189.465 100.797V-99.2029H175.317V100.797V300.797H189.465V100.797Z" fill="#FFCDD8" mask="url(#path-11-inside-2_903_3)"/>
<mask id="path-13-inside-3_903_3" fill="white">
<path d="M193.244 100.797V79.5H199.736C203.419 79.5 204.581 79.7 205.938 80.6998C208.361 82.3996 209.717 85.5992 209.717 89.9986C209.717 94.698 208.264 98.1975 205.55 99.7973C204.291 100.597 202.934 100.897 200.318 100.897H193.244V100.797ZM195.376 98.9974H200.124C202.74 98.9974 203.806 98.6974 204.969 97.7975C206.713 96.3977 207.682 93.3981 207.682 89.8986C207.682 86.0991 206.519 83.1995 204.388 82.0997C203.322 81.4997 202.547 81.3997 199.93 81.3997H195.473V98.9974H195.376Z"/>
</mask>
<path d="M193.244 100.797V79.5H199.736C203.419 79.5 204.581 79.7 205.938 80.6998C208.361 82.3996 209.717 85.5992 209.717 89.9986C209.717 94.698 208.264 98.1975 205.55 99.7973C204.291 100.597 202.934 100.897 200.318 100.897H193.244V100.797ZM195.376 98.9974H200.124C202.74 98.9974 203.806 98.6974 204.969 97.7975C206.713 96.3977 207.682 93.3981 207.682 89.8986C207.682 86.0991 206.519 83.1995 204.388 82.0997C203.322 81.4997 202.547 81.3997 199.93 81.3997H195.473V98.9974H195.376Z" fill="#FFCDD8"/>
<path d="M193.244 79.5V-120.5H-6.75586V79.5H193.244ZM205.938 80.6998L87.2775 241.696L89.1544 243.079L91.063 244.418L205.938 80.6998ZM205.55 99.7973L103.968 -72.4843L101.126 -70.8086L98.3406 -69.0401L205.55 99.7973ZM193.244 100.897H-6.75586V300.897H193.244V100.897ZM204.969 97.7975L327.374 255.965L328.772 254.883L330.151 253.777L204.969 97.7975ZM204.388 82.0997L106.292 256.39L109.458 258.172L112.687 259.838L204.388 82.0997ZM195.473 81.3997V-118.6H-4.52716V81.3997H195.473ZM195.473 98.9974V298.997H395.473V98.9974H195.473ZM193.244 100.797H393.244V79.5H193.244H-6.75586V100.797H193.244ZM193.244 79.5V279.5H199.736V79.5V-120.5H193.244V79.5ZM199.736 79.5V279.5C199.344 279.5 196.034 279.508 191.475 279.266C186.96 279.027 177.831 278.387 166.362 276.207C153.953 273.848 139.222 269.781 123.454 262.749C107.779 255.759 95.6641 247.877 87.2775 241.696L205.938 80.6998L324.598 -80.2961C301.607 -97.2417 273.509 -110.589 241.056 -116.757C219.397 -120.874 200.768 -120.5 199.736 -120.5V79.5ZM205.938 80.6998L91.063 244.418C20.0088 194.562 9.7171 121.569 9.7171 89.9986H209.717H409.717C409.717 49.6289 396.712 -29.763 320.813 -83.0186L205.938 80.6998ZM209.717 89.9986H9.7171C9.7171 64.2203 17.529 -21.5173 103.968 -72.4843L205.55 99.7973L307.133 272.079C398.998 217.912 409.717 125.176 409.717 89.9986H209.717ZM205.55 99.7973L98.3406 -69.0401C117.993 -81.5193 139.599 -90.2532 161.882 -94.987C180.681 -98.9805 195.465 -99.1029 200.318 -99.1029V100.897V300.897C217.916 300.897 264.401 299.342 312.76 268.635L205.55 99.7973ZM200.318 100.897V-99.1029H193.244V100.897V300.897H200.318V100.897ZM193.244 100.897H393.244V100.797H193.244H-6.75586V100.897H193.244ZM195.376 98.9974V298.997H200.124V98.9974V-101.003H195.376V98.9974ZM200.124 98.9974V298.997C206.372 298.997 227.132 298.973 252.28 292.592C283.834 284.585 308.824 270.321 327.374 255.965L204.969 97.7975L82.5642 -60.3703C99.9512 -73.8259 123.827 -87.4905 153.903 -95.1221C177.573 -101.128 196.493 -101.003 200.124 -101.003V98.9974ZM204.969 97.7975L330.151 253.777C403.594 194.835 407.682 113.679 407.682 89.8986H207.682H7.6822C7.6822 74.2584 9.71837 53.6563 17.5018 30.6188C24.713 9.27482 41.4735 -27.4328 79.7872 -58.1816L204.969 97.7975ZM207.682 89.8986H407.682C407.682 64.6334 401.6 -41.2027 296.088 -95.639L204.388 82.0997L112.687 259.838C61.1839 233.266 34.551 191.509 22.2167 161.905C10.058 132.721 7.6822 106.808 7.6822 89.8986H207.682ZM204.388 82.0997L302.484 -92.1908C251.394 -120.946 202.369 -118.6 199.93 -118.6V81.3997V281.4C199.762 281.4 197.065 281.408 193.387 281.257C189.715 281.106 182.118 280.696 172.518 279.228C162.076 277.632 149.831 274.885 136.565 270.165C123.478 265.508 113.199 260.278 106.292 256.39L204.388 82.0997ZM199.93 81.3997V-118.6H195.473V81.3997V281.4H199.93V81.3997ZM195.473 81.3997H-4.52716V98.9974H195.473H395.473V81.3997H195.473ZM195.473 98.9974V-101.003H195.376V98.9974V298.997H195.473V98.9974Z" fill="#FFCDD8" mask="url(#path-13-inside-3_903_3)"/>
</svg>
