<svg width="256" height="322" viewBox="0 0 256 322" fill="none" xmlns="http://www.w3.org/2000/svg">
<path opacity="0.87" d="M70.7934 33.5568C70.9579 33.9966 71.0358 34.4474 70.9839 34.9312C69.7975 46.1351 66.6626 67.9052 59.8647 80.9453C54.6948 90.8628 46.8491 98.0975 42.2767 104.024C33.8594 120.187 26.5852 184.683 18.116 237.778C17.7436 240.109 18.4191 242.473 19.8653 243.99C35.8166 260.725 70.7327 262.77 81.3236 253.754C81.9904 253.182 82.5447 252.413 82.9257 251.511C89.585 235.81 103.527 130.126 102.046 120.901C100.089 93.1938 84.0255 101.605 94.8242 42.8916C94.9628 42.1549 95.3351 41.5282 95.8114 41.0664C98.3834 38.5925 99.3706 34.6013 98.5566 28.8729C98.4526 28.1363 98.0283 27.4876 97.4827 27.2017C89.4898 23.0676 81.7826 20.0879 74.7422 19.7361C74.0408 19.7031 73.348 20.0659 72.8804 20.7256C69.4338 25.5964 69.3905 29.7305 70.802 33.5568H70.7934Z" fill="#C1D8E5"/>
<path opacity="0.72" d="M154.464 180.054L155.252 183.958L132.113 192.688C132.105 196.701 127.091 197.789 128.251 193.358C124.683 193.611 124.536 191.104 127.775 190.159C125.887 186.739 128.693 184.947 130.918 188.938L154.464 180.065V180.054Z" fill="black"/>
<path opacity="0.72" d="M73.5563 246.486C72.5864 263.287 70.7245 279.064 67.7369 293.556C67.0095 297.096 68.1093 298.888 69.9971 299.944C75.4354 300.824 78.6742 300.857 79.3756 299.944C80.969 297.47 80.588 294.82 78.6222 292.039C77.1068 290.059 75.5134 288.476 73.5563 288.674C73.3225 290.84 76.3534 267.487 77.4359 247.663L73.5563 246.486Z" fill="black"/>
<path d="M71.6767 292.138L70.6895 296.382L77.2016 297.019C77.2449 295.062 75.7814 293.369 71.6853 292.138H71.6767Z" fill="white"/>
<path opacity="0.72" d="M173.585 253.732C181.387 247.553 182.643 253.314 180.504 254.843L164.873 267.861C164.362 268.278 164.137 269.026 164.31 269.708L170.519 294.381C171.472 296.953 169.246 298.658 165.349 299.9C159.833 302.671 156.785 302.209 157.478 296.843C158.006 293.468 161.175 291.225 164.327 288.971C162.266 282.209 160.699 275.26 159.599 268.114C159.487 267.355 159.755 266.519 160.249 265.98C167.869 257.58 168.536 257.932 173.593 253.754L173.585 253.732Z" fill="black"/>
<path opacity="0.87" d="M161.591 40.6706C162.111 40.9015 162.431 41.6162 162.518 42.2979C168.493 91.6325 161.28 83.793 151.537 117.702C147.562 131.643 152.092 176.151 156.828 221.901L158.734 246.068C181.119 270.939 225.318 248.872 224.73 238.009C221.127 181.539 212.883 119.637 211.194 114.469C206.336 96.7122 195.719 100.308 188.835 61.3412L186.315 36.1077C187.285 35.25 186.947 35.338 187.718 34.6233C188.064 30.0714 187.83 26.2231 186.341 23.1225C185.795 22.0011 184.834 21.2864 183.795 21.2864C174.841 21.2864 166.008 22.9136 159.894 26.6959C159.34 27.0368 158.933 27.6745 158.811 28.4441C158.101 33.0291 158.803 39.3842 161.6 40.6486L161.591 40.6706Z" fill="#C1D8E5"/>
<path opacity="0.74" d="M187.414 71.3356C189.675 80.5385 191.909 89.7523 194.013 94.2383C195.849 97.8886 199.703 102.012 203.929 105.354C203.608 101.924 197.754 99.5159 194.801 91.0277C191.64 81.9129 188.835 70.8409 187.406 71.3356H187.414Z" fill="white"/>
<path opacity="0.74" d="M166.977 38.5375C163.791 37.526 162.829 40.1538 166.137 40.9674C174.884 42.6497 178.417 38.1637 182.323 34.1285C176.581 36.8113 170.831 39.5161 166.969 38.5375H166.977Z" fill="white"/>
<path opacity="0.74" d="M184.471 23.9362C178.712 26.399 172.84 27.3006 166.796 27.2896C163.973 27.7184 163.86 30.1593 166.796 30.1593C176.685 29.8625 182.877 28.2462 184.471 23.9362Z" fill="white"/>
<path d="M210.181 132.391C209.774 130.841 208.536 129.983 207.263 130.28C200.708 131.83 192.55 131.39 180.833 126.509C171.897 122.737 163.185 120.681 155.807 128.279C154.958 129.147 154.516 130.478 154.525 131.863C154.716 157.526 158.405 198.526 162.509 241.33C174.789 256.426 208.9 250.324 220.201 235.634C216.953 196.294 213.896 146.575 210.173 132.38L210.181 132.391Z" fill="#FFCDD8"/>
<path d="M166.831 236.415C170.338 241.923 175.958 243.979 183.648 243.353C186.965 242.968 186.454 240.736 183.648 240.78C177.742 241.451 172.122 240.098 166.831 236.415Z" fill="#E09EB1"/>
<path opacity="0.74" d="M74.2056 33.106C76.7689 37.515 81.601 38.7134 90.5552 38.7354C92.6682 37.8888 91.8801 36.7783 90.5552 36.8553C84.6839 36.8113 79.3235 35.305 74.2056 33.095V33.106Z" fill="white"/>
<path opacity="0.74" d="M75.5653 25.2995C78.9599 28.1362 84.1038 29.1368 89.2391 30.1373C92.677 30.83 92.6077 28.4991 89.7847 27.9823C85.5327 27.4216 81.2288 26.0252 76.8989 24.0131C75.3575 23.5843 74.7426 23.8922 75.574 25.3105L75.5653 25.2995Z" fill="white"/>
<path opacity="0.74" d="M38.6311 129.488L23.5024 233.754C36.7779 249.345 53.8636 252.786 73.5126 248.059C79.4012 246.97 80.4664 241.725 81.3843 234.139L96.6688 133.6C86.2078 120.516 73.7031 119.956 60.09 126.157C52.5473 129.576 45.3077 131.149 38.6311 129.488Z" fill="#FFD29B"/>
<path d="M29.7202 228.718C34.4571 236.316 41.2117 240.978 50.0014 242.682C54.21 243.1 51.8546 241.483 46.8492 239.032C40.822 236.888 35.1239 233.38 29.7202 228.718Z" fill="#F4CAAF"/>
<path opacity="0.72" d="M66.3513 201.11C63.6581 199.384 64.7492 196.338 67.2692 197.569C83.3937 208.444 99.7866 217.163 116.569 222.594C118.215 220.219 120.146 220.945 119.271 223.815C121.133 223.892 121.401 226.025 119.271 225.959C120.717 227.707 118.57 230.28 116.093 226.266C99.1025 221.132 82.5537 212.479 66.3513 201.11Z" fill="black"/>
<path opacity="0.72" d="M173.42 205.97C176.113 204.364 175.187 201.176 172.676 202.275C156.49 212.391 140.141 220.285 123.54 224.771C122.042 222.22 120.128 222.847 120.847 225.849C119.028 225.805 118.673 227.982 120.752 228.059C119.262 229.752 121.254 232.545 123.843 228.586C140.626 224.419 157.131 216.613 173.412 205.981L173.42 205.97Z" fill="black"/>
<path opacity="0.72" d="M195.676 257.272C195.572 246.156 200.967 248.07 200.863 251.027L201.582 273.622C201.608 274.359 202.059 274.985 202.708 275.194L226.341 282.528C228.99 282.99 228.982 286.123 227.553 290.664C226.341 297.635 224.08 300.406 220.209 296.799C217.828 294.425 218.001 290.07 218.157 285.716C211.463 284.067 204.916 281.824 198.508 279.01C197.833 278.713 197.33 277.987 197.2 277.195C195.2 265.046 195.901 264.584 195.694 257.294L195.676 257.272Z" fill="black"/>
<path d="M220.608 285.661C219.975 290.257 220.114 293.402 221.205 294.974C221.95 295.843 222.383 295.216 222.669 293.886L224.236 286.629L220.608 285.661Z" fill="white"/>
<path d="M165.938 293.017C162.778 294.71 160.881 296.349 160.405 298.02C160.206 299.064 160.795 299.119 161.764 298.713L167.012 296.514L165.938 293.006V293.017Z" fill="white"/>
<path opacity="0.72" d="M95.6818 180.054L94.8765 183.958L118.63 192.688C118.639 196.701 123.783 197.789 122.596 193.358C126.259 193.611 126.407 191.104 123.09 190.159C125.021 186.739 122.146 184.947 119.86 188.938L95.6905 180.065L95.6818 180.054Z" fill="black"/>
<path opacity="0.72" d="M46.9186 253.71C44.6671 249.51 48.1829 246.992 50.0794 249.29C53.6386 255.909 56.4357 274.26 52.9458 275.491L35.1846 287.41C35.9207 291.236 37.1158 295.007 35.0374 299.218C33.0283 300.879 31.1752 301.252 29.6164 299.339C26.7673 294.337 23.9096 290.246 25.7368 287.531C32.7772 282.473 38.0077 281.132 49.7157 272.533C50.0102 266.376 48.5467 260.054 46.9186 253.721V253.71Z" fill="black"/>
<path d="M31.7034 288.036L28.9062 289.818L32.552 298.438C34.284 297.14 32.7339 292.302 31.7034 288.025V288.036Z" fill="white"/>
<path opacity="0.72" d="M163.202 180.054C163.826 177.635 161.981 176.756 160.985 178.735L160.188 180.054C159.193 181.847 160.474 183.914 161.695 182.352C163.73 186.256 167.437 186.937 172.243 185.398C173.949 186.585 174.477 185.717 174.287 183.595L173.888 181.539C173.152 179.571 171.723 180.34 171.671 182.693C167.835 183.881 164.761 183.463 163.193 180.065L163.202 180.054Z" fill="black"/>
<path opacity="0.72" d="M59.224 181.704C59.7956 178.757 57.2929 178.086 56.1845 180.571L55.2752 182.253C54.1581 184.529 56.0373 186.717 57.4834 184.661C60.5403 188.85 65.4764 188.96 71.6162 186.267C73.9716 187.344 74.5778 186.223 74.1102 183.782L73.3828 181.451C72.2137 179.285 70.4211 180.45 70.5943 183.199C65.6842 185.288 61.6228 185.376 59.224 181.693V181.704Z" fill="black"/>
<path opacity="0.72" d="M161.063 162.297C160.119 161.099 159.019 161.66 159.253 164.771C159.651 168.334 160.872 170.214 162.864 170.544C164.18 170.808 165.324 170.61 166.207 169.73C167.393 168.334 168.129 166.926 168.484 165.497C169.575 163.1 168.424 162.253 167.211 162.891C164.787 163.331 162.778 163.056 161.054 162.297H161.063Z" fill="black"/>
<path d="M161.279 164.76C161.652 167.025 162.292 167.905 163.081 167.96C165.219 168.554 166.12 166.728 166.432 165.585C164.735 165.431 163.011 165.167 161.279 164.76Z" fill="white"/>
<path d="M162.665 165.024L165.453 165.508C165.358 166.311 165.098 166.805 164.059 166.948C163.245 166.893 162.951 166.465 162.665 165.024Z" fill="#050606"/>
<path opacity="0.72" d="M73.6166 164.43C71.2525 163.254 69.7544 165.233 71.4777 167.355C74.8204 169.334 77.2018 170.005 81.4278 169.114C84.9523 167.762 83.8525 163.925 81.2546 165.167C78.4401 165.761 76.5523 165.827 73.6166 164.419V164.43Z" fill="#020101"/>
<path opacity="0.72" d="M175.075 167.454C173.395 166.179 172.226 167.003 173.334 168.894C175.681 170.939 177.43 171.819 180.729 171.808C183.535 171.324 182.886 168.773 180.79 169.323C178.573 169.642 177.465 169.323 175.075 167.454Z" fill="#020101"/>
<path d="M75.8165 153.688C72.8202 156.701 71.7031 153.787 74.0239 150.753C76.3967 148.862 78.7694 149.092 81.1422 151.412C84.2164 154.645 82.3546 157.295 79.696 154.425C78.4577 153.369 77.1674 153.161 75.8165 153.688Z" fill="#020101"/>
<path opacity="0.72" d="M55.1542 161.869C52.9546 160.252 51.266 162.242 52.7208 164.661C55.795 167.256 59.3368 168.774 63.5455 168.257C67.1913 167.597 66.2647 163.848 63.5455 164.584C60.6964 164.639 57.8907 163.804 55.1542 161.869Z" fill="#020101"/>
<path opacity="0.72" d="M57.8731 152.325C54.8768 155.338 53.7597 152.424 56.0805 149.389C58.4533 147.498 60.8261 147.729 63.1989 150.049C66.2731 153.282 64.4112 155.931 61.7527 153.062C60.5143 152.006 59.224 151.797 57.8731 152.325Z" fill="#020101"/>
<path opacity="0.72" d="M75.8165 153.688C72.8202 156.701 71.7031 153.787 74.0239 150.753C76.3967 148.862 78.7694 149.092 81.1422 151.412C84.2164 154.645 82.3546 157.295 79.696 154.425C78.4577 153.369 77.1674 153.161 75.8165 153.688Z" fill="#020101"/>
<path opacity="0.72" d="M177.413 159.373C174.321 159.824 173.342 158.614 175.759 158.031C178.183 157.844 180.521 158.372 182.764 159.626C185.674 161.319 183.725 161.858 181.214 160.373C180.036 159.78 178.763 159.461 177.413 159.373Z" fill="#020101"/>
<path opacity="0.72" d="M161.176 153.732C158.049 153.897 157.183 152.468 159.66 152.083C162.102 152.138 164.38 152.963 166.501 154.568C169.238 156.734 167.237 157.119 164.873 155.228C163.756 154.447 162.518 153.963 161.176 153.732Z" fill="#020101"/>
<path opacity="0.74" d="M57.2236 92.2482C64.0908 81.594 71.5122 55.4589 72.2656 52.3802C72.8718 57.262 65.0607 82.8035 63.857 84.8925C63.0343 87.0365 59.7523 90.7529 57.2323 92.2482H57.2236Z" fill="white"/>
</svg>
